<?xml version="1.0" encoding="utf-8"?>
<!-- Generator: Adobe Illustrator 21.0.0, SVG Export Plug-In . SVG Version: 6.00 Build 0)  -->
<svg version="1.1" id="Layer_1" xmlns="http://www.w3.org/2000/svg" xmlns:xlink="http://www.w3.org/1999/xlink" x="0px" y="0px"
	 viewBox="0 0 68 68" style="enable-background:new 0 0 68 68;" xml:space="preserve">
<style type="text/css">
	.st0{fill:#F54631;}
	.st1{fill:#690609;}
	.st2{fill:#FEFFFF;}
	.st3{fill:#FFFFFF;}
</style>
<circle class="st0" cx="34.3" cy="33.9" r="33.5"/>
<rect x="69" y="9" class="st0" width="69" height="46"/>
<g>
	<g>
		<rect x="34.9" y="40.1" class="st1" width="10.9" height="2.2"/>
		<path class="st2" d="M7.8,17.9c0.6,0,1.2,0,1.8,0c0.8,0,1.7,0,2.5,0.1c1.3,0.1,2,0.9,2.3,2.1c0.1,0.5,0.2,1,0.2,1.5
			c0,1.8,0,3.5,0,5.2c0,1.2-0.2,2.3-1.5,3c1.2,0.7,1.4,1.8,1.5,3c0,1.9,0,3.9,0,5.8c0,0.4-0.1,0.9-0.2,1.3c-0.3,1.3-1.3,2.2-2.7,2.2
			c-0.2,0-0.3,0-0.5,0c-1.2,0-2.3,0-3.5,0C7.8,34.2,7.8,26.1,7.8,17.9z M10,30.9c0,3.1,0,6.1,0,9.2c0.4,0,0.7,0,1,0
			c1.2,0.1,1.4-0.5,1.5-1.5c0-2,0-4,0-6c0-0.3,0-0.7-0.2-1c-0.2-0.4-0.5-0.7-1-0.7C10.8,30.8,10.4,30.9,10,30.9z M10,20.2
			c0,3,0,5.8,0,8.7c0.4,0,0.8,0,1.1,0c0.6,0,1-0.3,1.2-0.9c0.1-0.2,0.1-0.4,0.1-0.7c0-1.9,0-3.9,0-5.8c0-0.3,0-0.6-0.2-0.8
			c-0.2-0.2-0.5-0.5-0.8-0.5C11,20.2,10.5,20.2,10,20.2z"/>
		<path class="st2" d="M56.5,37.4c-0.2,1.7-0.4,3.2-0.5,4.9c-0.7,0-1.3,0-2,0c0-0.3,0-0.6,0.1-0.9c0.8-6.8,1.5-13.7,2.3-20.5
			c0.1-0.9,0.2-1.7,0.3-2.5c0-0.3,0.1-0.4,0.4-0.4c0.5,0,1,0,1.5,0c0.3,0,0.4,0,0.4,0.4c0.4,4.4,0.9,8.8,1.3,13.1
			c0.4,3.5,0.7,7,1.1,10.5c0,0.1,0,0.2,0,0.4c-0.8,0-1.5,0-2.2,0c-0.1-0.9-0.1-1.7-0.2-2.6c0-0.6-0.1-1.3-0.1-1.9
			c0-0.3-0.1-0.4-0.4-0.4C57.9,37.4,57.2,37.4,56.5,37.4z M57.9,24.5C57.8,24.5,57.8,24.5,57.9,24.5c-0.4,3.6-0.8,7.1-1.2,10.7
			c0.7,0,1.3,0,2,0C58.4,31.6,58.1,28,57.9,24.5z"/>
		<path class="st2" d="M23.5,42.3c-0.8,0-1.5,0-2.3,0c-0.1-1.6-0.3-3.2-0.4-4.9c-0.7,0-1.4,0-2.1,0c-0.1,0-0.3,0.3-0.3,0.4
			c-0.2,1.4-0.3,2.7-0.4,4.1c0,0.1,0,0.2,0,0.3c-0.6,0-1.3,0-2,0c0.9-8.1,1.8-16.2,2.7-24.3c0.7,0,1.4,0,2.1,0
			c0.1,0,0.2,0.2,0.3,0.4c0.2,1.6,0.4,3.2,0.5,4.8c0.5,4.9,1,9.7,1.6,14.5C23.2,39.1,23.4,40.6,23.5,42.3z M20.7,35.2
			c-0.3-3.6-0.5-7.1-0.8-10.7c0,0,0,0-0.1,0c-0.4,3.6-0.7,7.1-1.1,10.7C19.4,35.2,20,35.2,20.7,35.2z"/>
		<path class="st2" d="M38.8,32.8c0.8,0,1.5,0,2.2,0c0,0.6,0,1.1,0,1.7c0,0.4,0.1,0.9,0.3,1.3c0.2,0.5,0.6,0.8,1.2,0.7
			c0.5,0,0.9-0.4,1-0.9c0.3-1.2,0.1-2.4-0.4-3.5c-0.9-1.9-1.9-3.7-2.9-5.6c-0.7-1.3-1.3-2.7-1.2-4.3c0-0.9,0.1-1.8,0.6-2.7
			c0.7-1.3,1.8-1.8,3.1-1.7c1.3,0,2.2,0.8,2.7,2c0.4,1,0.4,2.1,0.4,3.2c-0.7,0-1.4,0-2.2,0c0-0.4,0-0.9,0-1.2c0-0.4,0-0.7-0.1-1
			c-0.1-0.4-0.4-0.8-0.9-0.8c-0.5,0-1,0.2-1.2,0.7c-0.1,0.3-0.2,0.5-0.2,0.9c-0.1,1.2,0.2,2.3,0.8,3.4c1,1.8,1.9,3.7,2.9,5.6
			c0.9,1.7,1.2,3.4,0.7,5.2c-0.4,1.8-1.7,2.9-3.5,2.8c-1.7,0-2.9-1.2-3.2-3C38.8,34.6,38.9,33.7,38.8,32.8z"/>
		<path class="st2" d="M51.8,42.3c-0.8,0-1.5,0-2.2,0c0-7.4,0-14.7,0-22.2c-0.8,0-1.5,0-2.3,0c0-0.7,0-1.4,0-2.1c2.2,0,4.4,0,6.7,0
			c0,0.7,0,1.4,0,2.1c-0.7,0-1.4,0-2.1,0C51.8,27.5,51.8,34.8,51.8,42.3z"/>
		<path class="st2" d="M35,18c0.8,0,1.4,0,2.2,0c0,6.8,0,13.5,0,20.3c-0.7,0-1.4,0-2.2,0C35,31.5,35,24.7,35,18z"/>
		<path class="st2" d="M32.8,41.5v-0.1l0,0c0,0,0,0,0-0.1c-0.4-0.4-0.4-0.9-0.4-1.3c0-2.1,0-4.1,0-6.2c0-0.8,0-1.6-0.5-2.3
			c-0.2-0.3-0.5-0.6-0.8-0.9c0.9-0.4,1.2-1.3,1.3-2.3c0-2.3,0.1-4.7,0-7c0-1.8-1.1-3-2.7-3.1c-1.3-0.1-2.7,0-4.2,0
			c0,8.1,0,16.2,0,24.3c0.7,0,1.4,0,2.2,0c0-3.6,0-7.1,0-10.7c0.5,0,0.9,0,1.4,0c0.6,0,1,0.4,1.1,0.9c0.1,0.3,0.1,0.6,0.1,0.9
			c0,2.2,0,4.5,0,6.7c0,0.4,0,0.9,0.1,1.3c0.1,0.6,0.5,0.9,1.1,1c0.4,0,0.9,0,1.4,0.1v-0.4C32.8,41.9,32.8,41.7,32.8,41.5z M30,27.8
			c0,0.3-0.1,0.6-0.2,0.9c-0.2,0.4-0.5,0.7-1.1,0.7c-0.4,0-0.8,0-1.2,0c0-3.1,0-6.1,0-9.2c0.6,0,1.1-0.1,1.7,0
			c0.3,0,0.5,0.4,0.7,0.7c0.1,0.2,0.1,0.4,0.1,0.7C30,23.7,30,25.7,30,27.8z"/>
	</g>
	<g>
		<path class="st3" d="M9.2,47.6c0,0.8-0.2,1.4-0.5,1.8C8.4,49.9,7.9,50,7.3,50c-0.3,0-0.4,0-0.6-0.1v-0.8c0.2,0.1,0.4,0.2,0.6,0.2
			c0.7,0,1-0.6,1-1.8v-4.2h0.8L9.2,47.6L9.2,47.6z"/>
		<path class="st3" d="M15.5,49.9h-0.9l-0.7-1.8h-2.8l-0.6,1.8H9.6l2.5-6.6H13L15.5,49.9z M13.7,47.4l-1-2.8c0-0.1-0.1-0.2-0.1-0.4
			l0,0c0,0.2,0,0.3-0.1,0.4l-1.1,2.8H13.7z"/>
		<path class="st3" d="M22.9,49.9h-0.8v-4.4c0-0.4,0-0.8,0-1.3l0,0C22,44.5,22,44.7,22,44.8l-2.2,5.1h-0.4l-2.2-5
			c0-0.1-0.1-0.4-0.2-0.7l0,0c0,0.3,0,0.7,0,1.3v4.4h-0.8v-6.6h1l2,4.6c0.1,0.4,0.3,0.6,0.3,0.8h0c0.1-0.4,0.2-0.6,0.3-0.8l2.1-4.6
			h0.9L22.9,49.9L22.9,49.9L22.9,49.9z"/>
		<path class="st3" d="M24,49.6v-0.9c0.1,0.1,0.2,0.2,0.4,0.3c0.1,0.1,0.3,0.1,0.4,0.2c0.2,0,0.3,0.1,0.5,0.1c0.2,0,0.3,0,0.4,0
			c0.5,0,0.8-0.1,1.1-0.3c0.2-0.2,0.4-0.4,0.4-0.8c0-0.2,0-0.3-0.1-0.4c-0.1-0.1-0.2-0.3-0.3-0.4c-0.1-0.1-0.3-0.2-0.5-0.3
			c-0.2-0.1-0.4-0.2-0.6-0.3c-0.2-0.1-0.4-0.2-0.6-0.4s-0.4-0.3-0.5-0.4c-0.1-0.1-0.3-0.3-0.4-0.5s-0.1-0.4-0.1-0.6
			c0-0.3,0-0.6,0.2-0.8c0.1-0.2,0.3-0.4,0.5-0.5c0.2-0.1,0.4-0.3,0.7-0.3c0.3-0.1,0.5-0.1,0.9-0.1c0.6,0,1.1,0.1,1.4,0.2v0.8
			c-0.4-0.3-0.9-0.4-1.5-0.4c-0.2,0-0.3,0-0.5,0c-0.2,0-0.3,0.1-0.4,0.2c-0.1,0.1-0.2,0.2-0.3,0.3c-0.1,0.1-0.1,0.3-0.1,0.4
			s0,0.3,0.1,0.4c0,0.1,0.1,0.2,0.3,0.3c0.1,0.1,0.3,0.2,0.4,0.3c0.2,0.1,0.4,0.2,0.6,0.3c0.2,0.1,0.4,0.2,0.7,0.4
			c0.2,0.1,0.4,0.3,0.5,0.4c0.2,0.1,0.3,0.3,0.4,0.5c0.1,0.2,0.1,0.4,0.1,0.7c0,0.3,0,0.6-0.2,0.8s-0.3,0.4-0.5,0.5
			c-0.2,0.1-0.4,0.2-0.8,0.3c-0.3,0-0.6,0.1-0.9,0.1c-0.1,0-0.2,0-0.4,0c-0.1,0-0.3,0-0.4-0.1c-0.2,0-0.3-0.1-0.4-0.1
			C24.2,49.8,24.1,49.7,24,49.6z"/>
		<path class="st3" d="M33.9,49.9h-0.8v-3h-3.4v3H29v-6.6h0.8v2.9h3.4v-2.9h0.8V49.9z"/>
		<path class="st3" d="M38.9,49.9h-3.5v-6.6h3.3V44h-2.6v2.2h2.4v0.7h-2.4v2.3h2.7L38.9,49.9L38.9,49.9z"/>
		<path class="st3" d="M39.8,49.9v-6.6h1.8c2.3,0,3.5,1.1,3.5,3.2c0,1-0.3,1.8-0.9,2.5c-0.6,0.6-1.5,0.9-2.6,0.9L39.8,49.9
			L39.8,49.9z M40.6,44v5.2h1c0.9,0,1.5-0.2,2-0.7c0.5-0.4,0.7-1.1,0.7-2c0-1.7-0.9-2.5-2.7-2.5L40.6,44L40.6,44z"/>
		<path class="st3" d="M46.9,47.4v2.5h-0.8v-6.6h1.8c0.7,0,1.3,0.2,1.6,0.5c0.4,0.4,0.6,0.8,0.6,1.4c0,0.6-0.2,1.1-0.6,1.5
			c-0.4,0.4-1,0.6-1.8,0.6C47.8,47.4,46.9,47.4,46.9,47.4z M46.9,44v2.7h0.8c0.5,0,0.9-0.1,1.2-0.4c0.3-0.2,0.4-0.6,0.4-1
			c0-0.9-0.5-1.3-1.5-1.3L46.9,44L46.9,44z"/>
		<path class="st3" d="M55.9,47.3c0,1.8-0.9,2.8-2.5,2.8c-1.6,0-2.4-0.9-2.4-2.7v-4h0.8v4c0,1.3,0.6,2,1.7,2c1.1,0,1.7-0.7,1.7-2v-4
			h0.8L55.9,47.3L55.9,47.3z"/>
		<path class="st3" d="M62,49.9h-0.9l-1.1-1.8c-0.1-0.2-0.2-0.3-0.3-0.4c-0.1-0.1-0.2-0.2-0.3-0.3c-0.1-0.1-0.2-0.1-0.3-0.2
			c-0.1,0-0.2,0-0.4,0H58v2.8h-0.8v-6.6h2c0.3,0,0.5,0,0.8,0.1c0.2,0.1,0.4,0.2,0.6,0.3c0.2,0.1,0.3,0.3,0.4,0.5
			c0.1,0.2,0.1,0.5,0.1,0.8c0,0.2,0,0.4-0.1,0.6c-0.1,0.2-0.2,0.4-0.3,0.5c-0.1,0.1-0.3,0.3-0.4,0.4c-0.2,0.1-0.4,0.2-0.6,0.2l0,0
			c0.1,0,0.2,0.1,0.3,0.2c0.1,0,0.2,0.1,0.2,0.2c0.1,0.1,0.1,0.2,0.2,0.3c0.1,0.1,0.1,0.2,0.2,0.4L62,49.9z M58,44v2.4h1
			c0.2,0,0.4,0,0.5-0.1c0.2,0,0.3-0.1,0.4-0.3c0.1-0.1,0.2-0.2,0.3-0.4c0-0.2,0.1-0.3,0.1-0.5c0-0.4-0.1-0.6-0.4-0.8
			c-0.2-0.2-0.5-0.3-1-0.3L58,44L58,44z"/>
	</g>
</g>
</svg>
