<?xml version="1.0" encoding="utf-8"?>
<!-- Generator: Adobe Illustrator 21.0.0, SVG Export Plug-In . SVG Version: 6.00 Build 0)  -->
<svg version="1.1" id="Layer_1" xmlns="http://www.w3.org/2000/svg" xmlns:xlink="http://www.w3.org/1999/xlink" x="0px" y="0px"
	 viewBox="0 0 68 68" style="enable-background:new 0 0 68 68;" xml:space="preserve">
<style type="text/css">
	.st0{fill:#571902;}
	.st1{fill:#FFFFFF;}
	.st2{fill:#F6C215;}
	.st3{fill:#FCFBFA;}
	.st4{fill:#FFFEFD;}
	.st5{fill:none;}
</style>
<circle class="st0" cx="34.4" cy="33.8" r="33.5"/>
<g>
	<path class="st1" d="M48.2,31.7c-0.4,0-0.8,0-1.1,0.1c-0.4,0.1-0.9,0.2-1.3,0c0.5,0.4,1.1,0.7,1.7,0.5c0.3,0,0.6-0.1,0.8-0.2
		c0.3,0,0.5,0,0.6,0.3c0.1,0.3-0.1,0.6-0.4,0.7c-0.7,0.3-1.4,0.1-2.1-0.1c-1.3-0.5-2.6-1-3.9-1.5c-0.2,0-0.3-0.1-0.6-0.2
		c0.6-0.7,0.8-1.4,0.5-2.3c-0.2-0.9-0.9-1.2-1.7-1.5c0.2-0.1,0.3-0.1,0.4-0.2c0.6-0.3,1-0.8,1-1.7c0-0.8-0.3-1.4-1-1.7
		c-1.3-0.6-2.6-0.4-3.9,0.2c-0.5,0.3-0.9,0.7-1.4,1c-0.3,0.2-0.5,0.4-0.8,0.4c-0.2,0-0.4-0.1-0.5-0.3c-0.1-0.3,0-0.5,0.3-0.6
		c0.2,0,0.3,0,0.5-0.1c0.5,0,0.9-0.3,1.1-0.7c-0.3,0.1-0.8,0.1-1.1,0.3c-0.3,0.1-0.5,0.1-0.7,0.4h-0.1c0,0-0.2,0-0.2,0v0.9
		c0.6,0.4,1,0.3,1.4,0.1c0.5-0.2,1-0.5,1.4-0.9c0.6-0.4,1.3-1,2-1.1c0.5,0,1,0,1.5,0.2c0.7,0.2,1,1,0.9,2c-0.1,0.9-0.6,1.4-1.3,1.5
		c-0.5,0-1,0-1.6,0c-0.2,0-0.3-0.2-0.3-0.3c0-0.7,0-1.4,0-2.1c0-0.1,0-0.2,0-0.3c-0.2,0.7-0.7,0.8-1.3,0.9c0.1,0,0.2,0,0.2,0
		c0.4,0,0.6,0.3,0.6,0.8c0,1.3,0,2.6,0,3.8c0,0.3-0.1,0.3-0.3,0.3c-0.4,0-0.8,0.1-1.3,0.1c-0.1,0-0.2,0-0.2,0
		c-0.2,0.2-0.3,0.3-0.5,0.5c0.2,0.2,0.3,0.4,0.5,0.4c0.4,0.1,0.8,0.2,1.3,0.2c1.3,0,2.6,0.1,3.8-0.3c0.1,0,0.3,0,0.4,0.1
		c0.9,0.4,1.7,0.9,2.6,1.2c1.3,0.6,2.6,0.6,3.9,0.4c0.5-0.1,0.9-0.4,0.9-0.7C49.1,32.1,48.7,31.7,48.2,31.7z M40.8,31.5
		c-1.2,0.3-2.4,0.3-3.6,0.2c-0.3,0-0.7-0.1-1-0.2c-0.1,0-0.2-0.2-0.2-0.3s0.1-0.3,0.2-0.3c0.6-0.3,1.3-0.3,1.9-0.2
		c-0.1,0.2-0.2,0.4-0.3,0.5c-0.1,0.1-0.3,0.1-0.5,0.1l0,0h2.1c-0.3-0.1-0.8,0-0.8-0.7c0.9,0,1.7,0.3,2.5,0.7
		C41,31.4,40.9,31.4,40.8,31.5z M41.3,30.9c-0.9-0.1-1.7-0.3-2.5-0.5c-0.1,0-0.3-0.2-0.3-0.3c0-0.4,0-0.8,0-1.2c0-0.4,0-0.8,0-1.2
		c0-0.1,0.2-0.3,0.3-0.3c0.6,0,1.2,0,1.8,0c1.3,0.2,1.9,2,1.1,3.2C41.6,30.9,41.5,30.9,41.3,30.9z"/>
	<path class="st2" d="M34.4,24.7c-0.1,0,0-0.1,0-0.1h-0.1c-0.3-0.3-0.5-0.3-0.7-0.4c-0.4-0.1-0.8-0.2-1.2-0.3
		c0.3,0.3,0.6,0.7,1.1,0.7c0.2,0,0.3,0,0.5,0.1c0.3,0.1,0.4,0.3,0.3,0.6c-0.1,0.1-0.3,0.3-0.5,0.3c-0.3-0.1-0.5-0.3-0.8-0.4
		c-0.5-0.3-0.9-0.7-1.4-1c-1.3-0.7-2.6-0.8-3.9-0.2c-0.7,0.3-1,0.8-1,1.7c0,0.8,0.4,1.2,1.1,1.5c0.1,0,0.2,0.1,0.4,0.2
		c-0.8,0.3-1.5,0.6-1.7,1.4c-0.2,0.8-0.1,1.5,0.6,2.1c-0.2,0.1-0.4,0.1-0.6,0.2c-1.3,0.5-2.6,1-4,1.4c-0.7,0.2-1.4,0.3-2.1,0.1
		c-0.3-0.1-0.5-0.3-0.4-0.7c0.1-0.3,0.3-0.3,0.6-0.3s0.6,0.1,0.8,0.2c0.7,0.1,1.3-0.1,1.7-0.5c-0.4,0.3-0.9,0.1-1.3,0
		c-0.4-0.1-0.8-0.1-1.1-0.1c-0.6,0-0.9,0.3-0.9,0.7c0,0.3,0.3,0.7,0.9,0.7c1.4,0.2,2.7,0.1,4-0.4c0.9-0.3,1.7-0.8,2.6-1.2
		c0.1,0,0.3-0.1,0.4-0.1c1.3,0.4,2.6,0.3,3.9,0.3c0.4,0,0.9,0,1.3-0.2c0.2,0,0.3-0.3,0.5-0.4c-0.2-0.2-0.3-0.3-0.5-0.5
		c0,0-0.2,0-0.2,0c-0.4,0-0.9-0.1-1.3-0.1c-0.2,0-0.3-0.1-0.3-0.3c0-1.2,0-2.4,0-3.6c0-0.4,0.2-0.7,0.6-0.7c0.1,0,0.2,0,0.2,0
		c-0.6-0.1-1.1-0.2-1.3-0.9c0,0.1,0,0.2,0,0.3c0,0.7,0,1.3,0,2c0,0.2,0,0.3-0.3,0.3c-0.6,0-1.1,0-1.7,0c-0.8-0.1-1.2-0.6-1.4-1.4
		c-0.1-0.9,0.2-1.7,0.9-1.9c0.5-0.2,1-0.2,1.6-0.2c0.8,0,1.4,0.6,2.1,1c0.4,0.3,0.9,0.6,1.4,0.8c0.4,0.2,0.8,0.2,1.3-0.2
		c0,0,0,0.1,0,0.1v-1C34.4,24.6,34.4,24.7,34.4,24.7z M31.8,30.9L31.8,30.9c-0.2,0-0.3,0-0.5-0.1c-0.1-0.1-0.2-0.3-0.3-0.5
		c0.7-0.1,1.4-0.1,2,0.2c0.1,0,0.2,0.2,0.2,0.3c0,0.1-0.1,0.2-0.2,0.3c-0.3,0.1-0.7,0.2-1,0.2c-1.3,0.1-2.5,0-3.7-0.2
		c-0.1,0-0.2-0.1-0.3-0.2c0.8-0.3,1.6-0.7,2.5-0.7c0,0.7-0.5,0.6-0.8,0.7H31.8z M30.1,27.3c0.1,0,0.2,0.2,0.3,0.3c0,0.3,0,0.7,0,1.1
		s0,0.7,0,1.1c0,0.1-0.2,0.3-0.3,0.3c-0.9,0.2-1.7,0.3-2.6,0.4c-0.1,0-0.3-0.1-0.4-0.2c-0.8-1.1-0.1-2.8,1.2-3
		C28.9,27.2,29.5,27.3,30.1,27.3z"/>
	<path class="st1" d="M12.4,38.2c0.6,0.5,0.9,1.2,0.8,2c-0.1,1.1-0.9,2-2,2.1c-0.3,0-0.6,0-0.9,0c-0.7,0-0.7,0-1.1-0.7
		c-0.3,0.6-0.7,0.7-1.2,0.7C8,41.9,8,41.5,8,41.2c0-1.8,0-3.6,0-5.4c0-0.8,0.4-1.2,1.2-1.3c0.5,0,0.9,0,1.4,0c1.7,0,2.8,1.8,1.9,3.5
		C12.4,38,12.4,38.1,12.4,38.2z M10.2,38.8C10.2,38.8,10.2,38.7,10.2,38.8c-0.2,0-0.5,0-0.7,0c-0.1,0-0.3,0.2-0.3,0.3
		c0,0.5,0,1,0,1.4s0.3,0.8,0.7,0.9c0.3,0,0.6,0.1,0.9,0.1c0.7,0,1.1-0.7,1.1-1.3c0-0.7-0.5-1.2-1.2-1.3
		C10.6,38.7,10.4,38.8,10.2,38.8z M9.2,37.7c0.6,0,1.1,0,1.6,0c0.4,0,0.6-0.2,0.7-0.5c0.2-0.5,0-1.1-0.3-1.4
		c-0.4-0.3-1.3-0.4-1.6-0.2c-0.1,0.1-0.3,0.3-0.3,0.4C9.2,36.6,9.2,37.1,9.2,37.7z"/>
	<path class="st2" d="M40.2,41.6c-0.3,0.5-0.6,0.7-1,0.7c0-1.9,0-3.8,0-5.8c0-0.9,0.3-1.2,1.2-1.2c0.4,0,0.9,0,1.3,0
		c1.4,0,2.3,1.6,1.7,2.9c-0.1,0.3-0.1,0.4,0.1,0.7c0.5,0.6,0.7,1.4,0.4,2.1c-0.3,0.8-0.9,1.2-1.7,1.3c-0.2,0-0.5,0-0.7,0
		C40.8,42.3,40.4,42.3,40.2,41.6z M41,39.1L41,39.1c-0.2,0-0.4,0-0.6,0c-0.1,0-0.3,0.2-0.3,0.3c0,0.5,0,1,0,1.4
		c0,0.4,0.3,0.7,0.7,0.7c0.2,0,0.5,0.1,0.7,0.1c0.7,0,1.2-0.5,1.2-1.2c0-0.7-0.4-1.3-1.1-1.3C41.4,39.1,41.2,39.1,41,39.1z
		 M40.2,37.4L40.2,37.4c0,0.1,0,0.3,0,0.4c0,0.3,0.1,0.5,0.4,0.5c0.4,0,0.9,0,1.3,0c0.1,0,0.2-0.1,0.3-0.2c0.3-0.3,0.3-1,0.1-1.4
		c-0.3-0.4-1-0.7-1.6-0.5c-0.4,0.1-0.5,0.3-0.5,1C40.2,37.2,40.2,37.3,40.2,37.4z"/>
	<path class="st1" d="M23.1,42.2c-1.1,0.3-1.7-0.2-1.7-1.3c0-0.4,0-0.8,0-1.3c0-0.4-0.2-0.7-0.5-0.7c-0.3,0-0.5,0.2-0.5,0.7
		c0,0.7,0,1.3,0,2c0,0.2,0.1,0.4,0.1,0.7c-0.7,0.1-1.2-0.3-1.2-1.1c0-0.5,0-1,0-1.5c0-0.4-0.2-0.7-0.6-0.7c-0.3,0-0.5,0.2-0.5,0.7
		c0,0.6,0,1.1,0,1.7c0,0.3,0.1,0.6,0.1,0.9c-0.6,0.1-1.2-0.3-1.2-1c0-0.7,0-1.3,0-2c0-0.4-0.1-0.9-0.2-1.3c0.4-0.1,0.8,0.1,1,0.4
		c0.4-0.2,0.7-0.4,1.1-0.4c0.3,0,0.7,0.2,1.1,0.4c0.2-0.3,0.6-0.4,1.1-0.4c0.6,0,1,0.4,1,1.1c0,0.7,0,1.3,0,1.9
		C22.4,41.4,22.5,41.9,23.1,42.2z"/>
	<path class="st2" d="M50.2,38.4c0,0.3-0.1,0.6-0.1,0.8c0,0.5,0,1,0,1.6c0,0.3,0.2,0.6,0.5,0.6c0.3,0,0.5-0.2,0.5-0.6
		c0-0.5,0-1,0-1.5c0-0.6,0.4-1,1-1c0,0.4-0.1,0.8-0.1,1.2c0,1.5,0,3.1,0,4.6c0,0.8-0.4,1.2-1.2,1.2c-0.2,0-0.3,0-0.5,0
		c-0.9,0-1.2-0.4-1.1-1.4c0.3,0.6,0.8,0.7,1.3,0.7c0.4,0,0.6-0.2,0.6-0.6c0-0.4,0-0.8,0-1.2c0-0.3-0.2-0.6-0.5-0.6
		c-1.1,0.1-1.5-0.4-1.4-1.6c0-0.4,0-0.9,0-1.4C49.3,38.7,49.6,38.3,50.2,38.4z"/>
	<path class="st1" d="M28.2,37.1c0.3,0.7,0.8,0.7,1.4,0.7c1.4,0,1.7,0.3,1.7,1.7c0,0.5,0,1,0,1.5c0,0.8-0.4,1.2-1.2,1.2
		c-0.3,0-0.7,0-1,0c-0.6,0-1-0.5-1-1.1s0.4-1,1-1.1c0.2,0,0.4,0,0.6,0c0.3,0,0.5-0.2,0.5-0.5c0-0.3-0.2-0.5-0.5-0.5
		c-0.1,0-0.3,0-0.4,0c-0.8,0-1.2-0.4-1.2-1.3c0-0.1,0-0.3,0-0.4C28.1,37.1,28.2,37.1,28.2,37.1z M29.8,41.2
		c-0.2-0.2-0.3-0.4-0.4-0.4c-0.1,0-0.3,0.2-0.4,0.3c0.1,0.1,0.2,0.3,0.3,0.4C29.4,41.5,29.5,41.3,29.8,41.2z"/>
	<path class="st1" d="M16.8,40.4c0,0.3,0,0.7-0.1,1c-0.1,0.5-0.4,0.8-0.9,0.8c-0.4,0-0.8,0-1.3,0c-0.6,0-0.9-0.4-1-1
		c0-0.8,0-1.5,0-2.3c0-0.6,0.4-1,0.9-1c0.4,0,0.8,0,1.3,0c0.6,0,1,0.6,1,1.1c0,0.6-0.5,1-1,1c-0.2,0-0.4,0-0.6,0
		c-0.3,0-0.5,0.2-0.5,0.6c0,0.3,0.2,0.5,0.5,0.5c0.7,0,1.3,0,1.6-0.8C16.7,40.3,16.7,40.4,16.8,40.4z M16,38.9
		c-0.2-0.2-0.4-0.4-0.5-0.3c-0.1,0-0.3,0.2-0.4,0.3c0.1,0.1,0.2,0.3,0.3,0.3C15.6,39.3,15.7,39.1,16,38.9z"/>
	<path class="st1" d="M31.8,37.1c0.3,0.5,0.7,0.7,1.3,0.7c0.3,0,0.6,0,0.9,0c0.6,0,1,0.4,1,1c0,0.8,0,1.6,0,2.3c0,0.6-0.4,1-1,1
		c-0.4,0-0.8,0-1.2,0c-0.6,0-1-0.5-1-1.1c0-0.6,0.4-1,1-1.1c0.2,0,0.3,0,0.6,0c0.3,0,0.5-0.2,0.5-0.5S33.7,39,33.3,39
		c-0.1,0-0.3,0-0.4,0c-0.7,0-1.1-0.4-1.2-1.2C31.8,37.5,31.8,37.3,31.8,37.1z M33.4,41.1c-0.2-0.2-0.4-0.4-0.5-0.3
		c-0.1,0-0.3,0.2-0.3,0.3c0,0.1,0.2,0.3,0.3,0.3C33,41.5,33.2,41.3,33.4,41.1z"/>
	<path class="st1" d="M24.8,42.9c-0.1-0.7-0.2-1.3,0.3-1.5c0.4-0.2,0.9-0.2,1.4-0.3c-0.2-0.2-0.5-0.4-0.7-0.7
		c-0.3-0.3-0.6-0.6-0.9-1c-0.2-0.3-0.3-0.7-0.2-1c0.2-0.3,0.5-0.6,0.9-0.6c0.2,0,0.3,0,0.5,0c0.6,0,1.2,0,1.6-0.7
		c0.1,0.6,0.2,1.2-0.3,1.5c-0.4,0.3-0.9,0.3-1.4,0.4c0,0,0.1,0.1,0.2,0.2c0.4,0.4,0.8,0.8,1.2,1.2c0.3,0.3,0.4,0.7,0.2,1.1
		c-0.2,0.4-0.6,0.6-1,0.6c-0.1,0-0.3,0-0.4,0C25.7,42.3,25.1,42.1,24.8,42.9z"/>
	<path class="st2" d="M52.7,37.8c0.3,0.5,0.8,0.6,1.3,0.6c1.3,0,1.4,0.2,1.4,1.5c0,0.4,0,0.9,0,1.4c0,0.7-0.3,1-1,1
		c-0.3,0-0.6,0-0.9,0c-0.5,0-0.9-0.4-0.9-1s0.3-0.9,0.8-1c0.2,0,0.4,0,0.6,0c0.3,0,0.5-0.2,0.5-0.5c0-0.3-0.2-0.5-0.5-0.5
		c-0.1,0-0.2,0-0.3,0C53,39.2,52.7,38.9,52.7,37.8z M54.1,41.4c0,0,0-0.1,0-0.2c-0.1-0.1-0.3-0.3-0.4-0.3c-0.1,0-0.3,0.2-0.4,0.3
		c0.1,0.1,0.2,0.3,0.3,0.3C53.8,41.7,54,41.6,54.1,41.4z"/>
	<path class="st1" d="M37.1,34.6c-0.7,0.3-0.7,1-0.7,1.6c0,1.6,0,3.3,0,4.9c0,0.7-0.5,1.2-1.1,1.1c0-0.3,0.1-0.7,0.1-1.1
		c0-1.7,0-3.5,0-5.3C35.4,34.8,36.1,34.3,37.1,34.6z"/>
	<path class="st2" d="M59,42.3c-0.7,0-1-0.3-1-1c0-0.4,0-0.9,0-1.4c0-0.4-0.3-0.7-0.6-0.7S57,39.5,57,39.9c0,0.5,0,1,0,1.6
		c0,0.3,0,0.5,0.1,0.7c-0.6,0-1-0.3-1-1c0-0.6,0-1.1,0-1.7c0-0.4-0.1-0.8-0.1-1.2c0.3-0.1,0.7,0.1,1,0.6c0-0.1,0.1-0.3,0.2-0.3
		c0.7-0.6,1.6-0.3,1.7,0.6c0.1,0.8,0,1.6,0.1,2.4C59,41.8,59,42,59,42.3z"/>
	<path class="st2" d="M46.1,42.3c0-0.6,0-1.1,0-1.7c0-0.4,0-0.8,0-1.2c0-0.7,0.3-1,1-1c0.2,0,0.3,0,0.5,0c0.5,0,1,0,1.3-0.5
		c0.2,0.9-0.2,1.4-1,1.5c-0.1,0-0.3,0-0.4,0c-0.3,0-0.5,0.2-0.5,0.6c0,0.5,0,1,0,1.4C46.9,41.9,46.6,42.3,46.1,42.3z"/>
	<path class="st1" d="M24.3,42.2c-0.7,0-1.1-0.3-1.2-1c0-0.7,0-1.3,0-1.9c0-0.6-0.1-1-0.6-1.4c0.8-0.3,1.6,0.2,1.7,1
		c0,0.8,0,1.6,0,2.4C24.3,41.6,24.3,41.9,24.3,42.2z"/>
	<path class="st2" d="M44,38.3c1.1,0,1.5,0.3,1.5,1.3c0,0.6,0,1.3,0,1.9c0,0.3,0,0.5,0.1,0.7c-0.5,0-0.9-0.3-0.9-0.8
		c0-0.5,0-1,0-1.4C44.6,39.4,44.8,38.8,44,38.3z"/>
	<path class="st2" d="M59.4,38.3c0.2,0,0.3,0,0.5,0c0.6,0.1,0.9,0.4,0.9,1c0,0.7,0,1.4,0,2.1c0,0.3,0,0.5,0.1,0.8
		c-0.5,0.1-0.9-0.3-1-1c0-0.5,0-1,0-1.6C60,39.2,60,38.6,59.4,38.3C59.3,38.3,59.4,38.3,59.4,38.3z"/>
	<path class="st2" d="M35.3,23.1c0,0.5-0.3,0.9-0.9,0.9c-0.5,0-0.9-0.4-0.9-0.9c0-0.5,0.4-0.9,0.9-0.9
		C34.9,22.2,35.3,22.6,35.3,23.1z"/>
	<path class="st3" d="M39.3,43.2C39.3,43.2,39.3,43.2,39.3,43.2c0.8-0.9,0.9-0.9,1.6,0.1c-0.3,0.3-0.5,0.5-0.8,0.8
		C39.8,43.8,39.6,43.6,39.3,43.2z"/>
	<path class="st4" d="M55.8,44.1c-0.2-0.3-0.5-0.5-0.7-0.8c0.3-0.3,0.5-0.5,0.8-0.8c0.2,0.3,0.4,0.6,0.7,0.9
		C56.4,43.6,56.1,43.8,55.8,44.1z"/>
	<path class="st2" d="M14.4,36.5c0.2-0.3,0.5-0.5,0.7-0.8c0.2,0.3,0.5,0.5,0.7,0.8c-0.2,0.2-0.5,0.4-0.8,0.7
		C14.9,37.1,14.6,36.8,14.4,36.5z"/>
	<path class="st2" d="M33.8,37.3c-0.2-0.3-0.4-0.5-0.7-0.8c0.3-0.2,0.5-0.4,0.8-0.7c0.2,0.2,0.4,0.4,0.7,0.8
		C34.4,36.8,34.1,37.1,33.8,37.3z"/>
	<path class="st1" d="M23.7,36.2c0.3,0,0.6,0.3,0.5,0.6c0,0.3-0.3,0.5-0.6,0.5s-0.6-0.3-0.5-0.6C23.2,36.4,23.4,36.2,23.7,36.2z"/>
	<path class="st2" d="M45.1,36.8c0.1,0.2,0.3,0.3,0.3,0.6c0,0.3-0.2,0.4-0.4,0.4c-0.3,0-0.5-0.2-0.4-0.5c0-0.2,0.2-0.3,0.3-0.5
		C45,36.8,45.1,36.8,45.1,36.8z"/>
	<path class="st2" d="M60.8,37.4c-0.2,0.1-0.3,0.3-0.5,0.3c-0.2,0-0.4-0.1-0.4-0.4c0-0.3,0.2-0.6,0.4-0.5c0.2,0,0.3,0.3,0.5,0.3
		C60.8,37.3,60.8,37.4,60.8,37.4z"/>
	<path class="st5" d="M30.4,28.7c0,0.3,0,0.7,0,1.1c0,0.1-0.2,0.3-0.3,0.3c-0.9,0.2-1.7,0.3-2.6,0.4c-0.1,0-0.3-0.1-0.4-0.2
		c-0.8-1.1-0.1-2.8,1.2-3c0.6-0.1,1.2,0,1.8,0c0.1,0,0.2,0.2,0.3,0.3C30.4,28,30.4,28.3,30.4,28.7z"/>
	<path class="st5" d="M30.3,30.2c0,0.7-0.5,0.6-0.8,0.7c0.7,0,1.5,0,2.2,0v0c-0.2,0-0.4,0-0.5-0.2c-0.1-0.1-0.2-0.3-0.3-0.5
		c0.7-0.1,1.4-0.1,2,0.2c0.1,0,0.2,0.2,0.2,0.3c0,0.1-0.1,0.2-0.2,0.3c-0.3,0.1-0.7,0.2-1,0.2c-1.3,0.1-2.5,0-3.7-0.2
		c-0.1,0-0.2-0.1-0.3-0.2C28.6,30.5,29.4,30.2,30.3,30.2z"/>
	<path class="st5" d="M10.2,38.8c0.2,0,0.4,0,0.7,0c0.7,0,1.2,0.6,1.2,1.3s-0.5,1.3-1.1,1.3c-0.3,0-0.6,0-0.9-0.1
		c-0.5-0.1-0.7-0.3-0.7-0.9c0-0.5,0-1,0-1.4c0-0.1,0.2-0.2,0.3-0.3C9.7,38.7,9.9,38.7,10.2,38.8C10.2,38.7,10.2,38.8,10.2,38.8z"/>
	<path class="st5" d="M9.2,37.7c0-0.6,0-1.1,0-1.7c0-0.2,0.2-0.3,0.3-0.4c0.3-0.3,1.2-0.1,1.6,0.2c0.4,0.3,0.5,0.9,0.3,1.4
		c-0.1,0.3-0.3,0.6-0.7,0.6C10.3,37.7,9.8,37.7,9.2,37.7z"/>
	<path class="st5" d="M41,39.1c0.2,0,0.4,0,0.6,0c0.7,0,1.2,0.6,1.1,1.3c0,0.7-0.5,1.2-1.2,1.2c-0.2,0-0.5,0-0.7-0.1
		c-0.3-0.1-0.6-0.3-0.7-0.7c0-0.5,0-1,0-1.4c0-0.1,0.2-0.2,0.3-0.3C40.6,39.1,40.8,39.1,41,39.1L41,39.1z"/>
	<path class="st5" d="M40.2,37.4c0-0.1,0-0.1,0-0.2c0-0.7,0.1-0.9,0.5-1c0.6-0.2,1.3,0.1,1.6,0.5c0.2,0.4,0.2,1.1-0.1,1.4
		c-0.1,0.1-0.2,0.1-0.3,0.2c-0.4,0-0.9,0-1.3,0c-0.3,0-0.5-0.1-0.4-0.5C40.2,37.7,40.2,37.5,40.2,37.4L40.2,37.4z"/>
	<path class="st5" d="M29.8,41.2c-0.2,0.1-0.4,0.3-0.5,0.3c-0.1,0-0.2-0.3-0.3-0.4c0.1-0.1,0.3-0.3,0.4-0.3
		C29.5,40.8,29.5,41,29.8,41.2z"/>
	<path class="st5" d="M16,38.9c-0.3,0.2-0.4,0.3-0.5,0.3c-0.1,0-0.2-0.2-0.3-0.3c0.1-0.1,0.2-0.3,0.4-0.3
		C15.6,38.5,15.7,38.8,16,38.9z"/>
	<path class="st5" d="M33.4,41.1c-0.3,0.2-0.4,0.3-0.5,0.3c-0.1,0-0.3-0.3-0.3-0.3c0-0.1,0.2-0.3,0.3-0.3
		C33,40.7,33.2,40.9,33.4,41.1z"/>
	<path class="st5" d="M54.1,41.4c-0.1,0.1-0.3,0.3-0.4,0.3c-0.1,0-0.3-0.2-0.3-0.3c0.1-0.1,0.2-0.3,0.4-0.3c0.1,0,0.3,0.2,0.4,0.3
		C54.1,41.3,54.1,41.4,54.1,41.4z"/>
</g>
</svg>
