<?xml version="1.0" encoding="utf-8"?>
<!-- Generator: Adobe Illustrator 21.0.0, SVG Export Plug-In . SVG Version: 6.00 Build 0)  -->
<svg version="1.1" id="Layer_1" xmlns="http://www.w3.org/2000/svg" xmlns:xlink="http://www.w3.org/1999/xlink" x="0px" y="0px"
	 viewBox="0 0 68 68" style="enable-background:new 0 0 68 68;" xml:space="preserve">
<style type="text/css">
	.st0{fill:#9F2E67;}
	.st1{fill:#050505;}
	.st2{fill:#FCFAFB;}
	.st3{fill:#FCFAFA;}
	.st4{fill:#FFFFFF;}
	.st5{fill:none;}
</style>
<circle class="st0" cx="34.3" cy="34.1" r="33.5"/>
<g>
	<path class="st1" d="M13.8,37.1c0-0.1-0.1-0.2-0.2-0.3c-0.3-0.6-0.9-1-1.4-1.3c0,0,0,0,0,0c-0.5-0.3-1-0.4-1.6-0.4
		c-0.1,0-0.3,0-0.4,0c0,0-0.1,0-0.1,0c0,0,0,0.1,0,0.1c0,0,0,0.1,0.1,0.1c0.3,0.3,0.5,0.9,0.6,1.3c0,0.3,0.1,0.6,0.2,0.9
		c0.1,0.4,0.3,0.7,0.7,0.9c0.2,0.1,0.2,0.1,0.1,0.3c-0.2,0.3-0.3,0.6-0.3,0.9c0,0.7,0.5,1.3,1.2,1.3c0,0,0.1,0,0.2,0
		c0,0,0.1,0,0.1,0c0,0,0,0.1,0,0.1c-2.6,3.8-1.9,2.3-1.9,2.3v0c-0.1-0.6-0.5-2.2-1.3-2c-0.3,0-0.6,0.1-0.9,0.2
		c-1.2,0.1-0.9-1.2-0.9-1.2C7.5,40,8,39.5,7.9,39.5c-0.4-0.1-0.3-0.6-0.3-0.6s-0.4-0.3-0.5-0.3C6.9,38.6,7.8,37,7.8,37
		c0-0.1-0.2-0.7-0.2-0.7c-0.3-0.4,0.4-1.1,0.4-1.1c-1.6-1.6-0.8-3.4-0.8-3.4c0.1,1.5,0.6,1.6,0.7,1.6c-0.6-3,1.4-3.8,1.5-3.9
		c-0.9,1.1-0.5,2.2-0.4,2.3c-0.1-1.2,0.7-1.9,0.7-1.9c-0.4,1,1.1,1.7,2.4,2.2c1,0.3,1.9,0.6,1.9,0.6C14.1,33.8,14,35.5,13.8,37.1z"
		/>
	<path class="st2" d="M13.2,40.4L13.2,40.4L13.2,40.4C13.1,40.4,13.1,40.4,13.2,40.4z"/>
	<path class="st2" d="M13.2,40.4L13.2,40.4L13.2,40.4L13.2,40.4z"/>
	<path class="st2" d="M13,40.8c0.4-0.1,0.6-0.3,0.7-0.7c0-0.1,0-0.3,0-0.5c0-0.3,0-0.6,0-0.9c0,0,0-0.1,0-0.1c0,0,0,0,0-0.1
		s0,0,0-0.1v0v0c0,0.3,0,0.5,0.1,0.7c0,0.1,0,0.1,0,0.3c0.1-0.4,0.1-0.7,0.2-1.1c0.1,0.1,0.1,0.3,0.1,0.4c0,0.3,0,0.6,0,0.8
		c0,0.1,0,0.3,0,0.4c0.1,0.4,0.4,0.7,0.9,0.7c0.8,0.1,1.2-0.4,1.3-1.1c0-0.3,0-0.6-0.3-0.8c-0.1-0.1-0.1-0.2,0-0.3
		c0.4-0.1,0.6-0.4,0.7-0.9c0.1-0.3,0.1-0.5,0.1-0.8c0-0.4,0.2-0.9,0.5-1.2c0,0,0,0,0.1-0.1c0,0,0-0.1,0-0.1c0,0-0.1,0-0.1,0
		c-0.1,0-0.3,0-0.3,0c-0.5,0-1,0.2-1.5,0.4c-0.6,0.3-1,0.6-1.3,1.2c-0.1,0.1-0.2,0.3-0.3,0.4c0,0,0,0-0.1,0s0,0,0-0.1
		c0,0,0-0.1,0-0.1c0-0.1,0-0.1-0.1-0.1s-0.1,0-0.1,0.1c0,0,0,0.1,0,0.1c0,0,0,0,0,0c0,0,0,0,0,0.1l0,0c0,0-0.1,0-0.1,0c0,0,0,0,0,0
		c-0.1,0-0.3-0.1-0.3-0.3l0,0c0,0,0,0,0,0h0l0,0c-0.2-0.3-0.4-0.6-0.7-0.9c-0.3-0.3-0.5-0.4-0.7-0.6c-0.2-0.1-0.2-0.1-0.1-0.3
		c0,0,0,0,0-0.1c0.1-0.3,0.1-0.3-0.2-0.4c-0.2,0-0.3-0.1-0.6-0.2c-0.5-0.2-0.7-0.5-0.6-1.2c0.1-0.4,0.4-0.7,0.7-0.9
		c0,0,0.1-0.1,0.2-0.1c0,0,0.1-0.1,0.1-0.1c0-0.1,0-0.3,0-0.3c0-0.3,0.1-0.4,0.3-0.6c0.1-0.2,0.3-0.3,0.4-0.6
		c0.1-0.1,0.3-0.2,0.6-0.2c0.1,0,0.2,0,0.3,0c0,0,0.1,0,0.2,0c0-0.1,0-0.1,0-0.2c0-0.3,0.3-0.5,0.5-0.5c0.1,0,0.2,0,0.3,0
		c0.1,0,0.1,0,0.3,0c0.3-0.1,0.5-0.2,0.7-0.1c0.2,0,0.3,0.1,0.4,0.3c0,0.1,0.1,0.2,0.1,0.3c0.2,0,0.3,0,0.4,0s0.2,0,0.3-0.1
		c0.4-0.1,0.8-0.2,1.2,0c0.6,0.2,1.1,0.3,1.7,0.5c0.3,0.1,0.5,0.3,0.7,0.4c0.1,0.1,0.2,0.1,0.3,0.3c0.1,0.2,0.3,0.3,0.4,0.4
		c0.3,0.1,0.4,0.2,0.6,0.3c0.3,0.3,0.3,0.5,0.4,0.9c0,0.1,0,0.1,0.1,0.2c0.3,0.1,0.5,0.5,0.6,0.9c0,0.3,0,0.7-0.1,1
		c-0.1,0.3-0.3,0.3-0.6,0.3c-0.2,0-0.3,0-0.3,0.2c-0.1,0.3-0.2,0.4-0.3,0.6c0,0-0.1,0.1,0,0.2c0,0,0.1,0,0.2,0c0,0,0.1,0,0.1,0
		c0,0.1,0,0.1-0.1,0.1c0,0,0,0-0.1,0c-0.3,0-0.3,0.1-0.3,0.4c0,0.2,0.1,0.4,0.1,0.6c0,0.1,0.1,0.3,0.2,0.4c0.1,0.3,0,0.5-0.3,0.6
		c-0.1,0-0.3,0-0.3,0c-0.1,0.1,0,0.2,0,0.3c0,0.2,0,0.3-0.3,0.3c0,0,0,0-0.1,0c0,0,0,0.1,0,0.1c0,0.1,0,0.3-0.1,0.4
		c-0.1,0.1-0.1,0.2-0.1,0.3c0,0.1,0,0.2,0,0.3c-0.1,0.3-0.3,0.5-0.7,0.4c-0.1,0-0.3-0.1-0.5-0.1c-0.3-0.1-0.6-0.3-0.9-0.3
		c-0.3,0-0.4,0-0.6,0.3c-0.3,0.6-0.9,1.1-1.3,1.6c-0.3,0.3-0.5,0.5-0.7,0.7c0,0.1,0.1,0,0.1,0c0.4,0,0.9,0,1.3,0c1.2,0,2.3,0,3.5,0
		c1,0,2,0,3,0c1,0,1.9,0,2.9,0c1.7,0,3.5,0,5.3,0c1.1,0,2.3,0,3.3,0c1,0,2,0,2.9,0c1.3,0,2.6,0,4,0c1.5,0,2.9,0,4.4,0
		c1.6,0,3.2,0,4.7,0.1c1.8,0,3.6,0,5.4,0.1c0.4,0,0.9,0,1.2,0c0.3,0,0.5,0,0.7,0l0,0c0.1,0,0.2,0.1,0.2,0.2c0,0.1-0.1,0.1-0.2,0.2
		c0,0-0.1,0-0.2,0c-1.2,0-2.5,0-3.7,0c-1.6,0-3.3,0-4.9,0c-1.8,0-3.6,0-5.4-0.1c-1,0-2,0-3.1,0c-2,0-4,0-5.9-0.1c-2,0-3.9,0-5.9-0.1
		c-1.4,0-2.9,0-4.4,0c-2.2,0-4.3,0-6.4-0.1c-1.5-0.1-3-0.1-4.5-0.1c-0.8,0-1.6,0-2.3,0c-0.6,0-1.1,0-1.6,0c0,0-0.1,0-0.1-0.1
		c0-0.1-0.1-0.2,0.1-0.3c0.3,0,0.4,0,0.7,0c0,0,0.1,0,0.2,0s0.1,0,0.2-0.1c0,0,0,0,0-0.1c0.6-0.7,1-1.5,1.6-2.2c0,0,0,0,0-0.1v-0.1"
		/>
	<path class="st3" d="M30.7,41.3c-1.4,0-2.6-0.4-3.8-1.2c-1.2-0.9-2-2-2.3-3.3c-0.5-1.9-0.3-3.7,0.7-5.3c0.5-0.9,1.2-1.5,2-2
		c0.7-0.4,1.4-0.7,2.3-0.9c0.8-0.1,1.6-0.1,2.4,0c0.9,0.2,1.8,0.6,2.6,1.2c0.9,0.7,1.6,1.5,2,2.6c0,0.1,0.1,0.3,0.1,0.6
		c0,0.1,0,0.1-0.1,0.1c-0.3,0-0.6,0-0.9,0c-0.1,0-0.1-0.1-0.2-0.2c-0.2-0.5-0.4-1-0.8-1.4c-0.6-0.8-1.5-1.3-2.4-1.6
		c-0.9-0.3-1.7-0.3-2.6-0.1c-1.3,0.3-2.4,0.9-3.2,2c-0.6,0.7-0.9,1.5-0.9,2.3c-0.1,1,0,1.9,0.3,2.9c0.6,1.4,1.5,2.3,2.9,2.9
		c0.9,0.3,1.7,0.5,2.6,0.4c0.6,0,1.1-0.3,1.7-0.5c0.4-0.2,0.9-0.5,1.2-0.9c0.2-0.1,0.3-0.3,0.5-0.6c0.1-0.2,0.4-0.3,0.6-0.3
		c0.3,0,0.4,0,0.7,0c0.1,0,0.2,0,0.1,0.2c-0.1,0.3-0.3,0.6-0.5,0.8c-0.6,0.7-1.3,1.2-2.2,1.6c-0.6,0.3-1.1,0.4-1.7,0.6
		C31.4,41.3,31,41.3,30.7,41.3z"/>
	<path class="st3" d="M54.3,41.7c-0.7,0-1.5-0.1-2.2-0.3C51.3,41,50.5,40.6,50,40c-0.6-0.5-1-1.1-1.4-1.7c-0.3-0.6-0.5-1.1-0.6-1.7
		c-0.3-1.4-0.1-2.9,0.5-4.2c0.5-1.1,1.3-2,2.3-2.6c0.6-0.3,1.1-0.6,1.7-0.7c1.1-0.3,2.2-0.2,3.2,0.1c1.2,0.4,2.3,1,3.1,2
		c0.5,0.6,0.9,1.2,1.1,2c0,0,0,0.1,0,0.1c0,0.2,0,0.2-0.1,0.2c-0.3,0-0.5,0-0.8,0c-0.1,0-0.2,0-0.3-0.2c-0.2-0.6-0.6-1.1-0.9-1.6
		c-0.4-0.5-0.9-0.9-1.6-1.2c-1-0.5-2.1-0.6-3.2-0.4c-1,0.1-1.9,0.6-2.6,1.2c-0.6,0.5-1,1.1-1.3,1.9c-0.4,1.1-0.5,2.2-0.2,3.4
		c0.3,1.4,1.2,2.5,2.4,3.2c0.9,0.6,1.7,0.8,2.7,0.8c0.7,0,1.4-0.1,2-0.4c0.5-0.3,1-0.6,1.4-0.9c0.1-0.1,0.3-0.3,0.3-0.4
		c0.2-0.3,0.4-0.4,0.8-0.4c0.2,0,0.4,0,0.6,0c0.1,0,0.1,0,0.1,0.1c0,0.1-0.1,0.3-0.1,0.3c-0.3,0.6-0.7,1-1.2,1.4
		c-0.7,0.6-1.6,0.9-2.5,1.2C55.2,41.6,54.7,41.7,54.3,41.7z"/>
	<path class="st3" d="M58.9,24.7c-0.2,0.1-0.4,0.1-0.6,0.1c-1,0-2,0-3.1,0c-1.1,0-2.3,0-3.4,0c-1.6,0-3.1,0-4.6-0.1
		c-2.4,0-4.9,0-7.3-0.1c-2,0-4.1,0-6.1-0.1c-2,0-3.9,0-5.9-0.1c-1.4,0-2.7,0-4.1,0c-1.7,0-3.4,0-5-0.1c-1.5,0-3,0-4.5,0
		c-1.2,0-2.3,0-3.5-0.1c-0.2,0-0.4,0-0.6,0c0,0-0.1,0-0.1-0.1c0-0.1,0-0.3,0.1-0.3c0.3,0,0.6,0,1,0c1.8,0,3.6,0,5.4,0
		c1.2,0,2.5,0,3.7,0c0.8,0,1.6,0,2.4,0c1.1,0,2.1,0,3.2,0c1,0,2,0,3.1,0c1.5,0,2.9,0,4.4,0c0.7,0,1.5,0,2.2,0c1,0,2.1,0,3.1,0
		c2,0,4.1,0,6.2,0.1c1.7,0,3.3,0,4.9,0.1c2,0,4,0,6,0.1c0.9,0,1.9,0,2.8,0C58.8,24.5,58.9,24.5,58.9,24.7z"/>
	<path class="st3" d="M27.8,20c-0.1,0-0.1,0.1-0.1,0.1c-0.2,0.7-0.4,1.5-0.6,2.3c0,0,0,0.1,0,0.1c0,0.1-0.1,0.1-0.2,0.1
		c-0.4,0-0.4,0-0.3-0.4c0.1-0.6,0.3-1,0.4-1.6c0.3-0.9,0.4-1.6,0.7-2.4c0,0,0-0.1,0.1-0.1c0.4,1,0.9,2.1,1.3,3.1
		c0.3-0.5,0.5-1,0.7-1.5c0.2-0.5,0.4-1,0.6-1.5c0.1,0,0.1,0.1,0.1,0.1c0.3,1.4,0.7,2.8,1,4.2v0c0,0.1,0,0.1-0.1,0.1c0,0-0.1,0-0.1,0
		c-0.3,0-0.3,0-0.3-0.3c-0.2-0.7-0.4-1.5-0.6-2.3c0,0,0-0.1-0.1-0.2c-0.4,0.9-0.8,1.9-1.2,2.9c-0.2-0.3-0.3-0.7-0.4-1
		s-0.3-0.6-0.4-0.9"/>
	<path d="M15.8,38.4c0,0.1,0.1,0.1,0.1,0.2c0.5,0.3,0.5,1,0.3,1.4c-0.3,0.4-0.9,0.6-1.3,0.3c-0.1-0.1-0.1-0.2-0.2-0.3
		c-0.1-0.3-0.1-0.6-0.1-0.9c0-0.3,0-0.6-0.2-0.8c-0.1-0.3-0.1-0.5,0.1-0.7c0.3-0.6,0.8-1,1.4-1.3c0.4-0.3,0.9-0.3,1.4-0.4
		c0,0,0,0,0.1,0c0,0,0.1,0,0,0.1c0,0,0,0,0,0.1c-0.2,0.3-0.3,0.6-0.3,1c0,0.2,0,0.4-0.1,0.6c-0.1,0.4-0.3,0.7-0.7,0.8
		C16,38.3,15.9,38.3,15.8,38.4z"/>
	<path class="st3" d="M56.9,20.4c-0.2-1-1.2-1.9-2.4-1.9c-0.5,0-0.9,0.1-1.4,0.4c-0.3,0.3-0.6,0.5-0.8,0.9c-0.3,0.7-0.3,1.4,0,2.1
		c0.7,1.3,2.3,1.7,3.5,1C56.8,22.4,57.2,21.5,56.9,20.4z M55.5,22.4c-0.3,0.1-0.5,0.2-0.8,0.2c-0.7,0-1.3-0.3-1.7-0.9
		c-0.3-0.6-0.3-1.2,0-1.7c0.7-1.1,2.3-1,2.9-0.1C56.6,20.5,56.6,21.8,55.5,22.4z"/>
	<path class="st3" d="M30.8,45.4c0.1,0,0.1,0.1,0.1,0.2c0.3,1.3,0.6,2.6,0.9,3.9c0,0,0,0,0,0.1c0,0.1,0,0.1-0.1,0.1c0,0,0,0-0.1,0
		c-0.3,0-0.3,0-0.3-0.3c-0.2-0.7-0.3-1.4-0.6-2.1c0-0.1,0-0.1-0.1-0.3c-0.4,0.9-0.8,1.8-1.2,2.7c-0.3-0.5-0.4-0.9-0.6-1.4
		c-0.2-0.4-0.3-0.9-0.6-1.4c-0.1,0-0.1,0.1-0.1,0.1c-0.2,0.7-0.4,1.4-0.6,2v0c-0.1,0.4,0,0.4-0.5,0.4c-0.1,0-0.1,0-0.1-0.2
		c0.1-0.3,0.1-0.6,0.3-0.9c0.3-1,0.6-2,0.9-3.1c0-0.1,0-0.1,0.1-0.2c0.2,0.3,0.3,0.7,0.4,1c0.1,0.3,0.3,0.7,0.4,1
		c0.1,0.3,0.3,0.7,0.4,1c0.2-0.3,0.3-0.7,0.4-1c0.1-0.3,0.3-0.7,0.4-1C30.5,46.1,30.5,45.8,30.8,45.4z"/>
	<path class="st3" d="M61,21.8c0-0.1,0-0.1,0-0.2c0-0.9,0-1.7,0-2.6c0-0.3,0-0.3,0.3-0.3c0.3,0,0.3,0,0.3,0.3c0,1.3,0,2.6,0,4
		c0,0.1,0,0.1,0,0.3c-0.1-0.1-0.3-0.3-0.3-0.3c-0.9-0.9-1.7-1.9-2.7-2.8c0,0-0.1-0.1-0.2-0.1c-0.1,0,0,0.1,0,0.3c0,0.9,0,1.7,0,2.6
		c0,0.3,0,0.3-0.3,0.3c-0.3,0-0.3,0-0.3-0.3c0-1.3,0-2.6,0-3.9c0-0.1,0-0.1,0-0.3c0.1,0,0.1,0,0.1,0c0.6,0.7,1.3,1.4,2,2
		c0.3,0.3,0.7,0.7,1,1C60.9,21.8,61,21.8,61,21.8z"/>
	<path class="st3" d="M13.5,20.3c0,0.5,0,1,0,1.4c0,0.2,0,0.4,0,0.6c0,0.1,0,0.1-0.2,0.1c-0.6,0-0.4,0-0.4-0.4s0-1,0-1.5
		c0-0.2,0-0.2-0.2-0.2c-0.6,0-1.1,0-1.7,0c-0.2,0-0.2,0-0.2,0.2c0,0.6,0,1.1,0,1.6c0,0.3,0,0.3-0.3,0.3c-0.3,0-0.3,0-0.3-0.3
		c0-0.2,0-0.4,0-0.6c0-1.1,0-2.2,0.1-3.2c0,0,0-0.1,0-0.1c0-0.1,0-0.1,0.1-0.1c0.1,0,0.2,0,0.3,0c0.1,0,0.1,0,0.1,0.1
		c0,0.3,0,0.6,0,0.8c0,0.1,0,0.3,0,0.5c0,0.2,0,0.3,0.2,0.3c0.6,0,1.1,0,1.7,0c0.1,0,0.2,0,0.2-0.2c0-0.4,0-0.9,0-1.3
		c0-0.2,0-0.2,0.2-0.2c0.4,0,0.4,0,0.4,0.4C13.6,19.1,13.6,19.7,13.5,20.3C13.6,20.3,13.5,20.3,13.5,20.3z"/>
	<path class="st3" d="M14.5,20.1c0-0.4,0-1.1,0-1.7c0-0.3,0-0.3,0.3-0.3c0.7,0,1.4,0,2,0c0.1,0,0.2,0,0.2,0.2c0,0.4,0,0.4-0.4,0.4
		c-0.3,0-0.7,0-1.1,0c0,0-0.1,0-0.2,0s-0.1,0-0.1,0.1c0,0.3,0,0.6,0,0.9c0,0.1,0,0.1,0.1,0.1c0.1,0,0.3,0,0.4,0c0.3,0,0.7,0,1.1,0
		c0.1,0,0.2,0,0.2,0.2c0,0.4,0,0.4-0.4,0.4c-0.4,0-0.9,0-1.2,0c-0.3,0-0.3,0-0.3,0.2c0,0.3,0,0.7,0,1.1c0,0.2,0,0.2,0.2,0.2
		c0.4,0,0.9,0,1.4,0c0,0,0.1,0,0.1,0c0.1,0,0.1,0,0.1,0.1v0c0,0.6,0,0.4-0.4,0.4c-0.6,0-1.1,0-1.7,0c0,0,0,0-0.1,0
		c-0.3,0-0.3,0-0.3-0.3C14.4,21.6,14.5,20.9,14.5,20.1z"/>
	<path class="st3" d="M21.6,49c-0.2-0.3-0.4-0.6-0.6-1c0-0.1,0-0.1,0-0.2c0.1,0,0.3-0.1,0.3-0.1c0.7-0.3,0.9-1.2,0.4-1.8
		c-0.2-0.3-0.4-0.3-0.7-0.4c-0.4,0-0.8,0-1.2,0c-0.3,0-0.3,0.1-0.3,0.4c0,0.6,0,1.1,0,2l0,0c0,0,0,0.5,0,0.8c0,0.3,0,0.6,0,0.9
		c0,0.3,0,0.3,0.3,0.3c0.3,0,0.3,0,0.3-0.3c0-0.4,0-0.9,0-1.3c0-0.1,0-0.2,0-0.2c0.1,0,0.1,0.1,0.2,0.1c0.3,0.4,0.6,0.9,0.8,1.3
		c0.1,0.3,0.4,0.3,0.6,0.3l0,0c0.1,0,0.1-0.1,0.1-0.2C21.8,49.3,21.7,49.2,21.6,49z M20.1,46.2c0-0.2,0-0.3,0.3-0.3
		c0.2,0,0.4,0,0.6,0c0,0,0.1,0,0.1,0c0,0,0.1,0,0.1,0.1c0,0,0,0,0.1,0.1c0.1,0.1,0.1,0.3,0.1,0.4c0,0.1,0,0.1,0,0.2c0,0,0,0,0,0.1
		s0,0.1-0.1,0.1c-0.1,0-0.1,0.1-0.3,0.1c-0.2,0.1-0.4,0.1-0.6,0.1c-0.2,0-0.3,0-0.3-0.1c0,0,0,0,0-0.1c0-0.1,0-0.4,0-0.4H20"/>
	<path class="st3" d="M43.3,18.4c0.4,0,0.8,0.1,1.1,0.4c0,0,0.1,0.1,0.1,0.1c0,0,0,0.1,0,0.2l0,0c-0.3,0.3-0.3,0.3-0.6,0
		c-0.3-0.2-0.8-0.3-1.1,0c-0.2,0.1-0.3,0.4-0.1,0.6c0.1,0.1,0.2,0.2,0.3,0.3c0.3,0.1,0.6,0.3,0.9,0.4c0.5,0.3,0.8,0.7,0.7,1.3
		c0,0.5-0.3,0.9-0.6,1.1c-0.6,0.3-1.4,0.2-1.8-0.3c-0.2-0.2-0.3-0.4-0.4-0.6c0-0.1,0-0.2,0.1-0.3c0.4-0.1,0.4-0.1,0.6,0.2
		c0.3,0.3,0.6,0.5,1,0.4c0.4-0.1,0.7-0.6,0.4-1c-0.1-0.2-0.3-0.3-0.4-0.4c-0.2-0.1-0.4-0.2-0.6-0.3c-0.3-0.1-0.6-0.3-0.8-0.6
		c-0.3-0.6-0.1-1.2,0.4-1.5C42.8,18.4,43,18.4,43.3,18.4z"/>
	<path class="st3" d="M26.1,22.5L26.1,22.5c-0.3-0.9-0.7-1.7-1.1-2.5c-0.3-0.6-0.5-1.1-0.7-1.7c0,0,0-0.1-0.1-0.1c0,0-0.1,0-0.1,0.1
		c-0.1,0.3-0.3,0.7-0.5,1.1c-0.3,0.8-0.7,1.5-1.1,2.3c-0.1,0.3-0.3,0.6-0.4,0.8c0,0.1,0,0.1,0.1,0.1c0,0,0.1,0,0.2,0
		c0.2,0,0.3,0,0.4-0.3c0.1-0.3,0.3-0.5,0.3-0.7c0-0.1,0.1-0.1,0.2-0.1c0.5,0,1,0,1.5,0c0.1,0,0.2,0,0.3,0.2c0.1,0.3,0.3,0.6,0.3,0.8
		c0,0.1,0.1,0.3,0.3,0.3c0,0,0,0,0.1,0H26C26.1,22.8,26.1,22.7,26.1,22.5z M24.6,21c-0.3,0-0.7,0-1,0c-0.1,0-0.1,0-0.1-0.1
		c0.2-0.4,0.4-0.8,0.6-1.2c0,0,0,0,0.1-0.1c0.1,0.2,0.2,0.4,0.3,0.6c0.1,0.3,0.2,0.4,0.3,0.7C24.8,20.9,24.7,21,24.6,21z"/>
	<path class="st3" d="M15.9,46.9c0,0.4,0,0.9,0,1.2c0,0.2,0,0.4,0.1,0.6c0.1,0.3,0.4,0.5,0.7,0.6c0.1,0,0.3,0,0.5,0
		c0.4-0.1,0.7-0.4,0.7-0.9c0-0.1,0-0.3,0-0.4c0-0.7,0-1.5,0-2.2c0-0.3,0-0.3,0.3-0.3c0.3,0,0.3,0,0.3,0.3c0,0.7,0,1.4,0,2.1
		c0,0.2,0,0.4,0,0.6c0,0.5-0.3,0.9-0.6,1.2c-0.4,0.2-0.9,0.3-1.3,0.2c-0.7-0.1-1.1-0.7-1.2-1.3c0-0.3,0-0.4,0-0.7c0-0.6,0-1.2,0-1.9
		c0-0.1,0-0.3,0-0.4c0-0.1,0-0.1,0.1-0.1c0.4,0,0.4,0,0.4,0.4C16,46.1,16,46.4,15.9,46.9C16,46.9,16,46.9,15.9,46.9z"/>
	<path class="st3" d="M49.1,22.8c-0.1-0.3-0.3-0.6-0.4-0.9c-0.4-1-0.9-2.1-1.4-3.1c0-0.1-0.1-0.3-0.2-0.4c-0.1,0-0.1,0.1-0.1,0.2
		c-0.2,0.4-0.4,0.9-0.6,1.2c-0.4,0.9-0.8,1.7-1.2,2.6c-0.2,0.4-0.3,0.4,0.3,0.4c0.1,0,0.2,0,0.3-0.1c0.1-0.3,0.3-0.5,0.3-0.7
		c0-0.1,0.1-0.2,0.3-0.2c0.5,0,1,0,1.5,0c0.1,0,0.2,0,0.3,0.1c0.1,0.2,0.2,0.4,0.3,0.6c0.2,0.4,0.1,0.4,0.6,0.4
		C49.1,23,49.1,22.9,49.1,22.8z M47.6,21.4c-0.3,0-0.7,0-1,0c-0.1,0-0.1,0-0.1-0.1c0.2-0.4,0.4-0.9,0.6-1.3c0.1,0,0.1,0,0.1,0.1
		c0.2,0.4,0.4,0.8,0.6,1.2C47.8,21.3,47.7,21.4,47.6,21.4z"/>
	<path class="st3" d="M13.5,49.1c0.3,0,0.6-0.1,0.9-0.3c0.3-0.1,0.3-0.1,0.3,0.1c0,0.4,0,0.4-0.4,0.6c-0.8,0.3-1.6,0.2-2.3-0.3
		c-1.2-0.9-1.1-2.3-0.5-3.2c0.3-0.4,0.7-0.7,1.3-0.9c0.5-0.1,0.9-0.1,1.4,0c0.1,0,0.3,0.1,0.4,0.1c0.1,0,0.1,0.1,0.1,0.2
		c0,0.1,0,0.3,0,0.4c0,0.1,0,0.1-0.1,0.1c-0.1,0-0.3-0.1-0.5-0.2c-0.4-0.1-0.9-0.1-1.2,0c-1.2,0.5-1.4,1.7-0.9,2.6
		C12.4,48.9,12.9,49.1,13.5,49.1z"/>
	<path class="st3" d="M32.5,47.7c0-0.6,0-1.3,0-1.9c0-0.3,0-0.3,0.3-0.3c0.6,0,1.2,0,1.8,0c0.3,0,0.3,0,0.3,0.3c0,0.3,0,0.3-0.3,0.3
		c-0.4,0-0.7,0-1.1,0c0,0-0.1,0-0.1,0c-0.1,0-0.1,0-0.1,0.1c0,0.3,0,0.6,0,0.8c0,0.1,0,0.1,0.1,0.1c0.2,0,0.4,0,0.6,0
		c0.3,0,0.5,0,0.7,0c0.2,0,0.2,0,0.3,0.2v0c0,0.3,0,0.3-0.3,0.3c-0.4,0-0.8,0-1.2,0c-0.2,0-0.2,0-0.2,0.2c0,0.3,0,0.7,0,1
		c0,0.3,0,0.3,0.3,0.3c0.4,0,0.9,0,1.3,0c0.2,0,0.2,0,0.2,0.2c0,0.3,0,0.3-0.3,0.3c-0.6,0-1.2,0-1.7,0c-0.2,0-0.3,0-0.3-0.3
		C32.4,49,32.4,48.4,32.5,47.7C32.4,47.7,32.5,47.7,32.5,47.7z"/>
	<path class="st3" d="M40.6,46.4c-0.3-0.1-0.6-0.2-0.8-0.3c-0.8-0.2-1.7,0.2-2,0.9c-0.4,0.9,0,1.9,0.9,2.2c0.6,0.3,1.1,0.2,1.7,0
		l0,0c0.2-0.1,0.2,0,0.2,0.1c0,0,0,0.1,0,0.1c0,0.3,0,0.3-0.3,0.4c-0.7,0.3-1.4,0.3-2-0.1c-1.4-0.7-1.5-2.3-0.9-3.3
		c0.6-0.7,1.3-1.1,2.2-1c0.3,0,0.6,0.1,0.9,0.3c0.1,0,0.1,0.1,0.1,0.3C40.6,46.1,40.7,46.3,40.6,46.4z"/>
	<path class="st3" d="M48.1,49.9C48.1,49.9,48.1,49.9,48.1,49.9c-0.3-0.8-0.6-1.5-0.9-2.1c-0.3-0.6-0.6-1.3-0.9-1.9
		c0,0,0-0.1-0.1-0.2c-0.1,0.1-0.1,0.3-0.2,0.3c-0.6,1.2-1.1,2.4-1.6,3.6C44.2,50,44.1,50,44.6,50c0.1,0,0.2,0,0.3-0.2
		c0.1-0.3,0.3-0.5,0.3-0.7c0-0.1,0.1-0.2,0.3-0.1c0.5,0,0.9,0,1.4,0c0.1,0,0.2,0,0.3,0.2c0.1,0.3,0.2,0.6,0.3,0.7
		c0.1,0.3,0.1,0.3,0.4,0.3l0,0C48.2,50.2,48.2,50.2,48.1,49.9z M46.7,48.5c-0.3,0-0.6,0-0.9,0c-0.2,0-0.2,0-0.1-0.2
		c0.1-0.4,0.3-0.7,0.5-1.1c0,0,0-0.1,0.1-0.1c0.1,0.1,0.1,0.3,0.2,0.4c0.1,0.3,0.3,0.6,0.4,0.9C46.9,48.5,46.9,48.5,46.7,48.5z"/>
	<path class="st3" d="M19.5,20.4c0-0.6,0-1.3,0-2c0,0,0,0,0-0.1c0-0.1,0-0.1,0.1-0.1c0.2,0,0.4,0,0.6,0c0.5,0,1,0,1.5,0
		c0.3,0,0.3,0,0.3,0.3c0,0.4,0,0.3-0.4,0.3s-0.9,0-1.3,0c-0.2,0-0.2,0-0.2,0.2c0,0.2,0,0.4,0,0.6c0,0.3,0,0.3,0.3,0.3
		c0.4,0,0.9,0,1.3,0c0.3,0,0.3,0,0.3,0.3c0,0,0,0,0,0.1c0,0.2,0,0.2-0.2,0.2c-0.4,0-0.9,0-1.4,0c0,0-0.1,0-0.1,0c0,0-0.1,0-0.1,0.1
		c0,0.1,0,0.2,0,0.3c0,0.5,0,0.9,0,1.4c0,0.3,0,0.3-0.3,0.3h-0.1c-0.3,0-0.3,0-0.3-0.3C19.5,21.7,19.5,21.1,19.5,20.4L19.5,20.4z"/>
	<path class="st3" d="M51.4,45.9c-0.1,0.3-0.2,0.4-0.3,0.7c-0.5,0.9-1,1.8-1.5,2.7c-0.1,0.3-0.1,0.3,0.2,0.3c0.4,0,0.9,0,1.4,0
		c0.2,0,0.3,0,0.3,0.3c0,0.3,0,0.3-0.3,0.3c-0.8,0-1.5,0-2.3,0h0c-0.1,0-0.1,0-0.1-0.1c0.1-0.3,0.3-0.5,0.4-0.7
		c0.4-0.9,0.9-1.7,1.4-2.5c0.1-0.3,0.1-0.3-0.1-0.3c-0.4,0-0.9,0-1.2,0c0,0-0.1,0-0.2,0s-0.1,0-0.1-0.1c0-0.1,0-0.2,0-0.3
		c0-0.2,0-0.2,0.2-0.2c0.3,0,0.6,0,0.9,0c0.5,0,1,0,1.4,0C51.2,45.8,51.3,45.8,51.4,45.9z"/>
	<path class="st3" d="M37.8,22.6c0,0.3,0,0.3-0.3,0.3c-0.4,0-0.4,0-0.4-0.4c0-0.3,0-0.4,0-0.7l0,0c0-0.3,0-0.6,0-0.8
		c0-0.1,0-0.3-0.1-0.4c-0.4-0.7-0.8-1.3-1.2-2c0,0-0.1-0.1-0.1-0.2c0-0.1,0.1,0,0.3,0c0.4,0,0.3,0,0.6,0.3c0.3,0.4,0.4,0.8,0.7,1.2
		c0,0,0,0.1,0.1,0.1c0,0.1,0.1,0.1,0.1,0c0,0,0.1-0.1,0.1-0.2c0.3-0.4,0.5-0.9,0.7-1.2c0.1-0.1,0.2-0.3,0.3-0.2c0.1,0,0.2,0,0.3,0
		c0.1,0,0.1,0,0.1,0.1c0,0,0,0.1-0.1,0.1c-0.4,0.6-0.8,1.3-1.2,1.9c0,0.1-0.1,0.3-0.1,0.4"/>
	<path class="st3" d="M7.9,20.7c0-0.7,0-1.3,0-1.8c0-0.3,0-0.3-0.3-0.3c-0.2,0-0.4,0-0.6,0s-0.2,0-0.2-0.3c0,0,0-0.1,0-0.1
		c0-0.3,0-0.3,0.3-0.3c0.7,0,1.5,0,2.2,0c0,0,0,0,0.1,0c0.3,0,0.3,0,0.3,0.3c0,0.3,0,0.3-0.4,0.3c-0.1,0-0.3,0-0.5,0
		c-0.2,0-0.2,0-0.2,0.2c0,0.6,0,1.1,0,1.6c0,0.6,0,1.2,0,1.7c0,0.2,0,0.3-0.3,0.3c-0.4,0-0.4,0-0.4-0.4C7.9,21.5,7.9,21,7.9,20.7z"
		/>
	<path class="st3" d="M53.8,49.2c0,0.3,0,0.6,0,0.8c0,0.1,0,0.2-0.2,0.2l0,0c-0.3,0-0.3,0-0.3-0.3c0-0.4,0-0.9,0-1.4
		c0-0.1,0-0.3-0.1-0.4c-0.3-0.6-0.7-1.2-1.1-1.9c0-0.1-0.1-0.1-0.1-0.3c0-0.1,0.1,0,0.3,0c0,0,0,0,0.1,0c0.1,0,0.2,0,0.3,0.1
		c0.3,0.4,0.5,0.9,0.7,1.3c0,0,0,0.1,0,0.1c0.1,0.1,0.1,0.1,0.3,0c0.1-0.2,0.3-0.4,0.4-0.6c0.1-0.3,0.3-0.4,0.4-0.7
		c0.1-0.1,0.2-0.3,0.4-0.3c0.1,0,0.2,0,0.3,0c0,0.1,0,0.2-0.1,0.3c-0.3,0.6-0.7,1.2-1,1.7c-0.1,0.2-0.1,0.3-0.1,0.6
		C53.8,48.7,53.8,49,53.8,49.2z"/>
	<path class="st3" d="M34.4,21.9C34.4,21.9,34.4,21.9,34.4,21.9c0,0.3,0,0.3,0.3,0.3c0.3,0,0.7,0,1,0c0.2,0,0.2,0,0.2,0.2
		c0,0,0,0.1,0,0.2c0,0.2,0,0.2-0.2,0.2c-0.4,0-0.9,0-1.4,0c-0.1,0-0.2,0-0.3,0c-0.1,0-0.2,0-0.2-0.2c0-0.3,0-0.6,0-0.9
		c0-0.4,0-0.8,0-1.2c0,0,0,0,0,0c0-0.6,0-1.3,0-1.9c0,0,0-0.1,0-0.2c0-0.1,0-0.1,0.1-0.1c0.4,0,0.5,0,0.5,0.4"/>
	<path class="st3" d="M49.8,20.8c0-0.6,0-1.2,0-1.9c0,0,0-0.1,0-0.2c0-0.1,0-0.1,0.1-0.1c0.5,0,0.4,0,0.4,0.4c0,1,0,2.1,0,3.1
		c0,0,0,0.1,0,0.1c0,0.1,0,0.1,0.1,0.1c0,0,0.1,0,0.2,0c0.3,0,0.6,0,0.9,0c0.2,0,0.2,0,0.2,0.2c0,0.4,0,0.4-0.4,0.4
		c-0.4,0-0.9,0-1.4,0c-0.3,0-0.3,0-0.3-0.3C49.8,22.1,49.8,21.5,49.8,20.8L49.8,20.8z"/>
	<path class="st3" d="M22.9,47.6c0-0.6,0-1.2,0-1.8c0-0.4,0-0.3,0.3-0.3c0.2,0,0.2,0,0.2,0.2c0,0.6,0,1.1,0,1.6c0,0.6,0,1.1,0,1.7
		c0,0.2,0,0.2,0.2,0.2c0.3,0,0.6,0,1,0c0.2,0,0.2,0,0.2,0.2c0,0.4,0,0.4-0.4,0.4c-0.4,0-0.9,0-1.4,0c-0.2,0-0.3,0-0.3-0.3
		C22.9,48.9,22.9,48.2,22.9,47.6C22.9,47.6,22.9,47.6,22.9,47.6z"/>
	<path class="st3" d="M32.2,20.6c0-0.6,0-1.2,0-1.9c0,0,0-0.1,0-0.2s0-0.1,0.1-0.1s0.2,0,0.3,0c0.1,0,0.2,0,0.2,0.2
		c0,0.3,0,0.5,0,0.7c0,1.1,0,2.2,0,3.2c0,0.3,0,0.3-0.3,0.3c-0.3,0-0.3,0-0.3-0.3C32.1,21.8,32.1,21.2,32.2,20.6
		C32.1,20.6,32.2,20.6,32.2,20.6z"/>
	<path class="st3" d="M42.4,29.3c-0.4,0-0.8-0.1-1.1-0.4c-0.1-0.1-0.2-0.2-0.2-0.3c0,0,0,0,0-0.1c-0.3-0.3-0.3-0.6-0.3-0.9
		c0-0.7,0.4-1.3,1.1-1.5c0.4-0.1,0.9-0.1,1.2,0c0.3,0.1,0.6,0.4,0.7,0.8c0.2,0.4,0.3,0.9,0.1,1.4c-0.1,0.4-0.4,0.7-0.9,0.9
		C42.7,29.3,42.6,29.3,42.4,29.3z"/>
	<g>
		<path class="st1" d="M43,35.5c0,0-0.4,0.6-1,0c0,0,0.1-4.3-3-5v3.6h-1.1v-4.9c0,0,2.7-0.7,4.6,3.2c0,0,1.9-3.8,4.3-3.1
			c0,0,0,4.9,0,4.9h-1.2l0-3.5C45.6,30.7,43.1,30.8,43,35.5"/>
		<path class="st1" d="M37.8,37.1v3.6c0,0,0.4,0,1.1,0c0,0,0-3.6,0-3.6s0-0.4-1.1-0.1"/>
		<path class="st1" d="M45.7,37.1v3.6c0,0,0.4,0,1.1,0c0,0,0-3.6,0-3.6s0-0.4-1.1-0.1"/>
	</g>
	<path class="st4" d="M13.9,38.3C13.9,38.3,13.9,38.4,13.9,38.3C13.9,38.4,13.9,38.4,13.9,38.3l0,0.1C13.8,38.5,13.8,38.4,13.9,38.3
		C13.8,38.4,13.9,38.4,13.9,38.3z"/>
	<path class="st3" d="M43.6,49.3c-0.2-0.3-0.4-0.6-0.6-1c0-0.1,0-0.1,0-0.2c0.1,0,0.2-0.1,0.3-0.1c0.7-0.3,0.9-1.2,0.4-1.8
		c-0.2-0.3-0.4-0.3-0.7-0.4c-0.4-0.1-0.8,0-1.2,0c-0.3,0-0.3,0.3-0.3,0.5c0,0.6,0,1.2,0,2.2l0,0c0,0,0,0.3,0,0.7c0,0.3,0,0.5,0,0.8
		c0,0.3,0,0.3,0.3,0.3c0.3,0,0.3,0,0.3-0.3c0-0.4,0-0.9,0-1.3c0-0.1,0-0.2,0-0.2c0.1,0,0.1,0.1,0.2,0.1c0.3,0.4,0.6,1,0.9,1.4
		c0.1,0.3,0.4,0.4,0.6,0.4l0,0c0.1,0,0.1-0.2,0.1-0.3C43.8,49.7,43.7,49.4,43.6,49.3z M42.1,46.6c0-0.2,0-0.3,0.3-0.3
		c0.2,0,0.4,0,0.6,0c0,0,0.1,0,0.1,0c0,0,0.1,0,0.1,0.1c0,0,0,0,0.1,0.1c0.1,0.1,0.1,0.3,0.1,0.4c0,0.1,0,0.1,0,0.2c0,0,0,0,0,0.1
		c0,0,0,0.1-0.1,0.1c-0.1,0-0.1,0.1-0.3,0.1c-0.2,0.1-0.4,0.1-0.6,0.1c-0.2,0-0.3,0-0.3-0.1c0,0,0,0.1,0,0c0-0.1,0-0.3,0-0.3H42"/>
	<path d="M13.8,38c-0.1,0.3-0.2,0.6-0.2,0.9s0,0.7-0.1,1c0,0.1-0.1,0.3-0.3,0.3c0,0-0.1,0.1-0.3,0.1l0,0l0,0h0c-0.4,0.1-0.9,0-1-0.4
		c-0.3-0.4-0.3-1.1,0.3-1.5c0,0,0.1-0.1,0.1-0.2c-0.1,0-0.3-0.1-0.4-0.1c-0.4-0.1-0.7-0.4-0.7-0.9c0-0.3-0.1-0.5-0.1-0.7
		c0-0.4-0.1-0.7-0.3-1.1c0,0,0,0,0-0.1s0-0.1,0-0.1c0,0,0.1,0,0.1,0c0.6,0,1,0.2,1.5,0.4c0.6,0.3,1.1,0.9,1.5,1.4l0,0
		C13.9,37.4,13.9,37.7,13.8,38z"/>
</g>
<rect x="88.7" y="46.1" class="st5" width="40.1" height="3.3"/>
</svg>
