<?xml version="1.0" encoding="utf-8"?>
<!-- Generator: Adobe Illustrator 21.0.0, SVG Export Plug-In . SVG Version: 6.00 Build 0)  -->
<svg version="1.1" id="Layer_1" xmlns="http://www.w3.org/2000/svg" xmlns:xlink="http://www.w3.org/1999/xlink" x="0px" y="0px"
	 viewBox="0 0 67 68" style="enable-background:new 0 0 67 68;" xml:space="preserve">
<style type="text/css">
	.st0{fill:#050505;}
	.st1{fill:#A48749;}
</style>
<circle class="st0" cx="33.6" cy="33.8" r="33.5"/>
<g>
	<g>
		<path class="st1" d="M28.8,34.1c1.6,1.5,3.2,3,4.8,4.5c3-2.7,5.9-5.5,9-8.3c-3-2.8-6-5.6-9-8.3c-3,2.7-5.9,5.5-8.9,8.3
			c0.9,0.8,1.7,1.6,2.6,2.4c-0.8,0.5-1.4,0.4-2.1-0.3c-0.7-0.8-1.4-1.4-2.3-2.1c3.6-3.3,7.1-6.6,10.6-9.9c3.6,3.3,7.1,6.6,10.7,9.9
			c-3.5,3.3-7,6.6-10.6,9.9c-1.1-1-2.2-2.1-3.2-3c-0.6-0.5-1.1-1.1-1.8-1.6C28.1,35.1,28.1,34.7,28.8,34.1z"/>
		<circle class="st1" cx="32.9" cy="32.9" r="0.9"/>
		<path class="st1" d="M38.5,26.4c-1.6-1.4-3.2-3-4.8-4.5c-3,2.7-5.9,5.5-9,8.3c3,2.8,6,5.6,9,8.3c3-2.7,5.9-5.5,8.9-8.3
			c-0.9-0.8-1.7-1.6-2.6-2.4c0.8-0.5,1.4-0.4,2.1,0.3c0.7,0.8,1.4,1.4,2.3,2.1c-3.6,3.3-7.1,6.6-10.6,9.9c-3.6-3.3-7.1-6.6-10.7-9.9
			c3.5-3.3,7-6.6,10.6-9.9c1.1,1,2.2,2.1,3.2,3c0.6,0.5,1.1,1.1,1.8,1.6C39.2,25.4,39.3,25.9,38.5,26.4z"/>
		<path class="st1" d="M24.1,33.4c0,0-1.3,0.3-0.7,1.3c0,0,1,0,1,0s-2.9,1.9-3.1,2.6c0,0,2.7,0,2.7,0s1.3,0.1,3.7-3.6
			c0,0,3.6-0.1,3.5-1.2c0.1,0-2.3,0-2.3,0s2.2-4,4.4-3.2c0,0,1.4,1.2,2.6,0.5c0,0,1.2-1.3-1.1-1.5c0,0-4.7-1.5-8.6,4.7
			C26.2,32.9,25,33.2,24.1,33.4z"/>
	</g>
	<g>
		<g>
			<path class="st1" d="M27.7,45.8c-0.3-0.1-0.3-0.3-0.3-0.4c-0.1-0.8-0.3-1.6-0.3-2.4c0-0.8-0.4-0.5-0.8-0.6
				c-0.4,0-0.5,0.1-0.5,0.6c0,1.2,0,2.4,0,3.6c0,0.3,0,0.6,0.3,0.6c0.3,0,0.3-0.4,0.3-0.6c0-0.9,0-1.9,0-3c0.3,1.1,0.3,2.1,0.5,2.9
				c0,0.5,0.1,0.7,0.5,0.8c0.4,0,0.5-0.3,0.5-0.8c0.2-1,0.2-2.1,0.5-3.1c0,1.1,0,2.1,0,3.2c0,0.3,0,0.6,0.3,0.6
				c0.3,0,0.4-0.2,0.4-0.6c0-1.2,0-2.4,0-3.6c0-0.4,0-0.8-0.4-0.7c-0.3,0-0.8-0.3-0.9,0.6C28.1,43.9,27.9,44.8,27.7,45.8z"/>
			<path class="st1" d="M17.4,43.8C17.4,43.8,17.4,43.8,17.4,43.8c0.2,0.3,0.2,0.6,0.3,0.9c0.1,0.6,0.3,1.3,0.3,1.9
				c0.1,0.8,0.5,0.4,0.9,0.5c0.4,0,0.3-0.3,0.3-0.6c0-1.2,0-2.3,0-3.5c0-0.3,0-0.7-0.3-0.7c-0.4,0-0.3,0.3-0.3,0.6
				c0,0.8,0,1.7,0,2.6c-0.3-0.1-0.2-0.3-0.3-0.5c-0.1-0.8-0.3-1.5-0.4-2.3c-0.1-0.7-0.5-0.4-0.8-0.5c-0.3,0-0.4,0.3-0.4,0.6
				c0,1.2,0,2.4,0,3.6c0,0.3,0,0.6,0.3,0.6c0.4,0,0.4-0.3,0.4-0.6C17.4,45.7,17.4,44.7,17.4,43.8z"/>
			<path class="st1" d="M60.4,42.5c-0.9,0-1.1,0.1-1.2,1c0,0.9,0,1.9,0,2.8c0,0.9,0.3,1.1,1.2,1.1c0.8,0,0.9,0.1,0.9-0.8
				c0-0.5,0-1,0-1v-1.7C61.4,42.9,61.2,42.5,60.4,42.5z M60.6,45.5L60.6,45.5v0.8c0,0.2,0,0.3-0.3,0.3c-0.2,0-0.3-0.3-0.3-0.4v-2.7
				c0-0.2,0.1-0.3,0.3-0.3c0.2,0,0.3,0.4,0.3,0.6V45.5z"/>
			<path class="st1" d="M56.9,45v-0.9c0-1.5-0.8-2.3-1.9-1.8c-0.2,0.1-0.2,0.3-0.2,0.5v3.8c0,0.4,0.1,0.5,0.4,0.5
				C56.7,47.2,57,47.2,56.9,45z M56.2,45.4c0,0,0,0.1,0,0.3v0.5c0,0.3-0.1,0.3-0.3,0.3c-0.3,0-0.3-0.3-0.3-0.5v-2.3
				c0-0.3,0-0.4,0.3-0.4c0.3,0,0.3,0.5,0.3,0.8V45.4L56.2,45.4z"/>
			<path class="st1" d="M23.8,46.5c-0.3-0.5-0.3-1.2-0.3-1.8c0-0.6-0.3-0.7-0.5-0.3c-0.1,0.2-0.3,0.2-0.3,0
				c-0.1-0.3-0.3-0.5-0.3-0.8c0-0.2,0-0.4,0.1-0.5c0.1-0.1,0.3,0,0.3,0.3c0.1,0.5,0.4,0.4,0.5,0.3c0.2-0.3,0.1-0.6,0-0.9
				c-0.2-0.3-1.1-0.4-1.3-0.1c-0.4,0.4-0.4,0.8-0.2,1.3c0.1,0.3,0.1,0.5-0.1,0.9c-0.4,0.5-0.3,1.3-0.1,2c0,0.5,0.5,0.5,1,0.5
				c0.3,0.2,0.6-0.3,1-0.1C23.6,47.1,24,46.9,23.8,46.5z M22.5,46.5c-0.4,0-0.4-0.4-0.4-0.8c0-0.3,0-0.6,0.3-0.5
				c0.3,0.1,0.4,0.5,0.5,0.9C22.9,46.5,22.7,46.5,22.5,46.5z"/>
			<path class="st1" d="M42,44.5L42,44.5c0-0.5,0-1.1,0-1.7c0-0.5-0.2-0.5-0.4-0.5c-0.3,0-0.3,0.4-0.3,0.6c0,1,0,1.9,0,2.9
				c0,0.3,0,0.5-0.3,0.5s-0.3-0.3-0.3-0.5c0-0.2,0-0.4,0-0.5c0-0.8,0-1.7,0-2.5c0-0.3-0.1-0.5-0.3-0.5c-0.2,0-0.5,0-0.5,0.3
				c0,1.3,0,2.4,0,3.7c0.1,0.9,0.7,0.9,1.2,0.8c0.5,0,0.8-0.3,0.8-1C42,45.7,42,45.1,42,44.5z"/>
			<path class="st1" d="M54.1,44.4c0-0.5,0-1,0-1.5c0-0.4,0-0.5-0.4-0.5c-0.3,0-0.4,0.3-0.4,0.5c0,0.9,0,1.8,0,2.7
				c0,0.3,0,0.8-0.3,0.8c-0.4,0-0.3-0.4-0.3-0.8c0-1,0-1.9,0-2.9c0-0.3-0.1-0.5-0.3-0.4c-0.2,0-0.5,0-0.5,0.3c0,1.3-0.1,2.6,0,3.8
				c0.1,0.8,0.6,0.8,1.1,0.8c0.5,0,0.8-0.2,0.8-0.9C54.1,45.7,54,45.1,54.1,44.4z"/>
			<path class="st1" d="M32.3,46.7c-0.1-1.3-0.3-2.6-0.4-3.8c-0.1-0.8-0.5-0.5-0.8-0.5s-0.5,0-0.5,0.5c-0.1,1.2-0.3,2.3-0.4,3.5
				c0.1,0.3-0.1,0.6,0.1,0.8c0.1,0.1,0.4,0.1,0.5,0c0.1-0.1,0.2-0.4,0.2-0.6c0-0.3,0-0.5,0.3-0.5c0.3,0,0.3,0.2,0.4,0.4
				c0,0.1,0,0.3,0,0.5c0.1,0.4,0.4,0.3,0.5,0.3C32.4,47.2,32.4,46.9,32.3,46.7z M31.1,45.2c-0.2,0-0.1-0.3-0.1-0.4
				c0-0.5,0-1,0.3-1.5c0,0.5,0,1,0.1,1.5C31.4,45,31.3,45.2,31.1,45.2z"/>
			<path class="st1" d="M10.9,46.8c-0.1-1.3-0.3-2.6-0.4-3.8c0-0.7-0.4-0.6-0.8-0.6c-0.3,0-0.6,0-0.7,0.6c-0.1,1.3-0.3,2.6-0.4,3.8
				c0,0.4,0.1,0.4,0.3,0.5c0.4,0.1,0.5-0.3,0.5-0.6c0-0.3,0-0.5,0.3-0.5s0.3,0.3,0.4,0.5c0,0.1,0,0.3,0.1,0.5
				c0.1,0.3,0.3,0.2,0.5,0.2C11,47.1,11,47,10.9,46.8z M9.7,45.2c-0.2,0-0.2-0.1-0.2-0.4c0-0.4,0.1-0.9,0.1-1.3
				C10,44,9.9,44.4,10,44.9C10,45.1,9.9,45.2,9.7,45.2z"/>
			<path class="st1" d="M44.5,42.5c-0.5-0.3-1.1-0.3-1.6-0.1c-0.2,0-0.2,0.3-0.2,0.5v3.6c0,0.4,0,0.6,0.4,0.6c0.3,0,0.4-0.3,0.4-0.6
				c0-0.6,0.2-0.8,0.6-0.8c0.5,0,0.8-0.5,0.8-1.1v-0.9C45,43.3,44.9,42.8,44.5,42.5z M43.7,44.9c-0.5,0-0.3-0.6-0.3-0.9v-0.5
				c0-0.3,0.2-0.3,0.3-0.3s0.3,0.1,0.3,0.3c0,0.1,0,0.3,0,0.5C44,44.4,44.2,44.9,43.7,44.9z"/>
			<path class="st1" d="M7,47.2c0.5,0.1,0.8-0.2,0.9-1c0.1-1.1-0.1-1.6-0.8-1.9c-0.1-0.1-0.3-0.1-0.4-0.3c-0.2-0.2-0.2-0.5-0.1-0.8
				c0-0.2,0.1-0.3,0.3-0.3c0.2,0,0.3,0.3,0.3,0.5c0,0.3,0.3,0.3,0.4,0.3c0.1,0,0.3,0,0.3-0.3c0-0.5,0-0.9-0.4-1.1
				c-1-0.5-1.6,0-1.6,1.4c0,0.6,0.2,1.1,0.7,1.2c0.1,0,0.3,0.1,0.4,0.2c0.3,0.2,0.3,0.5,0.3,0.9c0,0.3-0.1,0.4-0.3,0.4
				c-0.3,0-0.3-0.3-0.3-0.5c0-0.3-0.3-0.3-0.4-0.3c-0.3,0-0.3,0.2-0.3,0.4C5.9,46.9,6.2,47.2,7,47.2z"/>
			<path class="st1" d="M47.9,42.3c-0.5,0-0.8,0-0.9,0.8c-0.1,1.2,0,1.6,0.6,1.9c0.1,0,0.3,0.1,0.4,0.2c0.3,0.2,0.3,0.5,0.3,0.8
				c0,0.2,0,0.4-0.3,0.4c-0.3,0-0.3-0.3-0.3-0.5c0-0.3-0.3-0.3-0.4-0.3c-0.3,0-0.3,0.3-0.3,0.5c0,0.5,0.1,1,0.5,1.1
				c0.8,0.2,1.3,0,1.4-0.6c0.3-1.1,0-1.8-0.8-2.3c-0.1,0-0.1-0.1-0.3-0.1c-0.3-0.2-0.3-0.5-0.3-0.8c0-0.2,0.1-0.3,0.3-0.3
				c0.3,0,0.3,0.3,0.3,0.5c0.1,0.3,0.4,0.2,0.5,0.1c0.3,0,0.2-0.3,0.1-0.5C48.9,42.3,48.4,42.2,47.9,42.3z"/>
			<path class="st1" d="M33.8,45.2c0.3,0.5,0.4,1,0.5,1.4c0.1,0.5,0.4,0.6,0.7,0.5c0.4-0.2,0.1-0.5,0-0.8c-0.4-1.1-0.6-2.1-0.1-3.2
				c0.1-0.2,0.4-0.5,0-0.8c-0.3-0.1-0.5,0-0.6,0.5c-0.1,0.4-0.1,0.9-0.5,1.4c0-0.5,0-0.9,0-1.3c0-0.3,0-0.5-0.3-0.5
				c-0.3,0-0.4,0.2-0.4,0.5c0,1.3,0,2.5,0,3.8c0,0.4,0.1,0.5,0.4,0.5c0.3,0,0.3-0.3,0.3-0.5C33.7,46.2,33.7,45.8,33.8,45.2z"/>
			<path class="st1" d="M35.8,44.7c0,0.3,0,0.6,0,1c0,1.6,0,1.6,1.2,1.4c0.2,0,0.4,0,0.4-0.4c0-0.4-0.2-0.4-0.4-0.4
				c-0.3,0-0.5-0.1-0.5-0.5c0-0.4-0.1-0.8,0.4-0.8c0.2,0,0.3-0.1,0.3-0.4c0-0.3-0.1-0.3-0.3-0.3c-0.4,0-0.4-0.3-0.4-0.6
				c0-0.5,0.2-0.5,0.5-0.5c0.1,0,0.3,0,0.3-0.3c0-0.1,0-0.4-0.1-0.5c-0.4-0.3-0.8-0.2-1.2-0.1c-0.3,0.1-0.2,0.5-0.2,0.8
				C35.8,43.7,35.8,44.2,35.8,44.7z"/>
			<path class="st1" d="M50.1,45.1L50.1,45.1c0,0.4,0,0.9,0,1.3c0,0.3-0.1,0.8,0.4,0.8s0.4-0.4,0.4-0.8c0-0.9,0-1.8,0-2.7
				c0-0.3,0-0.6,0.3-0.6c0.3,0,0.3-0.3,0.3-0.5c0-0.3-0.1-0.4-0.3-0.4c-0.4,0-0.9,0-1.3,0c-0.2,0-0.3,0.1-0.3,0.4
				c0,0.2,0,0.5,0.2,0.4c0.5,0,0.4,0.4,0.4,0.8C50.1,44.4,50.1,44.7,50.1,45.1z"/>
			<path class="st1" d="M12.4,44.4L12.4,44.4c0-0.5,0-1.1,0-1.6c0-0.4-0.1-0.5-0.4-0.5s-0.4,0-0.4,0.4c0,1.3,0,2.7,0,4
				c0,0.3,0.1,0.5,0.3,0.5c0.3,0,0.6,0,1,0c0.1,0,0.3,0,0.3-0.3c0-0.3,0-0.5-0.3-0.4c-0.5,0-0.5-0.5-0.5-1
				C12.4,45.1,12.4,44.8,12.4,44.4z"/>
			<path class="st1" d="M58.5,44.8L58.5,44.8c0-0.6,0-1.3,0-2c0-0.3-0.1-0.5-0.4-0.5c-0.3,0-0.4,0.1-0.4,0.5c0,1.3,0,2.7,0,4
				c0,0.3,0.1,0.5,0.4,0.5s0.4-0.1,0.4-0.5C58.5,46.1,58.5,45.5,58.5,44.8z"/>
			<path class="st1" d="M38.6,45.8c0.2-0.1,0.5,0.1,0.5-0.5c0-0.6-0.4-0.3-0.6-0.3S38,44.8,38,45.4C38,46,38.4,45.7,38.6,45.8z"/>
		</g>
		<g>
			<path class="st1" d="M15.7,45.5v-2.1c0-0.5-0.1-0.8-0.5-0.9c-0.3-0.1-0.7-0.1-1.1,0c-0.3,0-0.4,0.3-0.5,0.6
				c-0.1,1.1-0.1,2.3,0,3.4c0,0.4,0.2,0.6,0.5,0.6C15.5,47.3,15.8,47.1,15.7,45.5z M14.8,44.8v1.3c0,0.2,0,0.3-0.3,0.3
				c-0.1,0-0.2-0.1-0.2-0.3v-2.7c0-0.1,0.1-0.3,0.2-0.3c0.1,0,0.2,0.1,0.2,0.3C14.9,43.9,14.9,44.4,14.8,44.8z"/>
		</g>
	</g>
</g>
</svg>
