<?xml version="1.0" encoding="utf-8"?>
<!-- Generator: Adobe Illustrator 21.0.0, SVG Export Plug-In . SVG Version: 6.00 Build 0)  -->
<svg version="1.1" id="Layer_1" xmlns="http://www.w3.org/2000/svg" xmlns:xlink="http://www.w3.org/1999/xlink" x="0px" y="0px"
	 viewBox="0 0 67 68" style="enable-background:new 0 0 67 68;" xml:space="preserve">
<style type="text/css">
	.st0{fill:#050505;}
	.st1{fill:#FCFCFC;}
</style>
<circle class="st0" cx="33.7" cy="34" r="33.5"/>
<g>
	<g>
		<path class="st1" d="M13.3,43.8L13.3,43.8c0,0.1,0.1,0.2,0.2,0.3c0.1,0.3,0.2,0.5,0.3,0.8c0.1,0.2,0.2,0.5,0.3,0.7l0,0
			c0.1,0,0.2,0,0.3,0c0.2,0,0.2,0,0.2-0.2c0-0.3,0-0.7,0-1c0-0.2,0-0.5,0-0.7c0-0.1,0-0.3,0-0.5c0-0.2,0-0.5,0-0.7
			c0-0.4,0-0.8,0-1.2c0-0.2,0-0.3,0.2-0.3C14.9,41,15,41,15.2,41c0.1,0,0.3,0,0.4,0l0,0c0-0.2,0-0.3,0-0.5c0,0,0-0.1-0.1-0.1
			c-0.3,0-0.5,0-0.8,0c-0.4,0-0.8,0-1.2,0c-0.3,0-0.7,0-1,0c-0.5,0-0.8,0-1.2,0c-0.1,0-0.2,0-0.2,0.2c0,0.1,0,0.3,0,0.4
			c0,0.1,0,0.1,0.1,0.1c0.3,0,0.6,0,0.9,0c0.2,0,0.5,0.2,0.5,0.3s0,0.3,0,0.5c0,0.4,0,0.8,0,1.2c0,0.2,0,0.3-0.1,0.5
			c0,0.3-0.2,0.5-0.4,0.7c-0.2,0.2-0.4,0.4-0.6,0.5c-0.3,0.2-0.5,0.2-0.8,0.2c-0.2,0-0.4,0-0.5,0c-0.2,0-0.3,0-0.5-0.2
			c-0.3-0.2-0.5-0.4-0.8-0.7c-0.2-0.2-0.3-0.5-0.3-0.7c0,0,0-0.2,0-0.3c-0.1-0.2-0.2-0.5-0.2-0.8c0-0.3,0-0.7-0.1-1
			c0-0.5,0-1.1,0-1.7c0-0.2,0-0.3,0-0.5c0-0.3,0-0.7,0-1c0-0.4,0.1-0.8,0.2-1.2c0.1-0.4,0.3-0.8,0.5-1.1c0.2-0.3,0.5-0.5,0.7-0.7
			c0.3-0.2,0.5-0.3,0.9-0.3c0.2,0,0.5,0,0.7,0c0.3,0,0.7,0.2,0.9,0.5c0.2,0.2,0.5,0.5,0.6,0.7c0.1,0.2,0.2,0.3,0.3,0.5
			c0,0.2,0.2,0.3,0.2,0.5c0,0.2,0.2,0.5,0.2,0.7c0,0.3,0.2,0.5,0.2,0.8c0,0,0,0,0.1,0c0.1,0,0.2,0,0.3,0c0,0,0.1,0,0.1,0
			c0-0.1,0-0.2,0-0.3c0-0.3,0-0.5,0-0.8c0-0.4,0-0.7,0-1.1c0-0.6,0-1.2,0-1.8c0-0.2,0-0.3-0.3-0.3c0,0-0.1,0-0.2,0c0,0,0,0-0.1,0
			c-0.1,0.3-0.3,0.6-0.4,0.9c0,0.1-0.1,0.1-0.2,0c-0.1-0.1-0.3-0.2-0.4-0.3c-0.3-0.2-0.8-0.4-1.4-0.5c-0.2,0-0.3,0-0.5,0
			c-0.2,0-0.3,0-0.5,0c-0.3,0-0.7,0.1-1,0.3c-0.4,0.2-0.7,0.4-1,0.6c-0.4,0.3-0.7,0.7-1,1.1c-0.3,0.3-0.5,0.8-0.6,1.2
			c-0.2,0.3-0.2,0.6-0.3,1c0,0.2,0,0.3-0.1,0.5c0,0.3,0,0.5,0,0.7c0,0.2,0,0.5,0,0.7c0,0.2,0,0.5,0,0.7c0,0.3,0,0.5,0,0.8
			c0,0.2,0,0.3,0.1,0.5c0,0.2,0.1,0.5,0.2,0.6c0,0.2,0.1,0.3,0.2,0.5c0.1,0.2,0.2,0.4,0.3,0.5s0.2,0.3,0.4,0.5
			c0.2,0.2,0.3,0.3,0.5,0.5C8,45,8.1,45.1,8.3,45.2c0.2,0.1,0.4,0.2,0.5,0.2c0.3,0.1,0.5,0.2,0.9,0.2c0.2,0,0.3,0,0.5,0
			c0.2,0,0.3,0,0.5,0c0.2,0,0.5,0,0.6-0.1c0.2,0,0.5-0.2,0.7-0.3c0.2-0.1,0.3-0.3,0.5-0.4c0.1,0,0.2-0.2,0.2-0.3
			c0.2-0.2,0.2-0.3,0.3-0.5C13.1,43.9,13.1,43.9,13.3,43.8z M60.1,37.8c0,0,0,0,0.1,0c0.2,0,0.2,0,0.2-0.2c0-0.1,0-0.2,0-0.3
			c0-0.3,0-0.6,0-0.9c0-0.2,0-0.4,0-0.6c0-0.2,0-0.4,0-0.5c0-0.2,0-0.4,0-0.6c0-0.2,0-0.3,0-0.5c0-0.2,0-0.2-0.2-0.2l0,0
			c-0.2,0-0.3,0-0.4,0.2c-0.2,0.2-0.3,0.5-0.5,0.7c0,0,0,0-0.2,0c-0.1,0-0.2-0.2-0.3-0.2c-0.2-0.1-0.5-0.3-0.6-0.4
			c-0.2-0.1-0.5-0.2-0.7-0.3c-0.3,0-0.7-0.2-1-0.2c-0.3,0-0.5,0-0.8,0.1c-0.4,0-0.7,0.2-1,0.5c-0.2,0.2-0.4,0.3-0.5,0.5
			c-0.2,0.2-0.3,0.5-0.5,0.7c-0.2,0.3-0.3,0.7-0.3,1.1c0,0.3,0,0.5,0,0.8c0,0.3,0,0.6,0.1,0.9c0,0.2,0.1,0.3,0.2,0.5
			c0,0.2,0.2,0.3,0.3,0.5c0,0,0,0.1,0.2,0.2c0.2,0.2,0.4,0.3,0.5,0.5c0.2,0.1,0.3,0.2,0.5,0.3c0.2,0,0.4,0.2,0.6,0.2
			c0.2,0,0.3,0.2,0.5,0.2c0.3,0,0.5,0.2,0.8,0.2c0.3,0,0.6,0.2,0.9,0.3c0.2,0,0.5,0.1,0.6,0.2c0.3,0.1,0.5,0.3,0.6,0.5
			c0,0,0.1,0.2,0.2,0.2c0.1,0.2,0.2,0.5,0.2,0.8c0,0.2,0,0.3,0,0.5c0,0.3-0.2,0.5-0.3,0.7c0,0.2-0.2,0.3-0.3,0.3
			c-0.2,0.1-0.3,0.2-0.5,0.3c-0.3,0.1-0.5,0.2-0.8,0.2c-0.4,0-0.8,0-1.2-0.1c-0.2,0-0.5-0.2-0.7-0.3c-0.2-0.1-0.3-0.2-0.5-0.4
			c-0.1,0-0.2-0.2-0.2-0.3c-0.2-0.2-0.3-0.4-0.4-0.5c-0.2-0.2-0.2-0.5-0.3-0.7c-0.1-0.2-0.2-0.5-0.2-0.7c0-0.2,0-0.3-0.1-0.5
			c0-0.1,0-0.2-0.2-0.2c0,0-0.2,0-0.2,0c-0.2,0-0.2,0-0.2,0.2c0,0.3,0,0.5,0,0.8c0,0.2,0,0.5,0,0.7c0,0.3,0,0.6,0,0.9
			c0,0.2,0,0.5,0,0.7c0,0.3,0,0.5,0,0.8c0,0,0,0.2,0.1,0.2s0.3,0,0.4,0c0,0,0,0,0,0c0,0,0.1-0.2,0.2-0.2c0,0,0,0,0.1-0.1
			c0.2-0.2,0.3-0.5,0.5-0.6c0,0,0,0,0.1,0c0,0,0,0,0.1,0c0,0,0.2,0.2,0.3,0.2c0.1,0,0.2,0.2,0.4,0.2c0.2,0.1,0.3,0.2,0.5,0.3
			c0.3,0.1,0.5,0.2,0.8,0.3c0.3,0,0.5,0,0.8,0c0,0,0.2,0,0.2,0c0.1,0,0.3,0,0.4,0c0.2,0,0.3,0,0.4,0c0.3,0,0.5-0.2,0.8-0.3
			c0.2,0,0.3-0.1,0.4-0.2c0.1,0,0.2-0.1,0.3-0.2c0.1-0.1,0.2-0.2,0.3-0.3c0.2-0.2,0.3-0.5,0.5-0.7c0.1-0.2,0.2-0.3,0.3-0.5
			c0,0,0-0.1,0-0.2c0-0.1,0-0.2,0.1-0.3c0-0.2,0-0.3,0-0.5c0,0,0-0.1,0-0.2c0-0.1,0-0.2,0-0.3c0,0,0,0,0-0.1c0-0.2,0-0.3,0-0.5
			c0-0.2,0-0.3-0.1-0.5c0,0,0-0.1,0-0.2c-0.1-0.2-0.2-0.4-0.3-0.6c0,0,0-0.2-0.2-0.2c-0.1-0.1-0.2-0.2-0.3-0.3
			c-0.2-0.1-0.3-0.2-0.5-0.3c-0.1,0-0.2-0.1-0.3-0.2c-0.2,0-0.3-0.2-0.4-0.2c-0.2,0-0.3-0.1-0.5-0.2c-0.3,0-0.5-0.2-0.8-0.2
			c-0.3,0-0.5-0.2-0.8-0.2c-0.2,0-0.5-0.2-0.7-0.2c-0.2,0-0.3-0.1-0.5-0.2c0,0-0.2-0.1-0.2-0.2c-0.1-0.1-0.3-0.2-0.4-0.3
			c-0.2-0.2-0.3-0.4-0.3-0.6c0-0.2-0.1-0.5,0-0.7c0,0,0,0,0-0.1c0-0.2,0-0.3,0.2-0.5c0.1-0.2,0.2-0.5,0.5-0.5c0.1,0,0.2-0.2,0.3-0.3
			c0.3-0.2,0.5-0.2,0.9-0.2c0.2,0,0.3,0,0.5,0c0.2,0,0.5,0.1,0.7,0.2c0.1,0,0.2,0.2,0.3,0.2c0.3,0.2,0.5,0.3,0.7,0.5
			c0.2,0.2,0.3,0.5,0.5,0.7c0,0,0,0,0,0c0,0.1,0,0.2,0.1,0.3c0,0.2,0.2,0.3,0.2,0.5c0,0.2,0.2,0.5,0.2,0.7c0,0,0,0.1,0.2,0.1
			C59.9,37.8,60,37.8,60.1,37.8z M46,43.1c0,0,0,0-0.1-0.1c0-0.1-0.1-0.2-0.2-0.3c0-0.2-0.1-0.3-0.2-0.5c0-0.2-0.1-0.3-0.2-0.4
			c0-0.2-0.2-0.3-0.2-0.5c0-0.2-0.1-0.3-0.2-0.4c0-0.1-0.1-0.2-0.2-0.3c0-0.2-0.2-0.4-0.3-0.6c0,0,0,0,0-0.1
			c-0.1-0.2-0.2-0.4-0.2-0.5c0-0.1,0.2-0.3,0.3-0.3c0.2,0,0.3,0,0.5,0c0,0,0.1,0,0.1-0.1c0-0.2,0-0.3,0-0.5l0,0c0,0-0.2,0-0.3,0
			c-0.2,0-0.5,0-0.7,0c-0.3,0-0.7,0-1,0c-0.3,0-0.5,0-0.9,0c-0.2,0-0.5,0-0.7,0l0,0c0,0.1,0,0.3,0,0.5c0,0.1,0,0.2,0.2,0.2
			c0.2,0,0.5,0,0.5,0.3c0,0.2,0.2,0.4,0.3,0.5c0,0,0,0.2,0,0.2c0,0.1,0.1,0.2,0.2,0.3c0,0.1,0,0.2,0.1,0.3c0.1,0.2,0.2,0.5,0.3,0.6
			c0,0.1,0,0.2,0.1,0.3c0,0.2,0.1,0.3,0.2,0.4c0,0.1,0.1,0.3,0.2,0.5c0.1,0.2,0.2,0.4,0.3,0.6c0,0.2,0.2,0.3,0.2,0.5
			c0.1,0.2,0.2,0.5,0.3,0.6c0,0.2,0.2,0.4,0.2,0.5c0,0.1,0.1,0.2,0.2,0.3c0,0.2,0.1,0.3,0,0.5c-0.1,0.2-0.2,0.5-0.3,0.7
			c0,0.2-0.2,0.3-0.2,0.4c-0.1,0.2-0.2,0.3-0.3,0.5c-0.1,0.1-0.2,0.2-0.3,0.3c0,0.1-0.2,0.2-0.3,0.2c-0.2,0-0.3,0-0.3-0.3
			c0-0.2,0-0.3,0-0.5c0-0.3-0.2-0.5-0.5-0.7c-0.4-0.2-0.8-0.1-1,0.2c0,0.1-0.1,0.2-0.2,0.3c0,0.2,0,0.5,0,0.7c0,0.3,0.2,0.5,0.5,0.6
			c0.2,0.2,0.4,0.2,0.6,0.3c0.1,0,0.2,0,0.3,0c0.1,0,0.2,0,0.3,0c0.2,0,0.5-0.2,0.6-0.3c0.2-0.2,0.4-0.3,0.5-0.5
			c0-0.1,0.2-0.2,0.3-0.4c0.1-0.2,0.2-0.3,0.3-0.5c0.1-0.2,0.2-0.3,0.3-0.5c0-0.2,0.2-0.3,0.2-0.5c0-0.1,0.1-0.2,0.2-0.3
			c0-0.2,0.1-0.3,0.2-0.5c0-0.2,0.1-0.3,0.2-0.5c0,0,0-0.1,0-0.2c0-0.2,0.1-0.3,0.2-0.4c0-0.2,0.1-0.3,0.2-0.5
			c0.1-0.2,0.2-0.5,0.3-0.6c0-0.1,0-0.2,0.1-0.3c0.1-0.2,0.2-0.5,0.3-0.7c0.1-0.2,0.2-0.5,0.3-0.7v0c0,0,0-0.2,0.1-0.2
			c0-0.1,0-0.2,0.1-0.3c0-0.2,0.2-0.3,0.2-0.4c0-0.1,0.1-0.3,0.2-0.5c0-0.2,0.2-0.3,0.2-0.4c0.1-0.1,0.2-0.2,0.4-0.3
			c0.1,0,0.2,0,0.3,0s0.2,0,0.1-0.2c0-0.1,0-0.2,0-0.3c0-0.2,0-0.2-0.2-0.2c-0.2,0-0.3,0-0.4,0c-0.3,0-0.5,0-0.8,0
			c-0.3,0-0.6,0-0.9,0c-0.1,0-0.2,0-0.3,0c0,0-0.1,0-0.1,0c0,0.2,0,0.3,0,0.5l0,0c0,0,0.2,0,0.2,0c0,0,0.2,0,0.2,0s0.4,0.2,0.4,0.3
			c0.1,0.4,0,0.7-0.2,1c0,0.1-0.1,0.2-0.2,0.3c0,0.1,0,0.2-0.1,0.3c-0.1,0.3-0.3,0.6-0.4,0.9c0,0.2-0.1,0.3-0.2,0.5
			C46.2,42.6,46.1,42.8,46,43.1z M40.3,37.9C40.2,37.9,40.2,37.9,40.3,37.9c-0.2,0-0.3,0-0.4,0c0,0,0,0.1,0,0.2
			c0,0.1-0.2,0.2-0.2,0.3c0,0,0,0-0.2,0c-0.2-0.1-0.3-0.2-0.5-0.3c-0.2,0-0.3,0-0.5-0.2c-0.2-0.1-0.3,0-0.5,0c0,0-0.1,0-0.2,0
			c-0.2,0-0.3,0-0.4,0c0,0-0.1,0-0.2,0C37.2,38,37.2,38,37,38c-0.1,0-0.2,0-0.3,0.2c-0.1,0-0.2,0.1-0.2,0.2
			c-0.1,0.1-0.2,0.2-0.3,0.3c0,0.1-0.2,0.2-0.2,0.3l0,0c0,0.2-0.1,0.3-0.2,0.4c-0.1,0.1-0.1,0.2-0.2,0.4c0,0,0,0.2,0,0.3
			c0,0,0,0.1,0,0.2c0,0.2,0,0.5,0,0.6s0,0.3,0.1,0.5c0,0.2,0.2,0.3,0.2,0.5c0.2,0.2,0.3,0.4,0.5,0.5c0.2,0.1,0.5,0.3,0.7,0.3
			c0.1,0,0.2,0,0.3,0.1c0.1,0,0.3,0,0.4,0c0.3,0.1,0.7,0.2,1,0.3c0.2,0,0.3,0.1,0.5,0.2c0.2,0.1,0.3,0.3,0.3,0.5
			c0,0.3,0,0.5-0.2,0.7c-0.2,0.3-0.5,0.4-0.7,0.5c-0.2,0-0.5,0-0.7,0c-0.2,0-0.5,0-0.7-0.1c-0.1,0-0.2-0.2-0.3-0.2
			c-0.2,0-0.3-0.2-0.5-0.3c-0.2-0.2-0.3-0.3-0.4-0.5c0-0.1-0.1-0.2-0.2-0.3c0-0.1,0-0.2-0.2-0.3c0,0,0,0-0.1,0c-0.1,0-0.2,0-0.4,0
			c0,0,0,0,0,0.1c0,0.2,0,0.3,0,0.5c0,0.5,0,0.9,0,1.3c0,0.2,0,0.4,0,0.6c0,0.2,0,0.2,0.2,0.2c0,0,0.2,0,0.2,0c0,0,0.1,0,0.1,0
			c0.1-0.2,0.2-0.3,0.3-0.5c0-0.1,0-0.1,0.2,0c0,0,0,0,0,0c0,0,0.1,0,0.2,0.1c0,0,0.2,0.1,0.2,0.2c0.2,0,0.3,0.1,0.5,0.2
			c0.2,0,0.4,0.1,0.6,0.1c0.2,0,0.5,0,0.7,0c0.2,0,0.4,0,0.5-0.2c0.2,0,0.3-0.2,0.5-0.3c0.2-0.1,0.3-0.3,0.5-0.5
			c0,0,0.2-0.1,0.2-0.2c0.1-0.2,0.2-0.5,0.3-0.7c0-0.1,0.1-0.3,0-0.4c0-0.2,0-0.5,0-0.7c0-0.2,0-0.3-0.2-0.5c0-0.3-0.2-0.5-0.4-0.7
			c0,0,0-0.2-0.2-0.2c-0.2-0.1-0.3-0.2-0.5-0.3c-0.2-0.1-0.3-0.2-0.5-0.2c-0.2,0-0.3,0-0.5-0.1c-0.2,0-0.5-0.1-0.7-0.2
			c0,0-0.1,0-0.2,0c-0.2,0-0.5-0.2-0.7-0.3c-0.2,0-0.3-0.2-0.4-0.5c0-0.2,0-0.4,0-0.5c0-0.2,0.1-0.3,0.2-0.3c0,0,0.2-0.2,0.3-0.2
			c0,0,0.2-0.1,0.3-0.1c0.2,0,0.4,0,0.5,0s0.3,0,0.5,0c0.2,0,0.4,0.2,0.5,0.3c0.2,0.2,0.4,0.4,0.5,0.6c0.1,0.2,0.2,0.4,0.3,0.5
			c0,0.1,0.1,0.2,0.3,0.2c0,0,0.1,0,0.2,0c0.1,0,0.2,0,0.2-0.2c0-0.1,0-0.2,0-0.3c0-0.2,0-0.5,0-0.7c0-0.2,0-0.3,0-0.5
			C40.3,38.4,40.4,38.2,40.3,37.9z M32.3,38.9c0.2,0.1,0.4,0.3,0.5,0.5c0.1,0.2,0.2,0.3,0.3,0.5c0,0.2,0.2,0.3,0.2,0.5
			c0,0,0.1,0.2,0.2,0.2c0.1,0,0.3,0,0.4,0l0,0c0,0,0-0.2,0-0.3c0-0.3,0-0.6,0-0.9c0-0.1,0-0.3,0-0.4c0-0.2,0-0.5,0-0.7
			c0-0.1,0-0.2-0.2-0.2l0,0c-0.2,0-0.3,0-0.4,0.2c0,0.1-0.2,0.2-0.3,0.3c0,0,0,0-0.1,0c0,0,0-0.1-0.1-0.1c-0.1,0-0.2-0.1-0.3-0.2
			c0,0-0.2,0-0.2-0.1c-0.2,0-0.4,0-0.5-0.1c0,0-0.2,0-0.3,0c-0.2,0-0.3,0-0.5,0s-0.3,0-0.5,0.1c0,0-0.2,0.1-0.2,0.1
			c-0.2,0-0.4,0.2-0.5,0.4c0,0.1-0.2,0.2-0.2,0.3c-0.2,0.2-0.2,0.4-0.3,0.6c0,0.1,0,0.2,0,0.3s0,0.2,0,0.3c0,0.2,0,0.3,0,0.4
			c0,0,0,0.1,0,0.2c0,0.2,0,0.5,0.2,0.6c0.1,0.3,0.3,0.5,0.5,0.7c0.2,0.2,0.5,0.3,0.8,0.5c0.2,0,0.3,0.1,0.5,0.2
			c0.2,0,0.3,0,0.5,0.1c0.2,0,0.3,0,0.5,0.1c0.2,0,0.5,0.1,0.7,0.2c0.2,0,0.3,0.2,0.5,0.3c0.2,0.3,0.2,0.6,0,0.9
			c0,0.2-0.2,0.3-0.3,0.3c-0.2,0.1-0.3,0.2-0.5,0.3c-0.2,0-0.5,0-0.6,0c-0.2,0-0.5,0-0.7-0.2c-0.2,0-0.3-0.2-0.5-0.3
			c-0.2-0.1-0.2-0.3-0.4-0.5c-0.2-0.2-0.3-0.5-0.4-0.7c0-0.1,0-0.2-0.2-0.3c0,0,0-0.1-0.1-0.1c-0.1,0-0.2,0-0.3,0c0,0-0.1,0-0.1,0.1
			s0,0.1,0,0.2c0,0.3,0,0.7,0,1.1c0,0.3,0,0.5,0,0.8c0,0.2,0,0.3,0,0.4c0,0,0,0.1,0,0.1c0.2,0,0.4,0.1,0.5-0.1
			c0-0.2,0.2-0.2,0.3-0.3s0.1-0.2,0.2,0c0.2,0.2,0.4,0.2,0.6,0.3c0.2,0,0.3,0.1,0.5,0.1c0.2,0,0.5,0.1,0.7,0c0.1,0,0.2,0,0.3,0
			s0.2,0,0.3,0c0.1,0,0.2,0,0.3-0.1c0.2,0,0.3-0.2,0.5-0.3c0,0,0.2,0,0.2-0.2c0.2-0.2,0.3-0.3,0.4-0.5c0.3-0.3,0.3-0.7,0.4-1
			c0-0.2,0-0.5,0-0.7c0,0,0-0.2,0-0.2c0-0.1,0-0.2-0.1-0.3c0-0.2-0.1-0.3-0.2-0.4c-0.1-0.2-0.2-0.3-0.3-0.5c0,0-0.2-0.2-0.2-0.2h0
			c-0.2-0.1-0.5-0.2-0.7-0.3l0,0c-0.1,0-0.2,0-0.3-0.1c-0.1,0-0.2,0-0.3,0c-0.2,0-0.3-0.1-0.5-0.1c-0.3,0-0.8-0.2-1-0.4l0,0
			c0,0-0.1,0-0.1-0.1c0-0.1-0.1-0.2-0.1-0.3c0-0.1,0-0.3,0-0.4c0-0.2,0.1-0.3,0.2-0.5c0.2-0.2,0.5-0.3,0.7-0.3c0.2,0,0.3,0,0.5,0
			C31.9,38.7,32.1,38.7,32.3,38.9C32.3,38.8,32.4,38.9,32.3,38.9C32.3,38.9,32.3,38.9,32.3,38.9C32.3,38.9,32.3,38.9,32.3,38.9z
			 M17.5,43c0,0.3,0,0.7,0,1c0,0.2,0,0.3-0.2,0.5c-0.2,0.1-0.3,0.2-0.5,0.2c0,0-0.1,0-0.2,0c0,0,0,0,0,0c0,0.2,0,0.3,0,0.5
			c0,0,0,0.1,0.1,0.1c0.2,0,0.3,0,0.5,0c0.3,0,0.5,0,0.8,0c0.2,0,0.3,0,0.5,0s0.5,0,0.7,0c0.3,0,0.5,0,0.8,0c0.1,0,0.2,0,0.2-0.2
			c0-0.2,0-0.3,0-0.5c0,0,0-0.1-0.1-0.1c0,0-0.2,0-0.2,0c-0.3,0-0.5-0.2-0.6-0.5c0-0.4,0-0.8,0-1.2c0-0.3,0-0.6,0-0.9
			c0-0.5,0-0.9,0-1.4c0-0.3,0-0.6,0-0.9c0-0.4,0-0.8,0-1.1s0-0.7,0-1c0-0.3,0-0.5,0-0.8c0-0.2,0-0.4,0-0.5c0-0.2,0-0.5,0-0.6
			s0-0.3,0-0.5c0-0.2,0-0.5,0-0.7c0,0,0-0.1-0.1-0.1s-0.2,0-0.3,0c-0.2,0-0.5,0-0.7,0c-0.3,0-0.5,0-0.8,0c-0.3,0-0.5,0.2-0.7,0.2
			c0,0,0,0,0,0c0,0.2,0,0.3,0,0.5c0,0.1,0,0.2,0.2,0.2c0.1,0,0.3,0,0.4,0c0.2,0,0.3,0,0.3,0.2c0.2,0.2,0.2,0.3,0.2,0.5
			c0,0.2,0,0.4,0,0.5c0,0.3,0,0.5,0,0.8c0,0.3,0,0.5,0,0.8c0,0.2,0,0.4,0,0.5c0,0.2,0,0.3,0,0.5c0,0.1,0,0.3-0.1,0.3c0,0,0,0,0,0.1
			c0,0,0,0.2,0,0.2c0,0.3,0,0.6,0,0.9c0,0.2,0,0.3,0,0.5c0,0.3,0,0.6,0,0.9 M52.1,35.6c0-0.1,0-0.3,0-0.4c0-0.4-0.3-0.7-0.5-0.9
			c-0.2-0.2-0.5-0.3-0.8-0.3c0,0,0,0-0.1,0c-0.1,0-0.2,0-0.2,0c-0.3,0-0.5,0.3-0.6,0.5c-0.2,0.2-0.2,0.5-0.2,0.8
			c0,0.2,0,0.5,0.2,0.6s0.2,0.3,0.4,0.4c0.2,0.1,0.3,0.2,0.5,0.2c0.1,0,0.2,0,0.3,0c0.2,0,0.3,0,0.2,0.2c0,0.1,0,0.3,0,0.4
			c-0.1,0.2-0.2,0.5-0.5,0.7c0,0-0.1,0.1-0.2,0.2c0,0,0,0.1-0.2,0.2c-0.1,0.1-0.2,0.2-0.3,0.3c0,0-0.2,0.1-0.2,0.2
			c-0.2,0.1-0.2,0.2-0.1,0.3c0,0,0,0.1,0,0.2c0,0,0,0,0.2,0c0.2-0.1,0.4-0.3,0.6-0.4c0.2-0.1,0.3-0.2,0.5-0.4
			c0.2-0.2,0.3-0.4,0.5-0.5c0,0,0.1-0.2,0.2-0.3c0,0,0.1-0.2,0.2-0.2c0-0.2,0.1-0.3,0.2-0.5c0-0.2,0.1-0.3,0.1-0.5
			C52.1,35.9,52.1,35.8,52.1,35.6z M27.7,40.6c0-0.2-0.1-0.5-0.2-0.7c0-0.2-0.2-0.4-0.3-0.5c0-0.2-0.2-0.3-0.3-0.4
			c-0.2-0.2-0.3-0.3-0.5-0.4c-0.2-0.2-0.5-0.3-0.7-0.4c-0.2,0-0.4-0.2-0.5-0.2c-0.2,0-0.3,0-0.5-0.1c-0.2,0-0.4,0-0.5,0
			c-0.2,0-0.3,0-0.5,0c-0.1,0-0.2,0-0.3,0c-0.1,0-0.2,0-0.3,0.1c-0.2,0.1-0.4,0.2-0.6,0.3c0,0-0.1,0-0.1,0c-0.1,0.1-0.2,0.2-0.3,0.3
			c-0.2,0.2-0.3,0.3-0.5,0.5c0,0-0.1,0.1-0.1,0.2c0,0.2-0.2,0.3-0.2,0.5c0,0,0,0.1,0,0.2c0,0.2,0,0.3-0.1,0.5c0,0.2,0,0.3-0.1,0.5
			c0,0.3,0,0.7,0,1c0,0.2,0,0.3,0,0.5c0,0.2,0.1,0.3,0.2,0.5c0,0.2,0.2,0.4,0.3,0.5c0.2,0.3,0.4,0.5,0.6,0.8
			c0.2,0.2,0.5,0.3,0.7,0.5c0.2,0.1,0.4,0.2,0.6,0.2c0.2,0,0.5,0,0.7,0s0.5,0,0.7,0c0.3,0,0.7-0.2,0.9-0.3c0.1,0,0.2-0.1,0.3-0.2
			c0,0,0.2-0.1,0.2-0.2c0,0,0.1,0,0.2,0c0,0,0,0,0-0.1c0,0,0.2-0.1,0.2-0.2c0.1-0.1,0.2-0.2,0.3-0.3c0.1-0.2,0.2-0.3,0.3-0.5
			c0.1-0.2,0.2-0.4,0.3-0.5c0-0.1,0-0.2,0.1-0.3c0,0,0-0.2,0-0.2c0-0.2,0-0.3,0-0.5v-1C27.8,41,27.7,40.8,27.7,40.6z M25.8,42.2
			c0,0.3,0,0.5,0,0.8c0,0.3-0.1,0.5-0.2,0.8c0,0.2-0.1,0.3-0.2,0.5c-0.1,0.2-0.3,0.4-0.5,0.5C24.7,45,24.4,45.1,24,45
			c-0.3,0-0.5-0.2-0.7-0.5c-0.2-0.2-0.3-0.5-0.3-0.8c0-0.2,0-0.3,0-0.5c0-0.1,0-0.2,0-0.3c0-0.1,0-0.2,0-0.3c0-0.5,0-0.8,0-1.3
			c0-0.3,0-0.7,0.1-1c0-0.2,0-0.5,0.1-0.7c0-0.1,0-0.2,0.1-0.3c0.1-0.2,0.3-0.4,0.5-0.5c0.2-0.2,0.4-0.3,0.7-0.3
			c0.3,0,0.5,0.1,0.8,0.3c0.2,0.2,0.3,0.5,0.5,0.7c0,0.2,0.1,0.5,0.2,0.7c0,0.2,0,0.5,0,0.6c0,0.2,0,0.4,0,0.6c0,0.1,0,0.2,0,0.3
			C25.8,42.1,25.9,42.1,25.8,42.2z"/>
		<g>
			<path class="st1" d="M40.2,27.7c0,0,0,0,0,0.1s0,0.2,0,0.3c0,0.2,0,0.3,0,0.5l0,0c0,0,0,0,0,0c0,0-0.1-0.1-0.1-0.2v0
				c0-0.2,0-0.3,0-0.4v0c0,0,0-0.1-0.2-0.2c0,0,0,0,0,0s0-0.1,0-0.1s0,0,0,0c0,0,0,0,0,0s0,0.2,0,0.2c0,0,0,0,0,0.1
				c0,0.2,0,0.3,0,0.5c0,0,0,0.1,0,0.2c0,0,0,0,0,0.1c0,0.2,0,0.3,0,0.5c0,0.1,0,0.2-0.1,0.3c0,0,0,0.1,0,0.2c0,0,0,0-0.1,0.1
				c0,0,0,0,0,0.1c0,0.1-0.2,0.2-0.3,0.3c0,0-0.1,0.1-0.2,0.2c0,0,0,0,0,0v0c0,0,0-0.1,0-0.2s0-0.1,0-0.2c0,0,0,0,0,0
				c0-0.2,0.2-0.3,0.2-0.5c0,0,0-0.1,0-0.2l0,0c0,0,0,0,0,0c0,0,0-0.2,0-0.2c0-0.1,0-0.2,0-0.3v0c0,0,0,0,0-0.2c0,0,0,0,0-0.1
				c0-0.1,0-0.2,0-0.3s0-0.2-0.1-0.3c0,0,0,0,0-0.1c0,0,0,0,0,0c0-0.2-0.2-0.2-0.2-0.3c0,0,0,0,0,0c0,0,0,0,0,0c0,0.1,0,0.2,0,0.3
				c0,0.1,0,0.2,0,0.2c0,0.2,0,0.3,0,0.4c0,0.1,0,0.2,0,0.3c0,0,0,0,0,0c0,0,0,0.1,0,0.2s0,0.2,0,0.3c0,0,0,0.1,0,0.2v0
				c0,0.1,0,0.2,0,0.3c0,0,0,0.2,0,0.2c0,0,0,0.2,0,0.2c0,0,0,0,0,0.1c0,0.2,0,0.3,0.2,0.5c0,0,0,0,0,0.1c0,0,0,0,0,0c0,0,0,0-0.1,0
				l0,0c-0.1-0.1-0.2-0.2-0.3-0.3c0-0.1-0.2-0.2-0.2-0.3c0-0.1,0-0.2,0-0.3c0,0,0-0.2,0-0.2c0,0,0-0.2,0-0.2c0,0,0-0.2,0-0.2
				c0,0,0-0.2,0-0.2c0,0,0-0.2,0-0.3c0,0,0,0,0,0c0,0,0,0,0,0c0,0.1,0,0.2,0,0.3c0,0.1,0,0.2,0,0.4c0,0.1,0,0.2,0,0.3
				c0,0.2,0,0.3,0,0.5c0,0,0,0,0,0.1c0,0.1,0.1,0.2,0.1,0.3c0,0.1,0.1,0.2,0.2,0.3c0,0,0.1,0.2,0.2,0.2c0,0,0,0,0.1,0.1
				c0,0,0.1,0.1,0.2,0.1c0,0,0,0,0.1,0.1v0h0c0,0-0.1,0-0.2,0c-0.1,0-0.2,0-0.3-0.1s-0.2-0.1-0.3,0c0,0,0,0-0.1,0h0
				c-0.1,0-0.2,0-0.3,0c-0.1,0-0.2,0-0.3,0c0,0-0.2,0-0.2,0h0c0,0,0-0.1-0.1-0.2c0,0,0,0,0-0.1s0-0.2-0.1-0.2c0,0-0.1-0.2-0.2-0.2
				c0,0,0,0-0.1,0c0,0,0,0,0,0s0-0.1,0-0.2c0,0,0-0.1-0.1-0.2c0-0.1-0.2-0.3-0.3-0.3c0,0-0.1-0.2-0.2-0.2c0,0,0-0.1,0-0.1
				c0,0,0.2,0,0.2,0c0.2,0,0.3,0,0.5,0.1c0,0,0.2,0,0.2,0c0,0,0,0,0,0c0,0,0.1,0,0.2,0c0,0,0.2,0,0.2,0s0,0,0.1,0
				c0.2,0,0.2-0.2,0.2-0.3c0-0.1,0-0.2,0-0.3s0-0.2,0-0.2c0,0,0-0.1,0.1-0.2c0-0.1,0.2-0.2,0.2-0.3s0-0.2-0.2-0.3c0,0-0.1,0-0.2-0.1
				l0,0c0,0,0-0.1,0.1-0.1c0,0,0,0,0,0c0,0,0.2-0.1,0.3-0.2c0,0,0-0.1,0.2-0.1l0,0c0,0,0-0.1,0-0.2c0,0,0-0.2-0.1-0.2
				c0-0.1,0-0.2,0.2-0.3c0,0,0.1,0,0.2-0.1c0.1,0,0.2-0.2,0.3-0.2l0,0c0,0,0-0.2,0-0.2s0-0.1-0.1-0.1c0,0,0,0,0,0s0-0.2-0.1-0.2
				c0,0,0,0,0-0.1s0,0-0.1-0.1c0,0,0,0,0-0.1l0,0c0,0,0-0.1-0.2-0.2l0,0c0,0,0,0,0,0c0,0,0-0.1-0.1-0.2c0,0,0,0-0.1-0.2
				c-0.1-0.3-0.1-0.5-0.1-0.5c0-0.2,0-0.5,0-0.7c0-0.1,0-0.2,0-0.3c0,0,0-0.2,0-0.2s0-0.1,0-0.2l0,0c-0.1,0,0-0.2,0-0.2
				c0-0.1,0-0.2,0-0.3c0,0,0-0.2-0.1-0.3c0-0.1-0.1-0.2-0.1-0.3c0-0.1-0.1-0.2-0.2-0.3c0,0,0-0.1-0.2-0.2c0,0,0-0.1-0.2-0.2
				c0,0,0-0.1-0.2-0.1c-0.1,0-0.2,0-0.3,0.1c0,0.1,0,0.2,0,0.3c0,0.1,0,0.3,0,0.4c0,0.1,0,0.2,0,0.3c0,0.2,0,0.3,0,0.5
				c0,0,0,0.1,0,0.2l0,0c0,0,0,0.2,0,0.2s0,0.2,0,0.2s0,0.1,0,0.2s0,0.2,0,0.3c0,0,0,0.2,0,0.2s0,0.1,0,0.2v0c0,0.1,0,0.2,0,0.3
				c0,0.1,0,0.2,0,0.3s0,0.3,0,0.4c0,0.2,0,0.3,0,0.5c0,0.2,0,0.5,0,0.7c0,0,0,0.2,0,0.2c0,0,0,0.1,0,0.2s0,0,0,0.1
				c0,0.1,0,0.2,0,0.3c0,0.1-0.1,0.3-0.2,0.4c0,0.2-0.1,0.3-0.2,0.5s-0.2,0.3-0.2,0.5c0,0.1-0.1,0.2-0.2,0.2c0,0,0,0-0.1,0
				c0,0,0,0,0,0c0,0,0-0.2-0.1-0.2c0,0,0,0,0,0c0-0.1-0.1-0.2-0.2-0.3c0-0.1-0.1-0.2-0.2-0.3c0,0,0,0,0,0l0,0c0-0.1,0-0.2,0-0.3
				c0,0,0-0.2,0-0.2v0c0,0,0-0.1,0-0.1s0,0,0,0s0-0.1,0-0.2s0-0.2,0-0.2c0,0,0-0.1,0-0.2s0-0.2,0-0.3c0-0.2,0-0.3,0.1-0.5
				c0,0,0-0.2,0-0.2c0-0.1,0-0.2,0.1-0.3c0-0.1,0-0.2,0-0.3c0,0,0-0.1,0-0.2c0-0.1,0-0.1,0-0.2c0-0.1,0-0.2,0-0.3v0c0,0,0,0,0,0h0
				c0,0,0-0.1,0-0.1v0c0-0.2,0-0.5,0.2-0.6c0-0.2,0.1-0.3,0.1-0.5c0,0,0,0,0,0v0c0.1-0.1,0.2-0.2,0.2-0.4s0-0.3,0-0.4
				c0,0,0-0.1,0-0.2l0,0c0-0.1,0-0.2,0-0.3v0c0,0,0-0.2,0-0.2c0,0,0,0,0,0c0-0.1,0-0.2,0-0.3c0,0,0-0.1,0-0.2c0,0,0,0,0,0
				c0,0,0,0,0.1,0c0,0,0,0,0,0s0,0,0,0c0,0,0.1,0,0.2,0.1c0,0,0,0,0.1,0c0,0,0.2,0.2,0.2,0.2l0,0c0,0,0.2,0.2,0.2,0.3
				c0,0.1,0.2,0.2,0.3,0.3c0,0,0,0,0,0.1c0,0,0.1,0.1,0.2,0.2c0,0,0,0,0,0.1c0,0.1,0.2,0.2,0.2,0.3v0c0,0,0,0,0,0.1c0,0,0,0,0,0.1
				c0,0,0,0,0,0c0,0,0.2,0.2,0.2,0.3c0,0,0,0,0,0c0.3-0.1,0.3,0,0.3,0c0,0.1,0,0.2,0.1,0.3v0c0,0,0,0.2,0,0.2s0,0.1,0,0.2v0
				c0,0.1,0,0.2,0.1,0.4c0,0,0,0,0,0.1c0,0,0,0.1,0,0.2s0,0.2,0,0.3c0,0,0,0.2,0,0.2v0c0,0.1,0,0.2,0,0.3c0,0,0,0.1,0,0.2
				s0,0.1,0,0.2l0,0c0,0,0.1,0.2,0.1,0.3c0,0.2,0.1,0.2,0.2,0.3c0,0,0.1,0,0.1,0.1c0,0,0,0,0.1,0.1c0,0,0.1,0.1,0.2,0.2
				c0,0,0.1,0,0.2,0.2c0,0,0,0,0,0c0,0,0,0.1,0.1,0.2c0,0,0,0,0,0.1c0,0,0,0,0,0C40.2,27.4,40.2,27.6,40.2,27.7z"/>
			<path class="st1" d="M38.5,32.2c0,0.2,0,0.4,0,0.5v0c0,0,0,0,0,0.1c0,0,0,0,0,0.1c0,0.1-0.2,0.2-0.3,0.3c0,0-0.2,0-0.2,0l0,0
				c-0.1,0-0.2,0-0.3,0c0,0,0,0-0.1,0l0,0v0c0,0,0,0,0,0l0,0c0,0,0.1-0.2,0.2-0.3c0,0,0,0,0,0c0-0.1,0-0.2,0.1-0.3c0,0,0,0,0-0.1
				s0-0.2,0-0.2c0-0.1,0-0.2,0.1-0.3c0-0.1,0-0.2,0-0.3c0,0,0,0,0,0c0,0,0,0,0.1,0c0,0,0,0.1,0.1,0.2c0,0,0.1,0.1,0.1,0.2
				C38.4,32,38.5,32.1,38.5,32.2C38.4,32.1,38.5,32.1,38.5,32.2z"/>
			<path class="st1" d="M35.2,31.1c0,0.1,0,0.2,0,0.3c0,0.1,0,0.3,0,0.4c0,0,0,0.1,0,0.2c0,0.2,0,0.3,0,0.5c0,0,0,0.1,0,0.2
				c0,0.2-0.2,0.3-0.2,0.5c0,0-0.1,0.2-0.1,0.2c0,0,0,0-0.1,0.1c0,0,0,0,0,0.1l0,0c-0.1,0-0.2,0.2-0.2,0.2c0,0,0,0-0.1,0h0h0v0
				c0,0,0.1-0.2,0.2-0.2l0,0c0-0.1,0.2-0.2,0.2-0.3l0,0c0.2-0.2,0.2-0.3,0.2-0.5c0-0.2,0-0.4,0.1-0.5c0,0,0-0.2,0-0.2
				c0,0,0-0.2,0-0.3c0-0.2,0-0.3,0-0.5v0v0c0,0,0,0,0,0c0,0.1,0,0.2,0,0.3c0,0,0,0.1,0,0.2l0,0c-0.1,0,0,0.2-0.1,0.3
				c0,0.1,0,0.2-0.1,0.3c0,0.1-0.1,0.2-0.2,0.3c0,0.1-0.1,0.2-0.2,0.3v0c-0.1,0-0.1,0.1-0.2,0.2c0,0,0,0,0,0c0,0,0,0,0,0
				c0,0-0.1,0.1-0.2,0.2c0,0-0.1,0.2-0.2,0.2c-0.1,0-0.2,0.1-0.3,0.2h0v0c0-0.1,0.1-0.2,0.2-0.2c0,0,0,0,0-0.1c0,0,0.2-0.1,0.2-0.2
				l0,0c0,0,0,0,0,0l0,0c0-0.1,0.2-0.2,0.2-0.3v0c0.1-0.2,0.2-0.5,0.2-0.7v0c0,0,0-0.1,0-0.2v0c0,0,0-0.2,0-0.2c0-0.2,0-0.5,0-0.6
				c0-0.1,0-0.3-0.1-0.4c0,0,0,0,0,0c0,0,0,0,0,0c0,0,0-0.2-0.1-0.2c0,0,0-0.2-0.2-0.3c0,0-0.1-0.2-0.2-0.2c0,0,0,0,0,0
				c0,0,0-0.1-0.2-0.1l0,0c-0.1-0.2-0.1-0.2-0.1-0.2c0-0.1,0-0.2,0.1-0.3c0,0,0.1-0.1,0.2-0.2c0,0,0.1,0,0.2,0c0.1,0,0.2,0,0.3,0
				c0.1,0,0.2,0,0.3,0c0.1,0,0.2,0.1,0.3,0.2c0,0,0.1,0.1,0.2,0.2l0,0c0,0.1,0.2,0.2,0.2,0.3c0,0,0,0.1,0.1,0.2c0,0,0,0.1,0.1,0.2
				l0,0c0,0,0,0,0,0.1c0,0,0.1,0.1,0.1,0.2c0,0,0,0,0.1,0.1c0,0,0,0.1,0.1,0.2c0,0,0.1,0.1,0.2,0.2c0,0,0,0,0,0.1l0,0c0,0,0,0,0,0
				c0,0.1,0.1,0.2,0.2,0.3c0,0,0.1,0.2,0.2,0.2c0,0,0,0.2,0,0.3c0,0.1,0,0.2,0,0.3c0,0.2,0,0.3,0,0.4c0,0.2,0,0.4,0.2,0.5
				c0,0,0,0.1,0.2,0.1c0,0,0,0,0,0v0c0,0,0.1,0.1,0.2,0.2c0,0,0,0,0,0c0,0,0,0,0,0c0,0,0,0.1,0,0.2c0,0,0,0,0,0c0,0,0,0-0.1,0
				c0,0-0.1,0-0.2,0.1c0,0-0.2,0.1-0.2,0.2c0,0-0.2,0-0.2,0.1c0,0,0,0-0.2,0.1s-0.2,0.1-0.3,0.2c0,0,0,0,0,0c0,0,0,0,0,0
				c0,0-0.1,0-0.2,0l0,0c0,0-0.1,0-0.2,0c0,0-0.1,0-0.2,0c-0.2,0-0.4,0-0.6,0c-0.1,0-0.2,0-0.3,0h0c0,0,0,0,0,0c0,0,0,0,0.1,0l0,0
				c0,0,0.2,0,0.2,0s0.1,0,0.2,0c0.1,0,0.2-0.1,0.3-0.2c0.2-0.1,0.3-0.3,0.4-0.5c0,0,0.1-0.2,0.1-0.2v0v0c0,0,0,0,0-0.1
				c0-0.1,0-0.2,0-0.3c0-0.2,0-0.3,0-0.5c0-0.2,0-0.3,0-0.5s0-0.4-0.1-0.6C35.3,31.3,35.2,31.2,35.2,31.1z"/>
			<path class="st1" d="M32.8,21.6c0,0.1,0,0.2,0,0.3s0,0.2,0.1,0.3v0c0,0,0,0,0,0h0c0,0,0,0-0.1,0c0,0,0,0,0,0s0,0-0.1,0
				c0,0,0,0,0,0c0,0-0.1,0-0.2-0.1c0,0-0.1,0-0.2,0c0,0-0.2,0-0.2,0c0,0,0,0,0,0c0,0,0,0,0,0l0,0c0,0.1,0,0.2,0.1,0.3c0,0,0,0,0,0
				c0,0-0.1,0-0.2,0l0,0c-0.1,0-0.2-0.2-0.3-0.3c0,0-0.1,0-0.2-0.1c-0.1-0.1-0.2-0.2-0.3-0.3c-0.1-0.1-0.2-0.3-0.3-0.5
				c0-0.1-0.1-0.2-0.1-0.3c0,0,0-0.2,0-0.3c0,0,0,0,0-0.1c0,0,0.1-0.1,0.2-0.2c0.1-0.1,0.2-0.2,0.3-0.2c0,0,0,0,0,0c0,0,0.1,0,0.2,0
				c0,0,0,0,0.1,0c0,0,0,0,0,0c0,0,0,0,0.1,0c0.1,0,0.2,0,0.3,0c0,0,0.1,0,0.2,0l0,0c0.1,0,0.2,0,0.3,0l0,0c0,0,0.1,0,0.2,0
				c0,0,0.2,0,0.2,0c0.2,0,0.4,0,0.6,0c0.1,0,0.2,0,0.3,0c0,0,0.1,0,0.2,0c0,0,0,0,0.1,0c0,0,0,0,0,0c0.1,0,0.2,0,0.3,0l0,0
				c0,0,0.2,0,0.3,0c0.1,0,0.2,0,0.3,0.1c0.1,0,0.2,0,0.3,0s0.2,0,0.2,0.1c0,0,0,0.1,0,0.2l0,0c0,0.1,0,0.3-0.1,0.4c0,0,0,0.2,0,0.2
				s0,0.2,0,0.2s0,0.2,0,0.2c0,0,0,0,0,0c0,0,0,0.1,0,0.2v0.1c0,0,0,0,0,0.1v0c0,0.2,0,0.3-0.1,0.3c0,0,0,0.1,0,0.2v0
				c0,0,0,0.1,0,0.2l0,0c0,0,0,0-0.1,0.2c0,0.1,0,0.3-0.2,0.4c0,0.1,0,0.2-0.1,0.3v0c0,0,0,0.2,0,0.2s0,0.1,0,0.2h0c0,0,0-0.2,0-0.2
				s0,0,0-0.1l0,0c0,0,0,0,0,0s0-0.1,0-0.2c0,0,0,0,0,0h0l0,0c0,0,0,0,0,0s0-0.1,0-0.2l0,0c0,0,0,0,0-0.1c0,0,0,0,0,0c0,0,0,0,0-0.1
				l0,0c0,0,0-0.1-0.1-0.2c0,0-0.1-0.2-0.2-0.2c0,0,0,0,0,0c0,0,0-0.1-0.2-0.2c0,0,0-0.1-0.2-0.2c0,0-0.1-0.2-0.2-0.2
				C32.9,21.8,32.8,21.7,32.8,21.6L32.8,21.6C32.8,21.7,32.8,21.7,32.8,21.6z"/>
			<path class="st1" d="M35,22.8L35,22.8L35,22.8C34.9,22.8,34.9,22.8,35,22.8z"/>
			<path class="st1" d="M33.1,27.4c0,0.2,0,0.5,0,0.6c0,0.2-0.1,0.3-0.2,0.5c0,0,0,0,0,0.1c0,0.1,0,0.2-0.1,0.3c0,0,0,0.2,0,0.2
				c0,0.1,0,0.2-0.1,0.3c0,0,0,0.1,0,0.2v0c0,0-0.1,0.1-0.1,0.2s0,0.2-0.1,0.3c0,0,0,0.2,0,0.2c0,0.1,0,0.2-0.1,0.2
				c0,0,0,0.2-0.1,0.3l0,0c0,0,0,0.2-0.1,0.2v0c0,0-0.1,0.2-0.2,0.3c0,0,0,0-0.1,0c0,0,0,0-0.1-0.2c-0.1-0.1-0.2-0.3-0.3-0.3
				c0,0,0,0-0.1-0.1c0-0.1-0.2-0.2-0.3-0.2c0,0-0.2,0-0.2,0c-0.1,0-0.2,0-0.3,0s-0.2,0-0.3,0c0,0,0,0-0.1,0c-0.2,0-0.3,0-0.5,0
				c0,0,0,0-0.1,0c-0.1,0-0.2,0-0.3,0c0,0-0.1,0-0.2,0c-0.1,0-0.2,0-0.3-0.2c0,0,0,0,0,0l0,0c0,0,0,0,0,0c0-0.1,0-0.1,0-0.2
				s0-0.2,0-0.2c0,0,0-0.1,0-0.2l0,0c0,0,0-0.2,0-0.3s0-0.2,0-0.3c0,0,0-0.1-0.1-0.1c0,0,0,0-0.1,0c-0.1,0-0.1-0.2-0.1-0.3
				c0-0.1,0-0.2-0.1-0.3c0,0,0-0.1,0-0.2c0-0.1,0-0.2,0.1-0.3c0,0,0-0.1,0-0.2c0-0.2,0-0.3-0.2-0.3c-0.2,0-0.3,0-0.4-0.2
				c0,0,0-0.2,0-0.3c0-0.2,0.2-0.3,0.2-0.4l0,0c0,0,0.1-0.2,0.1-0.2s0-0.1,0.1-0.1c0,0,0,0,0,0s0-0.2,0-0.2l0,0c0.1,0,0-0.2,0.2-0.3
				c0,0,0-0.2,0.1-0.2c0,0,0,0,0,0s0-0.2,0-0.2c0,0,0-0.1,0-0.2s0-0.1,0-0.2c0,0,0,0,0,0s0-0.1,0-0.2c0,0,0-0.2,0-0.3
				c0,0,0-0.2,0-0.2s0,0,0-0.1c0,0,0-0.2,0-0.2c0,0,0,0,0,0l0,0c0,0,0-0.1,0-0.2v0c0-0.1,0-0.2,0.1-0.3c0-0.1,0-0.3,0.1-0.3v0
				c0,0,0,0,0,0c0,0,0,0,0,0c0,0,0,0,0,0s-0.2,0-0.2,0l0,0c-0.1,0-0.2,0.1-0.3,0.2c0,0,0,0,0,0c0,0-0.2,0.2-0.2,0.2
				c0,0-0.1,0.1-0.2,0.2h0v0c0,0,0,0,0,0l0,0c0,0,0-0.2,0.1-0.2v0c0.1,0,0.1,0,0.1-0.1c0,0,0-0.1,0.2-0.2l0,0c0,0,0,0,0-0.1
				c0,0,0.1,0,0.1-0.1c0,0,0,0,0,0c0,0,0,0,0-0.1c0,0,0,0-0.1,0v0c-0.1,0-0.2,0-0.3,0.1c-0.1,0-0.2,0.1-0.3,0.2c0,0,0,0,0,0l0,0
				c0,0,0,0,0,0c0,0,0.1,0,0.1-0.2l0,0c0.1,0,0.1-0.2,0.2-0.2c0,0,0.1-0.1,0.2-0.2c0,0,0,0,0,0c0,0,0,0,0,0c0,0,0,0,0,0c0,0,0,0,0,0
				c0.1,0,0.2,0,0.2-0.2c-0.2,0-0.3,0-0.5,0c0,0-0.1,0-0.2,0c0,0,0,0,0.1,0c0,0,0.2,0,0.2-0.1c0,0,0,0,0.1,0s0.2,0,0.2,0
				c0,0,0,0,0.1,0s0,0,0.1,0c0,0,0,0,0.1,0s0,0,0,0l0-0.2l0,0c0,0-0.2,0-0.3,0c0,0,0,0-0.1,0l0,0c0,0,0,0,0,0c0,0,0.2,0,0.2,0
				c0.1,0,0.2,0,0.3,0c0,0,0,0,0.1,0c0,0,0.2,0,0.2,0c0,0,0.1,0,0.1-0.1c0,0,0,0,0,0c0,0-0.1,0-0.1,0c0,0-0.1,0-0.2,0c0,0,0,0,0,0
				s0,0,0,0c0,0,0.2,0,0.2,0c0.1,0,0.2,0,0.3,0c0.1,0,0.2,0,0.3,0h0v0c0,0-0.1-0.1-0.2-0.2l0,0c0,0,0,0-0.2-0.1c0,0-0.1,0-0.2-0.1
				c0,0,0,0,0,0c0,0,0,0,0.1,0c0,0,0.2,0,0.2,0c0.1,0,0.2,0,0.3,0.1c0,0,0.2,0,0.3,0.1c0,0,0.1,0,0.2,0h0c0,0,0,0,0,0c0,0,0,0,0,0
				c0-0.1,0-0.2-0.2-0.3c-0.1-0.1-0.1-0.1-0.1-0.2s-0.2-0.2-0.2-0.3c0,0,0,0,0,0v0h0c0.1,0,0.2,0,0.2,0.1c0.1,0,0.2,0.2,0.3,0.2
				c0,0,0,0,0,0c0,0.1,0.1,0.2,0.2,0.3l0,0c0,0.1,0,0.2,0.1,0.3c0,0,0,0.2,0.1,0.2c0,0.1,0,0.2,0.1,0.3c0,0,0,0.1,0,0.2
				c0,0,0.1,0.2,0.1,0.2s0,0,0,0.1c0,0,0,0,0,0.1c0,0.1,0.1,0.2,0.2,0.3c0,0,0,0,0,0.1c0,0,0,0,0,0l0,0c0,0.1,0,0.2,0.1,0.3
				c0,0.1,0,0.2,0.1,0.3c0,0,0,0.2,0.1,0.2c0,0,0,0.1,0,0.2c0,0,0,0.1,0,0.2l0,0c0,0,0,0.1,0,0.2c0,0.1,0,0.2,0.1,0.3c0,0,0,0,0,0.1
				c0,0.1,0,0.2,0.1,0.3c0,0.1,0.1,0.2,0.1,0.3c0,0,0,0.1,0,0.2c0,0,0,0.2,0.1,0.2c0,0,0,0.1,0,0.2c0,0,0,0.1,0,0.2s0,0.2,0.1,0.2
				c0,0,0,0.1,0,0.2c0,0.1,0,0.2,0.1,0.3c0,0,0,0,0,0.2c0,0,0,0.2,0.1,0.2c0,0,0,0.2,0.1,0.3c0,0,0,0.1,0,0.2
				C33,27.4,33,27.5,33.1,27.4C33.1,27.4,33.1,27.4,33.1,27.4z"/>
		</g>
		<path class="st1" d="M34.9,22.8L34.9,22.8C35,22.8,35,22.8,34.9,22.8h0.1c0,0,0,0,0,0c0,0,0,0,0,0s0,0,0-0.1c0,0,0,0,0,0
			c0,0,0,0,0,0c0,0,0-0.1,0.1-0.2c0,0,0-0.2,0-0.2c0,0,0-0.1,0-0.2c0,0,0,0,0-0.1c0,0,0-0.1,0-0.2c0-0.1,0-0.2,0.1-0.4c0,0,0,0,0,0
			c0,0,0,0,0-0.1c0,0,0,0,0,0l0,0c0,0,0,0.2,0,0.2s0,0,0,0.1c0,0.1,0,0.2,0,0.3l0,0c-0.1,0.1,0,0.2-0.1,0.3c0,0,0,0,0,0.1
			c0,0,0,0.2,0,0.3c0,0,0,0,0,0c0,0,0,0.2-0.1,0.2c0,0,0,0.1,0,0.2v0c0,0.1,0,0.2,0,0.3c0,0.1,0,0.1,0,0.2c0,0,0,0.1,0,0.2
			s0,0.2,0,0.2l0,0c0,0,0,0.1,0,0.2l0,0c0,0,0,0,0,0.1c0,0,0,0.1,0,0.2s0,0.1,0,0.2c0,0,0,0.2,0,0.2s0,0.1,0,0.2c0,0,0,0,0,0.2
			c0,0,0,0,0,0.1v0c0,0.1,0,0.2-0.1,0.3c0,0,0,0,0,0c0,0,0,0,0,0.1c0,0,0,0.1,0,0.2s0,0,0,0.1l0,0c0,0,0,0.2,0,0.2c0,0,0,0.1,0,0.2
			c0,0,0,0.1,0,0.2v0c0,0,0,0.1,0,0.1l0,0c0,0,0,0,0,0.1c0,0,0,0.2,0,0.3s0,0.2,0,0.3c0,0.2,0,0.3,0,0.4c0,0,0.1,0.2,0.2,0.2
			c0,0,0,0.2,0.1,0.2c0,0,0,0,0,0c0,0.2,0.2,0.2,0.2,0.3c0,0,0,0.1,0.1,0.2c0,0,0,0,0,0v0c0.1,0.2,0.2,0.3,0.3,0.5
			c0.1,0.2,0.2,0.3,0.3,0.5c0,0.1,0.2,0.2,0.2,0.3c0,0,0.1,0.2,0.2,0.2c0,0,0,0,0,0c0,0,0,0.1,0.1,0.2c0,0,0,0,0,0l0,0
			c0,0.2,0.2,0.3,0.2,0.3l0,0c0,0,0.1,0.1,0.1,0.2l0,0c0,0.1,0.1,0.1,0.2,0.1c0,0,0.2,0,0.3,0c0,0,0.1,0,0.2,0s0.1,0,0.2,0
			c0,0,0,0,0,0c0.1,0,0.2,0,0.2,0h0.1l0,0c0,0,0,0,0,0c0,0,0,0,0,0l0,0c0,0,0.2,0.1,0.2,0.2c0.1,0,0.2,0.1,0.2,0.2c0,0,0,0.1,0,0.1
			c0.1,0.1,0.1,0.2,0.2,0.3c0.1,0.1,0.1,0.2,0.1,0.3c0,0,0,0.2,0,0.2c0,0.2,0,0.3-0.1,0.4c0,0,0,0,0,0.1c-0.1,0.2-0.3,0.3-0.5,0.4h0
			c0,0-0.2,0-0.2,0c0,0-0.1,0-0.2,0c-0.1,0-0.2,0-0.3,0c-0.1,0-0.2-0.1-0.3-0.2v0l0,0l0,0c0,0,0,0,0.1,0c0,0,0,0,0,0c0,0,0,0,0.1,0
			l0,0c0,0,0,0,0,0c0,0,0,0,0.1,0c0.1,0,0.2,0,0.3,0l0,0c0,0,0.1,0,0.2,0c0.1,0,0.2-0.2,0.3-0.3c0,0,0,0,0-0.1s0-0.1,0-0.1
			c0,0,0,0,0,0c0-0.2,0-0.4,0-0.5c0,0,0-0.1,0-0.2c0,0-0.2,0.2-0.2,0.2c0,0,0-0.2-0.1-0.2c0,0,0,0-0.1-0.2c0,0,0,0-0.1,0
			c0,0,0,0,0,0c0,0.1,0,0.2,0,0.3s0,0.2-0.1,0.3c0,0,0,0.1,0,0.2c0,0,0,0,0,0.1c0,0,0,0.2-0.1,0.3c0,0,0,0,0,0c0,0-0.1,0.2-0.2,0.3
			l0,0c0,0,0,0,0,0c-0.1-0.1-0.2-0.2-0.3-0.3c0-0.1-0.1-0.2-0.2-0.3v0c0,0,0-0.2,0-0.2c0,0,0-0.2,0-0.3c0,0,0-0.2,0-0.2
			c0-0.2,0.2-0.3,0.3-0.3c0,0,0.1,0,0-0.2c0,0,0,0,0,0c0,0,0,0,0.1,0c0,0,0,0,0,0c0,0,0,0,0,0c0,0,0.1,0,0.1-0.1c0,0,0,0,0,0
			c0,0-0.2,0-0.3,0s-0.2,0-0.3,0c0,0,0,0,0,0c0,0-0.2,0.1-0.2,0.1c0,0,0,0.1-0.2,0.2c0,0-0.1,0.2-0.1,0.2c0,0,0,0,0,0.1
			c0,0,0,0,0,0.2c0,0.1,0,0.2,0,0.3c0,0,0,0.1,0,0.2c0,0,0,0.2,0.1,0.3c0,0,0,0,0,0c0,0,0,0.1,0,0.2c0,0,0,0,0-0.1s0,0,0-0.1
			c0,0-0.1-0.1-0.1-0.2c0,0,0,0,0-0.1v0c0-0.2,0-0.3,0-0.4c0-0.1,0-0.3,0-0.4c0,0,0,0,0-0.1v0c0,0,0-0.2,0-0.2c0,0,0,0,0-0.1
			c0-0.1,0-0.2-0.2-0.3c0,0-0.1-0.2-0.2-0.2c0,0,0,0-0.1-0.2c0-0.1-0.1-0.2-0.2-0.3c0,0,0,0,0-0.1c-0.1-0.1-0.2-0.2-0.2-0.3
			c0,0-0.1-0.1-0.1-0.2s0,0,0-0.1c0,0,0,0,0,0c0-0.1-0.1-0.2-0.2-0.2v0c0,0,0-0.1-0.1-0.2l0,0c0,0-0.1-0.2-0.2-0.2
			c0,0,0-0.2-0.2-0.2c0,0,0,0-0.1,0l0,0c-0.1,0-0.2,0-0.3-0.1h0c-0.1,0-0.2,0-0.3,0h0c0,0,0,0,0,0c-0.2,0-0.3,0.2-0.4,0.3
			c0,0,0,0.1-0.1,0.2c0,0,0,0,0,0.1c0,0.1,0,0.1-0.1,0.2c0,0,0,0,0,0c0,0,0,0.2-0.1,0.2c0,0,0,0.2,0,0.2c0,0.1-0.1,0.3-0.2,0.4
			c0,0,0,0,0,0.1c0,0,0,0,0,0.1c0,0,0,0.1-0.1,0.2c0,0,0,0,0,0c0,0.2-0.1,0.2-0.2,0.3c0,0.1-0.1,0.2-0.2,0.3c0,0.2,0,0.3,0,0.5
			c0,0,0,0.2,0,0.2c0,0,0,0.1,0,0.2c0,0,0,0,0,0h0c0,0.1,0,0.2,0,0.3v0.2v0c0,0.2,0,0.3-0.1,0.4c0,0,0,0,0,0s0,0.2-0.1,0.2l0,0
			c0,0,0,0.1,0,0.2c0,0-0.1,0.2-0.2,0.2c0,0,0,0.2-0.2,0.2c0,0-0.2,0.1-0.3,0.1c0,0-0.1,0-0.2,0h0c0,0-0.1,0-0.2,0
			c-0.1,0-0.2,0-0.3,0.2c0,0.1,0,0.2-0.2,0.3c0,0.1-0.1,0.2-0.2,0.3c0,0,0,0.1-0.1,0.2c0,0-0.1,0-0.2,0c0,0,0,0,0,0c0,0,0-0.1,0-0.2
			c0-0.1,0.2-0.2,0.2-0.3c0,0,0-0.1,0.1-0.1c0,0,0.1,0,0.1-0.2c0,0,0,0,0,0c0,0,0-0.2,0-0.2c0,0,0,0,0,0c0,0,0,0-0.1-0.1
			c0,0,0,0-0.1-0.1c-0.3,0-0.3,0-0.3,0c0-0.1,0-0.2,0-0.3c0,0,0-0.2,0-0.2c0-0.2,0-0.3,0.1-0.4c0.1-0.2,0.2-0.3,0.3-0.5
			c0.1-0.1,0.2-0.2,0.4-0.2c0.1,0,0.2-0.1,0.4,0c0,0,0.1,0,0.2,0c0,0,0,0,0,0c0,0,0,0,0,0h0c0,0,0,0,0,0c0,0,0-0.1,0.1-0.2
			c0,0,0,0,0-0.1v0c0,0,0,0,0,0c0-0.1,0-0.2,0.1-0.3v0c0,0,0,0,0,0v0c0,0,0,0,0,0s0,0,0,0h0l0,0c0-0.1,0.1-0.2,0.2-0.3
			c0,0,0,0,0-0.1l0,0c0.1,0,0,0,0-0.1c0-0.1,0-0.2,0.1-0.2c0,0,0-0.1,0-0.2c0,0,0-0.2,0.1-0.2c0,0,0-0.1,0-0.2s0-0.1,0-0.2v0
			c0,0,0.1-0.2,0.1-0.3v0c0,0,0,0,0,0c0,0,0-0.2,0.1-0.2c0,0,0-0.1,0-0.2c0-0.1,0.1-0.2,0.1-0.2v0l0,0c0,0,0-0.1,0-0.2
			c0,0,0,0,0-0.1s0-0.1,0-0.2c0,0,0-0.2,0-0.2c0,0,0,0,0,0l0,0l0,0c0,0,0,0,0-0.1c0,0,0,0,0-0.1c0-0.1,0-0.2-0.1-0.2
			c0-0.1,0-0.2-0.2-0.3v0c0-0.1-0.1-0.2-0.1-0.3c0,0,0-0.2-0.1-0.2c0,0,0-0.1,0-0.2s0,0,0-0.1c0,0,0,0,0-0.2c0,0,0-0.2-0.1-0.2l0,0
			c0,0,0-0.2,0-0.2c0,0,0,0,0,0c0,0-0.1-0.2-0.1-0.3c0,0,0-0.1,0-0.2c0,0,0-0.2-0.1-0.2c0,0,0-0.2,0-0.2c0,0-0.1-0.2-0.1-0.2
			s0-0.1-0.1-0.2c0,0,0-0.2-0.1-0.3c0,0,0,0,0-0.1c0.1-0.3,0.1-0.4,0.1-0.4s0,0,0-0.1c0,0,0,0,0,0v0c0,0,0,0,0,0l0,0
			c0-0.1,0-0.2,0-0.3c0-0.1-0.1-0.2-0.1-0.3c0-0.1-0.1-0.2-0.2-0.3v0c0,0,0,0,0-0.1c0,0,0,0,0-0.1c0,0,0,0,0,0c0,0,0.1,0.2,0.2,0.3
			c0,0,0,0.1,0.1,0.2c0,0,0,0,0,0c0,0.1,0,0.2,0.2,0.3c0,0,0,0.2,0.2,0.2c0,0,0,0.1,0,0.2s0,0.1,0,0.1c0,0,0,0.1,0,0.2
			s0,0.2,0.1,0.2l0,0c0,0.2,0.2,0.3,0.3,0.5c0,0,0.1,0.2,0.1,0.2s0,0,0,0c0,0,0,0,0,0.1c0,0,0,0,0,0l0,0c0,0,0,0,0,0.1
			c0,0,0,0.1,0.1,0.2c0,0,0,0.1,0.1,0.2c0,0.2,0.2,0.3,0.3,0.5c0,0.1,0.1,0.2,0.2,0.3c0,0.1,0.1,0.2,0.2,0.3
			c0.1,0.2,0.2,0.3,0.2,0.4c0,0,0,0.2,0.2,0.2c0,0,0,0,0.1,0c0,0,0,0,0,0c0-0.1,0.1-0.2,0.1-0.3c0-0.2,0.2-0.3,0.2-0.5v0
			c0-0.1,0-0.2,0.1-0.3c0,0,0-0.2,0-0.2l0,0c0,0,0-0.2,0.1-0.3c0,0,0,0,0-0.2c0,0,0-0.1,0-0.2c0-0.1,0-0.2,0.1-0.3v0
			c0.1,0,0-0.2,0.1-0.3c0,0,0,0,0-0.1c0-0.1,0-0.2,0.1-0.3c0-0.1,0-0.2,0.1-0.3c0,0,0-0.2,0-0.2c0,0,0,0,0,0
			C34.9,22.8,34.9,22.8,34.9,22.8L34.9,22.8"/>
	</g>
	<circle class="st1" cx="33.8" cy="27.6" r="0.3"/>
</g>
</svg>
