<?xml version="1.0" encoding="utf-8"?>
<!-- Generator: Adobe Illustrator 21.0.0, SVG Export Plug-In . SVG Version: 6.00 Build 0)  -->
<svg version="1.1" id="Layer_1" xmlns="http://www.w3.org/2000/svg" xmlns:xlink="http://www.w3.org/1999/xlink" x="0px" y="0px"
	 viewBox="0 0 68 68" style="enable-background:new 0 0 68 68;" xml:space="preserve">
<style type="text/css">
	.st0{fill:#362823;}
	.st1{fill:#F0A6AE;}
	.st2{fill:#D9A064;}
	.st3{fill:#FCFCFC;}
	.st4{fill:#DD4F78;}
	.st5{fill:#825543;}
	.st6{fill:#EFABB0;}
	.st7{fill:#A46895;}
	.st8{fill:#BC527E;}
	.st9{fill:none;}
	.st10{fill:#7C4C5E;}
	.st11{fill:#964C61;}
	.st12{fill:#F9F9F9;}
	.st13{fill:#FFFBF8;}
	.st14{fill:#E8DACF;}
</style>
<circle class="st0" cx="33.8" cy="33.8" r="33.5"/>
<g>
	<path class="st1" d="M22.4,36.7c0-0.1,0-0.1,0.1-0.1h0c0,0,0,0,0,0c0,0,0,0,0,0h0c-0.2,0-0.4,0-0.6,0c0,0,0,0-0.1,0c0,0,0,0,0,0
		s0,0,0,0h0c0.1,0,0.1,0,0.1,0.1c0,0.3,0,0.7,0,1.1c0,0.1,0,0.2,0,0.3s0,0.1-0.1,0.1h0c0,0,0,0,0,0s0,0,0,0c0,0,0,0,0.1,0h0.3l0,0
		c0,0,0,0,0.1,0c0.1,0,0.1,0,0.3,0c0,0,0,0,0,0s0,0,0,0c0,0,0,0-0.1,0c0,0-0.1,0-0.1-0.1s0,0,0-0.1c0-0.4,0-0.7,0-1.1
		C22.4,36.8,22.4,36.7,22.4,36.7z M35.3,37.9C35.3,37.9,35.3,37.9,35.3,37.9C35.3,38,35.3,38,35.2,38c0,0.1,0,0.1-0.1,0.1
		c-0.1,0-0.3,0-0.5,0c-0.1,0-0.1,0-0.1-0.1c0-0.3,0-0.6,0-0.9c0-0.1,0-0.3,0-0.4c0-0.1,0-0.1,0.1-0.1h0c0,0,0,0,0,0c0,0,0,0,0,0
		s0,0,0,0c-0.3,0-0.4,0-0.7,0c0,0-0.1,0-0.1,0c0,0,0,0,0.1,0c0.1,0,0.1,0,0.1,0.1c0,0.2,0,0.4,0,0.6c0,0.3,0,0.6,0,0.8
		c0,0.1,0,0.1-0.1,0.1c0,0,0,0,0,0c0,0,0,0,0,0h0c0.3,0,0.7,0,1.1,0c0,0,0.1,0,0.1,0c0,0,0,0,0-0.1C35.3,38.2,35.3,38,35.3,37.9
		C35.4,37.9,35.4,37.9,35.3,37.9z M24.7,37.8C24.7,37.8,24.7,37.8,24.7,37.8c-0.1,0.1-0.1,0.1-0.1,0.2s0,0.1-0.1,0.1
		c-0.2,0-0.3,0-0.6,0c0,0,0,0,0,0v0c0-0.3,0-0.6,0-0.9c0-0.2,0-0.3,0-0.5c0-0.1,0-0.1,0.1-0.1l0,0c0,0,0.1,0,0.1,0c0,0-0.1,0-0.1,0
		c-0.3,0-0.4,0-0.7,0h0c0,0,0,0,0,0c0,0,0,0,0,0h0c0.1,0,0.1,0,0.1,0.1v0c0,0.4,0,0.9,0,1.4c0,0,0,0.1-0.1,0.1c0,0,0,0,0,0
		c0,0,0,0,0.1,0c0,0,0,0,0.1,0c0.1,0,0.3,0,0.5,0c0.2,0,0.3,0,0.6,0c0,0,0.1,0,0.1,0c0,0,0,0,0,0C24.7,38.1,24.7,38,24.7,37.8
		C24.7,37.9,24.7,37.9,24.7,37.8z M27,36.4c0,0-0.1,0-0.1,0s0,0,0,0.1c-0.1,0.2-0.2,0.3-0.3,0.6c0,0.1-0.1,0.2-0.2,0.3
		c0,0,0,0,0-0.1c-0.1-0.2-0.2-0.4-0.3-0.6c0,0-0.1-0.1-0.1-0.2c0,0,0,0-0.1,0c-0.1,0-0.3,0-0.4,0.1c0,0,0,0,0,0c0,0,0,0,0,0
		c0.1,0,0.1,0,0.2,0.1l0,0c0.1,0.3,0.3,0.4,0.4,0.7c0,0,0,0.1,0,0.3c0,0.1,0,0.3,0,0.4c0,0.1,0,0.1-0.1,0.1c0,0,0,0-0.1,0s0,0,0,0
		c0,0,0,0,0,0c0,0,0.1,0,0.1,0c0.2,0,0.4,0,0.6,0h0.1c0,0,0,0,0,0c0,0,0,0,0,0s0,0-0.1,0c-0.1,0-0.1,0-0.1-0.1c0-0.2,0-0.3,0-0.6
		c0,0,0-0.1,0-0.1C26.6,37,26.8,36.7,27,36.4C27,36.4,27,36.4,27,36.4C27,36.4,27,36.4,27,36.4z M14.6,38v-0.3c0,0,0-0.1,0-0.2
		c0,0,0,0,0,0c0.1,0,0.3,0,0.3,0c0,0,0.1,0,0.1,0.1s0,0,0,0.1s0,0,0,0c0,0,0,0,0,0c0-0.1,0-0.3,0-0.4c0,0,0,0,0,0c0,0,0,0,0,0
		c0,0,0,0,0,0c0,0.1,0,0.1-0.1,0.1c-0.1,0-0.2,0-0.3,0c0,0-0.1,0-0.1-0.1c0-0.2,0-0.3,0-0.6c0,0,0-0.1,0.1-0.1c0.1,0,0.3,0,0.4,0
		c0.1,0,0.1,0,0.1,0.1c0,0,0,0,0,0.1s0,0,0,0c0,0,0,0,0,0c0-0.1,0-0.2,0-0.3c0,0,0,0,0,0c0,0-0.1,0-0.1,0c-0.3,0-0.7,0-1.1,0h0
		c0,0,0,0,0,0c0,0,0,0,0,0c0,0,0,0,0.1,0c0,0,0.1,0,0.1,0.1s0,0,0,0c0,0.3,0,0.4,0,0.7c0,0.1,0,0.3,0,0.3c0,0.1,0,0.3,0,0.3
		s0,0.1-0.1,0.1c0,0,0,0-0.1,0c0,0,0,0,0,0c0,0,0,0,0,0c0,0,0,0,0.1,0c0.2,0,0.4,0,0.7,0h0c0,0,0,0,0,0c0,0,0,0,0,0c0,0,0,0-0.1,0
		 M53.5,38.2c-0.1,0-0.1-0.1-0.2-0.2c-0.2-0.5-0.4-1-0.6-1.5c0,0,0-0.1,0-0.1c0,0-0.1,0-0.1,0c0,0-0.1,0-0.1,0s0,0.1,0,0.2
		c-0.2,0.4-0.3,0.9-0.6,1.4c0,0.1-0.1,0.1-0.2,0.1c0,0,0,0,0,0c0,0,0,0,0,0c0,0,0,0,0.1,0c0.1,0,0.3,0,0.3,0c0,0,0.1,0,0.1,0
		c0,0,0,0-0.1,0c-0.1,0-0.1,0-0.1-0.1c0-0.1,0-0.2,0.1-0.3c0,0,0,0,0.1,0c0.2,0,0.4,0,0.6,0c0,0,0,0,0.1,0c0,0.1,0.1,0.2,0.1,0.3
		c0,0,0,0.1-0.1,0.1c0,0,0,0-0.1,0c0,0,0,0,0,0c0,0,0,0,0,0c0,0,0,0,0.1,0c0.1,0,0.3,0,0.3,0v0h0.2C53.4,38.3,53.5,38.3,53.5,38.2
		C53.5,38.3,53.5,38.2,53.5,38.2C53.6,38.2,53.5,38.2,53.5,38.2z M52.7,37.6c0,0-0.2,0-0.2,0l0,0c-0.1,0-0.2,0-0.3,0
		c0,0-0.1,0,0-0.1c0-0.2,0.1-0.4,0.2-0.6c0,0,0,0,0,0c0,0,0,0,0,0C52.5,37.1,52.7,37.3,52.7,37.6C52.7,37.6,52.7,37.6,52.7,37.6z
		 M48.8,37.6c0-0.2-0.1-0.3-0.3-0.4c-0.1,0-0.1,0-0.3,0s-0.3,0-0.3,0c0,0-0.1,0-0.1-0.1c-0.1-0.1,0-0.3,0.1-0.4c0.1,0,0.3,0,0.4,0
		c0.1,0,0.3,0.1,0.3,0.3l0,0c0,0,0,0,0,0c0,0,0,0,0,0c0-0.1,0-0.1,0-0.3c0-0.1,0-0.1-0.1-0.1c-0.1,0-0.3,0-0.4,0c0,0-0.1,0-0.2,0
		c-0.3,0-0.5,0.3-0.6,0.5c0,0.3,0.1,0.5,0.3,0.6c0.1,0,0.1,0,0.3,0s0.2,0,0.3,0c0.1,0,0.1,0.1,0.1,0.2c0,0.2-0.1,0.4-0.3,0.4
		c-0.1,0-0.3,0-0.4,0c-0.1,0-0.2-0.1-0.2-0.3c0,0,0,0,0-0.1s0,0,0,0c0,0,0,0,0,0s0,0,0,0.1c0,0.1,0,0.1,0,0.3c0,0,0,0.1,0,0.1
		c0.3,0.1,0.6,0.1,0.9,0C48.6,38.2,48.8,37.9,48.8,37.6z M17.9,38.2C17.9,38.2,17.9,38.2,17.9,38.2c-0.1,0-0.1,0-0.2-0.1
		c0,0,0,0,0-0.1c-0.2-0.5-0.4-1-0.6-1.5c0,0,0-0.1-0.1-0.1c-0.1,0-0.1,0-0.1,0.1c0,0.1-0.1,0.3-0.2,0.4c-0.1,0.3-0.3,0.7-0.5,1.1
		c0,0.1,0,0.1-0.1,0.1c0,0,0,0,0,0s0,0,0,0c0.1,0,0.3,0,0.4,0c0,0,0,0,0.1,0s0,0,0,0s0,0,0,0c0,0,0,0-0.1,0c-0.1,0-0.1,0,0-0.1
		c0-0.1,0-0.2,0.1-0.3c0,0,0,0,0,0c0.2,0,0.4,0,0.6,0c0,0,0,0,0,0c0,0.1,0.1,0.3,0.1,0.3c0,0,0,0.1,0,0.1c0,0,0,0-0.1,0c0,0,0,0,0,0
		c0,0,0,0,0,0s0,0,0.1,0h0.3l0,0c0,0,0.1,0,0.1,0c0,0,0.1,0,0.2,0S17.9,38.2,17.9,38.2C18,38.2,17.9,38.2,17.9,38.2z M17,37.6
		c-0.1,0-0.3,0-0.4,0c0,0,0,0,0,0c0.1-0.2,0.1-0.4,0.3-0.6l0,0c0,0,0,0,0,0C16.9,37.2,17,37.3,17,37.6C17.1,37.6,17.1,37.6,17,37.6z
		 M51,36.7c0-0.1-0.1-0.2-0.2-0.3c-0.1,0-0.2,0-0.3,0c-0.3,0-0.6,0-1,0h0c0,0,0,0,0,0v0c0,0,0,0,0.1,0c0.1,0,0.1,0,0.1,0.1
		s0,0,0,0.1c0,0.4,0,0.8,0,1.2c0,0,0,0.1,0,0.2c0,0.1,0,0.1-0.1,0.1c0,0,0,0-0.1,0c0,0,0,0,0,0c0,0,0,0,0,0c0,0,0.1,0,0.1,0
		c0.2,0,0.4,0,0.6,0h0c0,0,0,0,0,0s0,0,0,0h0c-0.1,0-0.1,0-0.1-0.1c0,0,0,0,0-0.1c0-0.2,0-0.4,0-0.6v-0.7c0-0.1,0-0.1,0.1-0.1
		c0,0,0,0,0.1,0c0.1,0,0.3,0.1,0.3,0.3c0,0.1,0,0.2,0,0.3c0,0.1-0.1,0.2-0.3,0.2h0c0,0,0,0,0,0c0,0,0,0,0,0h0c0,0,0.1,0,0.2,0
		C50.7,37.4,51,37.1,51,36.7z M30.6,37.6c0-0.2-0.1-0.3-0.3-0.3c-0.1,0-0.2,0-0.3,0c-0.1,0-0.2,0-0.3,0c-0.1,0-0.1-0.1-0.1-0.2
		c0-0.1,0-0.3,0.1-0.3c0.1-0.1,0.3,0,0.5,0c0.1,0,0.1,0.1,0.1,0.2v0c0,0,0,0,0,0c0,0,0,0,0,0c0-0.1,0-0.2,0-0.3s0-0.1,0-0.1
		c-0.1,0-0.3-0.1-0.4-0.1c-0.1,0-0.3,0-0.3,0c-0.3,0.1-0.4,0.3-0.4,0.6c0,0.2,0.1,0.3,0.3,0.3c0.1,0,0.2,0,0.3,0c0.1,0,0.2,0,0.3,0
		c0.1,0,0.1,0.1,0.1,0.2c0,0.2,0,0.3-0.2,0.4c-0.2,0-0.3,0-0.5,0c-0.1,0-0.2-0.1-0.2-0.3v0c0,0,0,0,0,0s0,0,0,0c0,0.1,0,0.2,0,0.3
		c0,0.1,0,0.1,0.1,0.1c0.3,0.1,0.6,0.1,0.9,0C30.5,38.2,30.7,37.9,30.6,37.6z M33.3,38.2c-0.1,0-0.1,0-0.2-0.1c0,0,0-0.1,0-0.1
		c-0.2-0.5-0.4-0.9-0.6-1.4c0-0.1,0-0.1-0.1-0.1c-0.1,0-0.1,0-0.1,0.1c-0.1,0.2-0.1,0.4-0.3,0.6c-0.1,0.3-0.3,0.7-0.4,1
		c0,0.1-0.1,0.1-0.1,0.1c0,0,0,0,0,0s0,0,0,0c0.1,0,0.3,0,0.4,0c0,0,0.1,0,0.1,0c0,0,0,0,0,0s0,0,0,0s0,0-0.1,0
		c-0.1,0-0.1,0-0.1-0.1s0-0.2,0.1-0.3c0,0,0,0,0.1,0c0.2,0,0.4,0,0.6,0c0,0,0.1,0,0.1,0c0,0.1,0,0.1,0.1,0.3c0,0.1,0,0.1-0.1,0.2
		l0,0c0,0,0,0,0,0c0,0,0,0,0,0h0.3c0.1,0,0.3,0,0.3,0c0,0,0,0,0,0C33.3,38.2,33.3,38.2,33.3,38.2z M32.4,37.6c-0.1,0-0.3,0-0.4,0
		c0,0-0.1,0,0-0.1c0.1-0.2,0.1-0.4,0.3-0.6c0,0,0,0,0,0s0,0,0,0.1c0,0.2,0.1,0.3,0.2,0.5C32.5,37.6,32.5,37.6,32.4,37.6z M40.9,36.4
		C40.9,36.4,40.8,36.4,40.9,36.4h-0.5c0,0,0,0-0.1,0c0,0,0,0,0,0c0,0,0,0,0,0s0,0,0.1,0c0.1,0,0.1,0,0.1,0.1c0,0,0,0,0,0.1
		c0,0.3,0,0.6,0,0.9c0,0,0,0.1,0,0.1c0,0,0,0-0.1-0.1c-0.1-0.1-0.2-0.3-0.3-0.3c-0.3-0.3-0.4-0.6-0.7-0.9c0,0-0.1-0.1-0.1-0.1
		c-0.1,0-0.3,0-0.3,0c0,0-0.1,0-0.1,0c0,0,0,0,0.1,0c0.1,0,0.1,0,0.1,0.1c0,0.4,0,0.9,0,1.3c0,0,0,0,0,0.1c0,0.1,0,0.1-0.1,0.1
		c0,0,0,0-0.1,0c0,0,0,0,0,0c0,0,0,0,0,0c0.2,0,0.3,0,0.6,0c0,0,0,0,0,0c0,0,0,0,0,0h0c-0.2,0-0.2,0-0.2-0.1c0-0.3,0-0.7,0-1.1
		c0,0,0,0,0-0.1c0,0,0,0,0.1,0.1c0.3,0.4,0.7,0.9,1.1,1.2c0.1,0.1,0.1,0.1,0.3,0.1s0.1,0,0.1-0.1c0-0.4,0-0.8,0-1.2
		c0-0.1,0-0.3,0-0.4C40.8,36.5,40.8,36.5,40.9,36.4C40.9,36.4,40.9,36.4,40.9,36.4l0.1,0C40.9,36.4,40.9,36.4,40.9,36.4z M38.1,37.2
		c0-0.3-0.2-0.6-0.5-0.7c-0.3-0.1-0.6-0.1-0.9,0c-0.3,0.1-0.5,0.3-0.6,0.6c0,0.1,0,0.3,0,0.4c0,0,0,0.1,0,0.1c0,0.4,0.3,0.6,0.6,0.8
		c0.3,0.1,0.6,0.1,0.9,0c0.3-0.1,0.5-0.3,0.6-0.6C38.1,37.5,38.1,37.3,38.1,37.2z M37.7,37.8c-0.1,0.3-0.3,0.3-0.5,0.4
		c-0.3,0-0.5,0-0.6-0.3c-0.1-0.2-0.1-0.4-0.1-0.7c0-0.1,0-0.3,0-0.3c0.1-0.3,0.3-0.3,0.5-0.3h0.1c0.3,0,0.4,0.1,0.6,0.4
		c0,0.1,0,0.3,0,0.4C37.7,37.6,37.7,37.7,37.7,37.8z M45.2,38C45.2,38,45.2,38,45.2,38c-0.1,0-0.1,0-0.2,0c-0.1,0-0.3,0-0.4-0.1
		c0,0,0,0,0-0.1l0,0c0.1-0.1,0.1-0.3,0.1-0.4c0,0,0,0,0,0c0.1,0,0.1,0,0.3,0c0,0,0.1,0,0.1-0.1v0c0,0,0-0.1,0,0c-0.1,0-0.3,0-0.4,0
		c-0.1,0-0.3,0-0.3,0c0,0-0.1,0.1-0.1,0.1c0,0,0,0,0.1,0c0,0,0,0,0.1,0c0,0,0,0,0,0c0,0.1,0,0.3,0,0.4c0,0,0,0-0.1,0
		c-0.2-0.1-0.3-0.3-0.5-0.6c0,0,0,0,0-0.1c0.1,0,0.1-0.1,0.2-0.2c0,0,0.1-0.1,0.1-0.2c0-0.2,0-0.3-0.2-0.4c-0.1,0-0.3,0-0.3,0.1
		c-0.1,0-0.1,0.1-0.2,0.2c0,0,0,0.1,0,0.1c0,0.1,0,0.2,0,0.3c0,0.1,0,0.1,0,0.1c-0.1,0-0.1,0.1-0.2,0.1c-0.2,0.2-0.2,0.5,0,0.7
		c0.1,0.1,0.2,0.1,0.3,0.1c0.3,0,0.4,0,0.6-0.1c0,0,0.1,0,0.2,0c0.1,0.1,0.3,0.1,0.4,0.1c0.1,0,0.2,0,0.3-0.1c0,0,0,0,0.1-0.1l0,0
		C45.2,38.1,45.2,38,45.2,38z M43.7,36.6c0,0,0.1-0.1,0.2-0.1c0,0,0.1,0,0.1,0.1c0,0,0,0.1,0,0.2c0,0.1-0.1,0.2-0.2,0.3
		c0,0,0,0-0.1,0c0-0.1,0-0.2,0-0.3C43.7,36.7,43.7,36.7,43.7,36.6z M44.1,38.1c-0.1,0-0.3,0.1-0.4,0c-0.2-0.1-0.3-0.3-0.3-0.5
		c0-0.1,0-0.2,0.1-0.3c0,0,0,0,0.1,0c0.1,0.1,0.2,0.3,0.3,0.4c0,0,0.1,0.1,0.2,0.2C44.2,38.1,44.2,38.1,44.1,38.1z M21,36.5
		C21,36.5,21.1,36.5,21,36.5C21.1,36.5,21.1,36.5,21,36.5C21.1,36.5,21.1,36.5,21,36.5C21,36.5,21,36.5,21,36.5
		c-0.1-0.1-0.3-0.1-0.4-0.1c0,0-0.1,0-0.1,0.1c-0.2,0.4-0.3,0.8-0.6,1.2c0,0,0,0,0,0.1c0,0,0,0,0-0.1c-0.2-0.4-0.3-0.8-0.6-1.1
		c0,0,0-0.1-0.1-0.1c-0.1,0-0.3,0-0.4,0c0,0,0,0-0.1,0c0,0,0,0,0,0c0,0,0,0,0,0c0,0,0,0,0.1,0c0.1,0,0.1,0,0.1,0.1s0,0,0,0.1
		c0,0.3,0,0.7,0,1.1c0,0.1,0,0.2,0,0.3c0,0.1,0,0.1-0.1,0.1h0c0,0,0,0,0,0c0,0,0,0,0,0h0c0.1,0,0.3,0,0.4,0h0c0,0,0,0,0,0
		c0,0,0,0,0,0s0,0-0.1,0c-0.1,0-0.1,0-0.1-0.1v0c0-0.4,0-0.7,0-1.1v0c0,0,0,0,0,0c0.2,0.4,0.3,0.8,0.6,1.2c0,0.1,0,0.1,0.1,0.3
		c0,0,0.1,0,0.1,0v0c0.2-0.4,0.4-0.9,0.6-1.3c0,0,0,0,0-0.1c0,0,0,0,0,0.1c0,0.3,0,0.7,0,1c0,0,0,0.1,0,0.1c0,0.1,0,0.1-0.1,0.1
		c0,0,0,0-0.1,0c0,0,0,0,0,0s0,0,0,0c0,0,0,0,0.1,0c0.2,0,0.4,0,0.6,0c0,0,0,0,0.1,0c0,0,0,0,0,0s0,0,0,0c0,0,0,0-0.1,0
		c-0.1,0-0.1,0-0.1-0.1c0,0,0,0,0-0.1c0-0.2,0-0.4,0-0.6s0-0.4,0-0.6C20.9,36.5,20.9,36.5,21,36.5z"/>
	<path class="st2" d="M33.3,32.8c-0.1,0-0.1,0-0.3,0c-0.1,0-0.2-0.1-0.2-0.2c-0.3-0.6-0.5-1.1-0.7-1.6c-0.1-0.3-0.3-0.4-0.4-0.6
		c-0.2-0.1-0.4-0.2-0.6-0.3c0,0,0.1,0,0.1,0c0.3,0,0.6-0.1,0.9-0.3c0.2-0.1,0.4-0.3,0.5-0.6c0.2-0.3,0.2-0.7,0.1-1.1
		c-0.1-0.4-0.3-0.7-0.7-0.9C32,27,31.8,27,31.6,26.9c-0.4-0.1-0.9-0.2-1.4-0.2c-0.8,0-1.6,0-2.4,0c0,0-0.1,0-0.2,0c0,0,0,0,0,0
		c0,0.1,0,0.1,0.1,0.1c0.1,0,0.3,0,0.3,0.1c0,0,0.1,0,0.1,0.1s0,0,0,0.1c0,1,0,2.1,0,3.1c0,0.7,0,1.4,0,2.1c0,0.1,0,0.1-0.1,0.1
		c-0.1,0-0.2,0-0.3,0.1c-0.1,0-0.1,0-0.1,0.1s0,0,0.1,0h0c0.6,0,1.3,0,1.9,0c0.1,0,0.3,0,0.5,0c0.1,0,0.1,0,0.1-0.1
		c0,0,0-0.1-0.1-0.1c-0.1,0-0.3,0-0.4-0.1c-0.1,0-0.3,0-0.3-0.2v-1.2c0-0.3,0.1-0.6,0.1-0.8c0-0.1,0-0.1,0.1-0.1c0.1,0,0.2,0,0.3,0
		s0.1,0,0.2,0.1c0.3,0.6,0.5,1.2,0.8,1.8c0,0.1,0.1,0.3,0.2,0.3c0.2,0.3,0.5,0.5,0.9,0.5C32.5,32.9,32.9,32.9,33.3,32.8
		C33.4,32.9,33.4,32.9,33.3,32.8C33.4,32.9,33.4,32.8,33.3,32.8z M30.1,30c-0.1,0-0.2,0-0.3,0s-0.2,0-0.2-0.1c0-0.1-0.1-0.3-0.1-0.5
		v-2.2c0,0,0.1,0,0.1-0.1s0,0,0.1,0c0.3,0,0.7,0,1,0.2c0.3,0.2,0.4,0.4,0.5,0.7c0.1,0.3,0.1,0.7,0,1C31,29.6,30.6,29.9,30.1,30z"/>
	<path class="st3" d="M59.3,32.8c-0.4-0.6-0.9-1.3-1.3-1.9c-0.2-0.3-0.3-0.5-0.6-0.7c-0.1-0.1-0.1-0.1,0-0.1
		c0.3-0.2,0.6-0.4,0.7-0.8c0.1-0.2,0.1-0.4,0.1-0.6c0-0.6-0.4-1.2-1-1.4c-0.3-0.1-0.6-0.1-0.9-0.1c-0.4,0-0.9,0-1.3,0
		c-0.3,0-0.2,0-0.2,0.3c0,0.9,0,1.9,0,2.9l0,0c0,0,0,0.4,0,0.6c0,0.7,0,1.4,0,2.1c0,0.1,0,0.1,0.1,0.1c0.2,0,0.3,0,0.6,0
		s0.2,0,0.2-0.2c0-0.7,0-1.4,0-2.2c0,0,0-0.1,0-0.1s0-0.1,0.1-0.1c0,0,0.1,0,0.2,0c0.4,0,0.7,0.1,0.9,0.4l0.6,0.9
		c0.3,0.4,0.6,0.8,0.8,1.2c0,0,0.1,0.1,0.2,0.1c0.3,0,0.5,0,0.7,0c0,0,0.1,0,0.1,0C59.3,32.9,59.3,32.8,59.3,32.8z M55.5,29.6v-1.9
		c1.9-0.6,1.8,0.8,1.8,1C57.2,30.2,55.5,29.6,55.5,29.6z"/>
	<path class="st3" d="M36.6,31.4c0,0,0.1,0.1,0.1,0.1c0.3,0.3,0.6,0.6,0.9,0.6c0.3,0.1,0.6,0.1,0.9,0c0.6-0.2,0.7-0.9,0.3-1.3
		c-0.1-0.1-0.3-0.3-0.4-0.3c-0.3-0.3-0.6-0.4-1-0.6c-0.1-0.1-0.3-0.3-0.5-0.4c-0.3-0.2-0.4-0.5-0.4-0.8c0-0.3,0-0.6,0-0.8
		c0.1-0.4,0.4-0.7,0.9-0.9c0.3-0.1,0.6-0.2,0.9-0.2c0.4,0,0.9,0.1,1.2,0.3c0.1,0,0.1,0.1,0.1,0.2c0,0.3,0,0.5,0,0.7c0,0,0,0,0,0.1
		c0,0,0,0-0.1,0c-0.3-0.3-0.7-0.5-1.2-0.5c-0.2,0-0.4,0-0.6,0.1c-0.4,0.3-0.5,0.7-0.2,1.1c0.2,0.2,0.4,0.3,0.6,0.4
		c0.3,0.2,0.6,0.3,0.9,0.6c0.1,0.1,0.3,0.3,0.4,0.4c0.3,0.3,0.4,0.7,0.4,1.2c0,0.3-0.1,0.6-0.3,0.9c-0.3,0.4-0.6,0.6-1.1,0.6
		c-0.6,0.1-1.3,0-1.8-0.4c-0.1,0-0.1-0.1-0.1-0.2c0-0.3,0-0.6,0-0.9C36.5,31.4,36.5,31.4,36.6,31.4z"/>
	<path class="st2" d="M26.2,32.6c-0.1,0-0.3,0-0.3-0.1c0,0-0.1,0-0.1-0.1c0,0,0-0.1,0-0.1c0-0.7,0-1.5,0-2.3c0-1,0-2,0-2.9
		c0-0.1,0-0.1,0.1-0.2c0.1,0,0.3,0,0.3-0.1c0,0,0.1,0,0.1-0.1c0,0,0,0-0.1,0h-0.5c-0.6,0-1.2,0-1.9,0c-0.1,0-0.1,0-0.1,0.1
		c0,0,0,0,0.1,0.1c0.1,0,0,0,0.1,0.1c0.1,0,0,0,0,0.1v5.3c0,0.1,0.1,0.1,0,0.2c-0.1,0-0.1,0-0.2,0.1c0,0,0,0,0,0.1
		c0,0,0,0.1,0.1,0.1c0,0,0.1,0,0.1,0c0.7,0,1.5,0,2.3,0c0,0,0,0,0.1,0c0,0,0,0,0,0C26.3,32.7,26.3,32.6,26.2,32.6z"/>
	<path class="st2" d="M12.2,26.9c0.1,0,0.2,0,0.3-0.1c0.1,0,0.1,0,0.1-0.1c0-0.1,0-0.1-0.1-0.1c0,0,0,0-0.1,0h-1.1
		c-0.4,0-0.8,0-1.1,0c0,0-0.1,0-0.1,0.1c0,0.1,0,0.1,0.1,0.1c0.1,0,0.1,0,0.3,0c0.3,0,0.2,0,0.2,0.3c0,0.7,0,1.5,0,2.2
		c0,0.3,0,0.4,0,0.7c0,0.4,0,0.8,0,1.1l0,0v1.2c0,0.1,0,0.1-0.1,0.1c-0.1,0-0.3,0-0.3,0.1c-0.1,0-0.1,0.1-0.1,0.2c0,0,0,0.1,0.1,0.1
		h0c0.7,0,1.5,0,2.2,0c0,0,0.1,0,0.1,0s0.1,0,0.1-0.1c0-0.1,0-0.1-0.1-0.1c-0.1,0-0.2,0-0.3-0.1c-0.1,0-0.1,0-0.1-0.1
		c0,0,0-0.1,0-0.1c0-0.7,0-1.5,0-2.2c0-0.3,0-0.5,0-0.7c0-0.7,0-1.5,0-2.3C12.1,27,12.1,27,12.2,26.9z"/>
	<path class="st3" d="M43.4,30.3c0,0.8,0,1.6,0,2.4c0,0.1,0,0.1-0.1,0.1c-0.2,0-0.4,0-0.6,0c-0.1,0-0.1,0-0.1-0.1c0-0.6,0-1.2,0-1.8
		c0-1,0-2.1,0-3.1c0,0,0,0,0,0c0-0.1,0-0.1-0.1-0.1c-0.6,0-1.1,0-1.7,0c0,0,0,0-0.1,0s-0.1,0-0.1-0.1c0-0.2,0-0.4,0-0.6
		c0,0,0,0,0.1,0s0.1,0,0.1,0c1.5,0,3.1,0,4.6,0c0.2,0,0.2,0,0.2,0.2c0,0.1,0,0.3,0,0.4s0,0.1-0.1,0.1c-0.3,0-0.7,0-1.1,0
		c-0.2,0-0.4,0-0.6,0c-0.1,0-0.1,0-0.1,0.1C43.3,28.7,43.3,29.5,43.4,30.3C43.3,30.3,43.4,30.3,43.4,30.3z"/>
	<path class="st3" d="M59.3,27c0.1,0,0.3,0,0.3,0c0.1,0,0.1,0,0.2,0.1c0.3,0.4,0.7,0.9,1.1,1.4c0.1,0.1,0.3,0.3,0.3,0.5
		c0,0.1,0,0.1,0.1,0c0.2-0.3,0.4-0.5,0.6-0.7c0.3-0.3,0.6-0.7,0.9-1.1c0-0.1,0.1-0.1,0.2-0.1c0.3,0,0.5,0,0.7,0c0,0,0,0,0.1,0
		c0,0,0,0,0,0c0,0,0,0.1-0.1,0.1c-0.6,0.9-1.3,1.7-1.9,2.5c0,0.1-0.1,0.1-0.1,0.3c0,0.9,0,1.9,0,2.9c0,0,0,0,0,0.1s0,0.1-0.1,0.1
		c-0.1,0-0.1,0-0.3,0c-0.1,0-0.3,0-0.4,0c-0.1,0-0.1,0-0.1-0.1c0-0.5,0-1,0-1.5c0-0.5,0-1,0-1.5c0-0.1,0-0.1-0.1-0.3
		c-0.5-0.6-1-1.2-1.5-1.9c-0.2-0.2-0.3-0.4-0.6-0.6l0,0c0,0,0-0.1,0-0.1C59,27,59.1,27,59.3,27L59.3,27z"/>
	<path class="st2" d="M15.7,29.7c0-0.2,0-0.4,0-0.7c0-0.6,0-1.3,0-1.9c0-0.1,0-0.1,0.1-0.1c0.1,0,0.3,0,0.3-0.1c0,0,0.1,0,0.1-0.1
		c0-0.1,0-0.1-0.1-0.1c-0.4,0-0.8,0-1.2,0c-0.3,0-0.7,0-1.1,0c-0.1,0-0.1,0-0.1,0.1c0,0,0,0,0.1,0.1c0.1,0,0.3,0,0.3,0.1
		c0,0,0.1,0,0.1,0.1v0c0,0.9,0,1.9,0,2.8c0,0.1,0,0.2,0.1,0.2c0.2,0,0.4,0.1,0.6,0.1c0.2,0,0.4,0.1,0.7,0.1c0.1,0,0.1,0,0.1-0.1
		c0-0.1,0-0.2,0-0.3"/>
	<path class="st2" d="M23.1,32.6c-0.1,0-0.1,0-0.3,0c-0.1,0-0.1-0.1-0.2-0.1c-0.4-1.1-0.9-2.1-1.3-3.2c0-0.1,0-0.1-0.1,0
		c-0.4,0.3-0.8,0.4-1.2,0.6c0,0-0.1,0,0,0.1c0,0.1,0.1,0.3,0.1,0.3c0,0,0,0.1,0,0.1c0,0,0,0.1,0,0.1c0,0,0,0,0.1,0c0,0,0,0,0.1,0.1
		c0.2,0.6,0.4,1.1,0.6,1.6c0.2,0.5,0.6,0.9,1.2,0.9h1c0,0,0.1,0,0.1-0.1C23.2,32.7,23.2,32.6,23.1,32.6z"/>
	<path class="st2" d="M19.5,28.5c0,0.1,0,0.1-0.1,0.3c-0.1,0.3-0.3,0.6-0.3,0.9c0,0,0,0.1-0.1,0.1c-0.1,0-0.1,0-0.2,0c0,0,0,0,0,0
		c0-0.1,0-0.2,0.1-0.3c0.4-0.9,0.8-1.9,1.2-2.9c0-0.1,0.1-0.1,0.2-0.1h0c0.1,0,0.1,0,0.2,0.1c0,0.2,0.1,0.3,0.2,0.6
		c0.3,0.6,0.5,1.2,0.7,1.8c0,0.1,0,0.1,0,0.1c-0.4,0.1-0.9,0.3-1.2,0.4c-0.1,0-0.1,0-0.1-0.1c-0.1-0.3-0.2-0.5-0.3-0.7
		C19.5,28.6,19.5,28.6,19.5,28.5z"/>
	<path class="st2" d="M16.1,32.7c-0.1,0-0.2,0-0.3-0.1c-0.1,0-0.1,0-0.1-0.2c0-0.3,0-0.6,0-0.9c0-0.2,0-0.2-0.1-0.2
		c-0.4,0-0.8-0.1-1.2-0.2c-0.1,0-0.1,0-0.1,0.1c0,0.4,0,0.9,0,1.2c0,0.1,0,0.1-0.1,0.2c-0.1,0-0.2,0-0.3,0c-0.1,0-0.1,0-0.1,0.1
		c0,0.1,0,0,0.1,0.1h0H16c0,0,0.1,0,0.1,0S16.2,32.8,16.1,32.7C16.2,32.8,16.2,32.7,16.1,32.7z"/>
	<path class="st2" d="M17.6,32.8c-0.3,0-0.4,0-0.7,0c0,0-0.1,0-0.1,0c0-0.1,0-0.1,0.1-0.2c0.1,0,0.3-0.1,0.5-0.2
		c0.1,0,0.1-0.1,0.1-0.1c0.1-0.3,0.3-0.6,0.4-1c0,0,0-0.1,0.1-0.1c0,0,0.1,0,0.2,0c0,0,0,0,0,0s0,0,0,0.1c-0.1,0.3-0.3,0.6-0.4,0.9
		c0,0,0,0,0,0c0,0,0,0.1,0,0.1c0.1,0,0.3,0.1,0.5,0.2c0,0,0.1,0,0.1,0.1c0,0.1,0,0.1-0.1,0.1C18.1,32.8,17.9,32.8,17.6,32.8
		L17.6,32.8z"/>
	<path class="st3" d="M7.6,27.4c0,0,0.1-0.1,0.2-0.1c0.3-0.1,0.4,0,0.4,0.3c0,0,0,0,0,0.1c0,0.2,0,0.3,0,0.6c0,0.1,0,0.1-0.1,0.1
		c-0.1,0-0.1,0-0.1-0.1c0-0.1,0-0.3,0-0.5c0,0,0-0.1,0-0.2c0-0.1-0.1-0.1-0.2-0.1c-0.1,0-0.3,0.1-0.3,0.3c0,0.2,0,0.3,0,0.6
		c0,0,0,0.1,0,0.1s-0.1,0-0.1,0v0c0,0,0,0,0-0.1c0-0.4,0-0.8,0-1.2v0c0-0.1,0-0.1,0.1-0.1s0.1,0,0.1,0.1c0,0.1,0,0.3,0,0.4
		C7.5,27.4,7.5,27.4,7.6,27.4z"/>
	<path class="st3" d="M6.4,27.7c0-0.2,0-0.3,0-0.6c0-0.1,0-0.1-0.1-0.1c-0.1,0-0.2,0-0.3,0c0,0-0.1,0-0.1-0.1c0-0.1,0-0.1,0.1-0.1
		c0.3,0,0.7,0,1.1,0c0.1,0,0.1,0,0.1,0.1C7.1,27,7.1,27,7,27c-0.1,0-0.1,0-0.3,0c-0.2,0-0.2,0-0.2,0.2c0,0.3,0,0.6,0,1
		c0,0,0,0,0,0.1c0,0.1,0,0.1-0.1,0.1c-0.1,0-0.1,0-0.1-0.1C6.4,28,6.4,27.9,6.4,27.7L6.4,27.7z"/>
	<g>
		<path class="st4" d="M3.6,30.9c0,0,2.6-3.1,6.8-2.1v1C10.4,29.9,6.3,28.2,3.6,30.9z"/>
		<path class="st4" d="M12,29.2c0,0,3.7,1.2,3.8,1.1c0,0,3.4,1.1,6.6-1.2c0,0-1.5,1.4-2.7,1.7c0,0-2,0.9-3.8,0.5
			c0,0-1.7-0.2-3.7-1.1C12,30.3,12,29.2,12,29.2z"/>
		<path class="st4" d="M15.2,29.6c0,0,1.5,0.6,3.4,0.3c0,0,0.9,0,3.3-1c0,0-1.9,1.2-3.1,1.4C18.7,30.2,17,30.5,15.2,29.6z"/>
	</g>
	<g>
		<g>
			<ellipse class="st5" cx="49.7" cy="29.9" rx="4" ry="4.1"/>
			<path class="st6" d="M48.9,31.1c0,0-0.9-0.3-2.9,0.4c0,0,0.5,1.5,2.5,2.3c0,0,1.8,0.7,3.7-0.6c0,0,2-1.2,1.6-3.9
				c0,0-0.2-1.1-0.6-1.7c0,0-1.4,0.9-1.7,2"/>
			<path class="st7" d="M47,29.5c0,0,0.1,1.6,1.5,2.9c0,0,1.5,1.6,3.2,0.8c0,0-0.1-2.3-2.1-3.2C49.6,30,48.5,29.3,47,29.5z"/>
			<path class="st7" d="M51,27.4c0,0-1.1,1.2-1.1,3.1c0,0,0,2,1.7,2.7c0,0,1.6-1.5,0.8-3.6C52.5,29.6,52.2,28.4,51,27.4z"/>
			<path class="st8" d="M48.8,28c0,0-0.6,1.2,0,2.9c0.4,1.2,1.6,1.9,2.8,2.2c0,0,0.1-0.7,0.1-0.7c0-0.6,0-1.1,0-1.7
				c-0.3-1.1-0.7-1.8-1.7-2.3C49.9,28.5,48.9,28,48.8,28z"/>
			<ellipse class="st9" cx="49.8" cy="29.8" rx="4" ry="4.1"/>
			<path class="st10" d="M47.4,31c0,0,1.4,3.1,4.2,2.2C51.6,33.2,50.1,30.5,47.4,31z"/>
			<path class="st11" d="M48.5,29.6c0,0,0.1,1.8,0.9,2.4c0,0,1,1,2.2,1.2c0,0,0.1-1.8-1.7-3C49.9,30.2,49.1,29.7,48.5,29.6z"/>
			<path class="st11" d="M50.3,28.6c0,0-0.8,1.5,0,3.4c0,0,0.6,1,1.3,1.2c0,0,0.3-1,0-2.6C51.6,30.7,51.6,29.3,50.3,28.6z"/>
			<path class="st10" d="M51.9,28.5c0,0-1.7,1.7-0.3,4.7C51.6,33.2,53.7,31.6,51.9,28.5z"/>
		</g>
		<g>
			<path class="st12" d="M50.1,32.3c0-0.1-0.1-0.2-0.3-0.2c-0.1,0-0.2,0-0.3,0c-0.1,0-0.2,0-0.3-0.1c-0.1-0.1-0.1-0.1-0.1-0.3
				c0,0,0,0,0-0.1c0,0,0,0,0-0.1c0,0,0-0.1,0-0.1c0,0,0,0,0-0.1c0,0,0-0.1,0-0.1c0.1-0.1,0.1-0.1,0-0.2c-0.1-0.1,0-0.2,0-0.3
				c0.1,0,0.2-0.1,0.3-0.1c0.1,0,0.1-0.1,0.1-0.2c0-0.3,0.2-0.4,0.3-0.6c0.1-0.1,0.3-0.3,0.5-0.3c0.2,0,0.3,0,0.6,0h0"/>
			<path class="st12" d="M52.4,31.3c0,0,0,1-0.9,1.3c0,0,0.2,0.8,0.5,0.7c0,0-1,0.8-2.3,0.7c0,0,0.1-0.4,0.4-0.6
				c0,0,0.2,0.1,0.1-0.4L50,32.7c0,0-0.1-0.2-0.1-0.3c0-0.1-0.1-0.3-0.3-0.3c-0.1,0,1.2-2.7,1.2-2.7s0.5,0,1.1,0.6c0,0,0-0.2,0.3,0
				c0,0,0.6,0.5,0.3,1.1C52.7,31.1,52.7,31.4,52.4,31.3"/>
		</g>
	</g>
	<path class="st13" d="M9,27.4c-0.2-0.1-0.4,0-0.5,0.1c-0.1,0.1-0.1,0.3,0,0.5c0,0.1,0.1,0.2,0.3,0.2c0.1,0,0.3,0,0.3,0
		c0.1,0,0.1,0,0.1-0.2c0,0-0.1,0-0.2,0.1c-0.1,0-0.3,0-0.3-0.1c0,0,0-0.1,0-0.1s0.1,0,0.1,0c0.1,0,0.3,0,0.3,0c0,0,0,0,0.1,0
		c0,0,0,0,0,0C9.2,27.7,9.1,27.4,9,27.4z M9,27.7C9,27.7,9,27.7,9,27.7c-0.1,0,0,0-0.1,0v0h0c0,0-0.1,0-0.1,0l0,0l0,0l0,0l0,0
		c0,0,0,0,0,0c0,0,0,0,0-0.1c0,0,0,0,0,0c0,0,0,0,0,0h0h0l0,0h0l0,0h0l0,0l0,0l0,0c0,0,0,0,0,0l0,0l0,0C9,27.7,9,27.7,9,27.7
		C9,27.7,9,27.7,9,27.7z"/>
	<g>
		<path class="st14" d="M19.9,41.6c-0.1-0.1-0.1-0.3-0.1-0.4c-0.1-0.3-0.2-0.6-0.3-0.9c0,0,0-0.1,0-0.2c0,0-0.1,0-0.1,0
			c0,0,0,0.1-0.1,0.2c0,0.2-0.1,0.4-0.2,0.6c0,0.2-0.1,0.4-0.3,0.6H19c0,0-0.1,0,0-0.2c0-0.2,0-0.3,0.2-0.3c0,0,0.1,0,0.1,0
			c0.1,0,0.2,0,0.3,0.3c0,0.1,0,0.1,0,0.2H19.9z M19.3,41c-0.3,0-0.3,0-0.1-0.3c0,0,0-0.1,0.1-0.2C19.3,40.7,19.3,40.8,19.3,41
			C19.3,41,19.3,41,19.3,41z"/>
		<path class="st14" d="M32.5,40.8c0,0.3-0.1,0.6,0,0.8c0,0,0,0.1,0,0.1c-0.1,0-0.1,0-0.1-0.1c0.1-0.4,0.1-0.9,0-1.3
			c0,0,0-0.1,0.1-0.1c0.1,0,0.3,0,0.3,0.1c0.1,0.3,0.2,0.6,0.3,0.9c0.2-0.3,0.2-0.6,0.3-0.7c0-0.1,0-0.3,0.3-0.2c0.3,0,0,0.1,0,0.3
			c0,0.4,0,0.9,0,1.2c-0.3,0-0.4,0-0.3-0.3c0-0.2,0-0.4,0-0.6c-0.3,0.3-0.3,0.6-0.4,0.9C32.7,41.4,32.6,41.1,32.5,40.8z"/>
		<path class="st14" d="M30.2,41.1c0.1-0.3,0.1-0.6,0.1-0.8c0,0,0-0.1,0.1-0.1c0.1,0,0.1,0,0.1,0.1c-0.1,0.4-0.1,0.8-0.3,1.2
			c0,0,0,0.1-0.1,0.1c-0.1,0-0.1-0.1-0.1-0.1c-0.1-0.3-0.1-0.5-0.3-0.8c-0.1,0.1-0.1,0.3-0.2,0.5c0,0.1,0,0.3-0.3,0.5
			c-0.2-0.5-0.1-1-0.3-1.5c0-0.1,0-0.1,0.1-0.1s0.2,0,0.1,0.1c0,0.3,0,0.4,0.1,0.7c0.3-0.3,0.2-0.6,0.4-0.9
			C30.1,40.4,30.1,40.8,30.2,41.1z"/>
		<path class="st14" d="M41.6,41.5c-0.1-0.3-0.3-0.6-0.1-0.9c0.1-0.1,0-0.3-0.1-0.4c-0.2-0.1-0.4,0-0.6,0c-0.1,0,0,0.1,0,0.1
			c0.1,0.4,0,0.8,0,1.2c0,0.1,0,0.2,0.1,0.2s0.1,0,0.1-0.1c0-0.1,0-0.3,0-0.5c0.1,0.3,0.2,0.4,0.3,0.6c0,0.1,0.1,0.1,0.3,0.1
			C41.7,41.6,41.6,41.5,41.6,41.5z M41,40.9c-0.1-0.1,0-0.3,0-0.4c0,0,0-0.1,0.1-0.1c0.1,0,0.1,0,0.1,0.1
			C41.3,40.6,41.3,40.8,41,40.9z"/>
		<path class="st14" d="M44.3,40.4c-0.1-0.4-0.6-0.3-0.9-0.3c-0.1,0-0.2,0-0.2,0.2c0,0.3,0,0.6,0,0.7c0,0.2,0,0.3,0,0.4
			c0,0.1,0,0.1,0.1,0.1c0.3,0,0.4,0,0.7-0.1C44.4,41.4,44.5,40.8,44.3,40.4z M44.1,41L44.1,41C44.1,41.1,44.1,41.1,44.1,41
			C44.1,41.1,44.1,41.1,44.1,41C44.1,41.1,44.1,41.1,44.1,41L44.1,41L44.1,41L44.1,41L44.1,41C44.1,41.1,44.1,41.1,44.1,41
			c0,0.1,0,0.1,0,0.1s0,0,0,0.1l0,0v0l0,0c0,0,0,0,0,0l0,0l0,0l0,0c0,0.1-0.1,0.1-0.3,0.1c-0.1,0-0.1-0.1-0.1-0.2c0-0.3,0-0.6,0-0.9
			c0-0.1,0-0.2,0.1-0.2c0.1,0,0.3,0,0.3,0.1c0,0.1,0.1,0.1,0.1,0.3c0,0.1,0,0.2,0,0.3C44.1,41,44.1,41,44.1,41z"/>
		<path class="st14" d="M35.9,41.2c0-0.3,0-0.6,0-0.9c0-0.1,0-0.1,0.1-0.1c0.1,0,0.1,0,0.1,0.1c-0.1,0.4,0,0.8,0,1.2
			c0,0,0,0.1-0.1,0.2c-0.1,0-0.1,0-0.1-0.1c-0.2-0.3-0.3-0.6-0.6-0.9c0,0.3,0,0.6,0,0.9c0,0,0,0.1,0,0.1c0,0-0.1,0-0.1,0
			c-0.1,0,0-0.1,0-0.1c0-0.4,0-0.8,0-1.2c0,0-0.1-0.1,0-0.1c0.1,0,0.2,0,0.3,0.1c0.1,0.2,0.3,0.4,0.4,0.6C35.8,41,35.8,41,35.9,41.2
			z"/>
		<path class="st14" d="M22.9,41.7c-0.3-0.3-0.4-0.6-0.7-1c-0.1,0.3,0,0.6,0,0.8c0,0,0,0.1-0.1,0.1S22,41.5,22,41.5
			c0-0.4,0-0.8,0-1.1c0,0-0.1-0.1,0-0.2c0.1,0,0.3,0,0.3,0.1c0.1,0.3,0.3,0.4,0.4,0.7c0,0,0,0.1,0.1,0.1c0-0.3,0-0.5,0-0.8
			c0,0,0-0.1,0-0.1s0.1,0,0.1,0.1C22.8,40.7,23,41.1,22.9,41.7C22.9,41.7,22.9,41.7,22.9,41.7z"/>
		<path class="st14" d="M31.9,40.4c-0.2-0.3-0.7-0.3-0.9,0c-0.1,0.1-0.1,0.3-0.1,0.6c0,0.2,0,0.3,0.1,0.5c0.1,0.1,0.3,0.3,0.5,0.3
			c0.2,0,0.4-0.1,0.5-0.3C32,41.1,32,40.7,31.9,40.4z M31.6,41.4c0,0.1-0.1,0.3-0.3,0.3c-0.1,0-0.3-0.1-0.3-0.3
			c-0.1-0.3-0.1-0.6,0-0.9c0-0.1,0.1-0.3,0.3-0.3c0.2,0,0.3,0.1,0.3,0.2c0,0.1,0.1,0.3,0.1,0.5C31.7,41.1,31.7,41.2,31.6,41.4z"/>
		<path class="st14" d="M27,40.4c-0.2-0.3-0.7-0.3-0.9,0c-0.2,0.3-0.3,0.9,0,1.2c0.3,0.3,0.6,0.3,0.9,0c0.1-0.2,0.2-0.4,0.2-0.6
			C27.2,40.7,27.1,40.5,27,40.4z M26.8,41.4c0,0.1-0.1,0.2-0.3,0.1c-0.1,0-0.2-0.1-0.3-0.1c-0.1-0.1-0.1-0.3-0.1-0.6
			c0-0.1,0-0.3,0-0.4c0-0.1,0.1-0.1,0.3-0.2c0.1,0,0.3,0.1,0.3,0.2C26.9,40.8,27,41.1,26.8,41.4z"/>
		<path class="st14" d="M20.9,40.7c0,0.1,0,0.3,0,0.5c0,0.1,0.1,0.3,0.3,0.3c0.2,0,0.3-0.1,0.3-0.3c0-0.3,0-0.6,0-0.9
			c0-0.1,0-0.1,0.1-0.1c0.1,0,0.1,0,0.1,0.1c0,0.3,0,0.6,0,1c0,0.3-0.1,0.4-0.4,0.4s-0.4-0.2-0.4-0.4c0-0.3,0-0.7,0-1
			c0-0.1,0-0.1,0.1-0.1c0.1,0,0.2,0,0.1,0.1C20.9,40.4,20.9,40.6,20.9,40.7L20.9,40.7z"/>
		<path class="st14" d="M39,40.3c0-0.2-0.3-0.2-0.4-0.2c-0.3,0-0.3,0-0.3,0.3c0,0.3,0,0.6,0,1c0,0.1-0.1,0.2,0,0.3c0,0,0.2,0,0.3,0
			c0.1,0,0-0.1,0-0.3c0-0.2-0.1-0.4,0.3-0.5C39.1,40.8,39.1,40.6,39,40.3z M38.8,40.6c0,0.1,0,0.3-0.2,0.3c-0.1,0-0.1-0.1-0.1-0.3
			c0.1-0.1,0-0.3,0.1-0.3C38.8,40.3,38.8,40.5,38.8,40.6z"/>
		<path class="st14" d="M34.7,40.4c-0.1,0-0.3-0.1-0.4,0c-0.1,0.1,0,0.3,0,0.4c0,0.1,0,0.1,0.1,0.1c0.2,0,0.2,0,0.2,0.2
			c-0.1,0-0.3-0.2-0.3,0c0,0.1-0.1,0.3,0,0.5c0.1,0.1,0.3,0,0.3-0.1c0,0.1,0,0.3,0,0.3c-0.2,0.1-0.4,0-0.6,0c-0.1,0,0-0.1,0-0.2
			c0-0.4,0-0.8,0-1.1c0,0,0-0.1,0-0.1c0.2-0.1,0.4,0,0.6,0C34.7,40.2,34.7,40.3,34.7,40.4z"/>
		<path class="st14" d="M45.4,41.3c0.1,0.1,0.1,0.3,0.4,0.3c0.1,0,0.1-0.1,0.1-0.3c0-0.1-0.1-0.3-0.3-0.3c-0.3-0.1-0.3-0.3-0.3-0.6
			c0-0.2,0.1-0.3,0.4-0.3s0.3,0,0.3,0.3c-0.1-0.1-0.1-0.3-0.3-0.2c-0.1,0-0.1,0.1-0.1,0.2c0,0.1,0.1,0.2,0.3,0.3
			c0.4,0.1,0.4,0.6,0.1,0.9c-0.1,0.1-0.3,0.1-0.4,0C45.4,41.6,45.3,41.5,45.4,41.3z"/>
		<path class="st14" d="M28.2,40.4c-0.1,0-0.2-0.2-0.3-0.1c-0.1,0.1,0,0.3,0,0.4s0.1,0,0.3,0c0.2,0,0,0.2,0.1,0.3
			c-0.3-0.1-0.3-0.1-0.3,0.1c0,0.1,0,0.3,0,0.3c0,0.1,0,0.1-0.1,0.1c-0.1,0-0.2,0-0.2-0.1c0-0.4,0-0.9,0-1.3c0-0.3,0.3-0.1,0.4-0.1
			C28,40.1,28.2,40.1,28.2,40.4z"/>
		<path class="st14" d="M36.4,41.3c0.1,0.1,0.1,0.3,0.3,0.3c0.1,0,0.1-0.1,0.2-0.2c0-0.1-0.1-0.3-0.3-0.3c-0.3-0.1-0.4-0.6-0.2-0.8
			c0.1-0.1,0.3-0.1,0.4-0.1c0.2,0,0.1,0.1,0.1,0.3c-0.1,0-0.1-0.3-0.3-0.2c-0.1,0-0.1,0.1-0.1,0.2c0,0.2,0.1,0.3,0.3,0.3
			c0.3,0,0.3,0.3,0.3,0.4c0,0.2,0,0.4-0.3,0.5C36.6,41.8,36.4,41.7,36.4,41.3z"/>
		<path class="st14" d="M47.3,41.4c0,0.3-0.2,0.3-0.4,0.3c-0.2,0-0.3,0-0.3-0.3c0-0.4,0-0.8,0-1.2v0c0.2-0.1,0.4,0,0.6,0
			c0.2,0,0.3,0,0.2,0.3c-0.1,0-0.3-0.1-0.4,0c-0.1,0.1,0,0.3,0,0.3c0,0.1,0,0.1,0.2,0.1c0.3-0.1,0.1,0.1,0.1,0.1c0,0.1-0.1,0-0.1,0
			c-0.1,0-0.2,0-0.2,0.1c0,0.1-0.1,0.3,0,0.4C47,41.6,47.1,41.5,47.3,41.4z"/>
		<path class="st14" d="M25,40.4c-0.1,0-0.1-0.1-0.3-0.1c-0.1,0-0.1,0.1-0.1,0.3c0,0.3,0,0.6,0,0.9c0,0.1,0,0.2-0.1,0.2
			c-0.2,0-0.1-0.1-0.1-0.2c0-0.3,0-0.6,0-0.9c0-0.1,0-0.3-0.3-0.2c-0.1,0-0.1,0-0.1,0c0,0,0-0.1,0.1-0.1c0.3,0,0.4,0,0.7,0
			C25.1,40.1,25,40.3,25,40.4z"/>
		<path class="st14" d="M23.4,40.8c0-0.1,0-0.3,0-0.5c0-0.2,0-0.1,0.1-0.1s0.2,0,0.1,0.2c0,0.4,0,0.8,0,1.1c0,0,0,0.1,0,0.2
			c0,0-0.1,0-0.3,0c-0.1,0,0-0.1,0-0.2C23.4,41.2,23.4,41,23.4,40.8L23.4,40.8z"/>
		<path class="st14" d="M45,40.7c0,0.3,0,0.6,0,0.8c0,0,0,0.1,0,0.1c-0.1,0-0.2,0-0.3,0c-0.1,0,0-0.1,0-0.1c0-0.4,0-0.8,0-1.2
			c0,0,0-0.1,0-0.1c0,0,0.1,0,0.3,0s0,0.1,0,0.1C45,40.5,45,40.6,45,40.7z"/>
		<path class="st14" d="M43,41.6c-0.1-0.1-0.1-0.3-0.1-0.4c-0.1-0.3-0.2-0.6-0.3-0.9c0,0,0-0.1,0-0.2c0,0-0.1,0-0.1,0
			c0,0,0,0.1-0.1,0.2c0,0.2-0.1,0.4-0.2,0.6c-0.1,0.2-0.1,0.4-0.3,0.6h0.3c0,0-0.1,0,0-0.2c0-0.2,0-0.3,0.2-0.3c0,0,0.1,0,0.1,0
			c0.1,0,0.2,0,0.3,0.3c0,0.1,0,0.1,0,0.2H43z M42.4,41.1c-0.3,0-0.3,0-0.1-0.3c0,0,0-0.1,0.1-0.2C42.4,40.8,42.4,40.9,42.4,41.1
			C42.4,41,42.4,41.1,42.4,41.1z"/>
		<path class="st14" d="M40.4,41.6c-0.1-0.1-0.1-0.3-0.1-0.4c-0.1-0.3-0.2-0.6-0.3-0.9c0,0,0-0.1,0-0.2c0,0-0.1,0-0.1,0
			c0,0,0,0.1-0.1,0.2c0,0.2-0.1,0.4-0.2,0.6c-0.1,0.2-0.1,0.4-0.3,0.6h0.3c0,0-0.1,0,0-0.2c0-0.2,0-0.3,0.2-0.3c0,0,0.1,0,0.1,0
			c0.1,0,0.2,0,0.3,0.3c0,0.1,0,0.1,0,0.2H40.4z M39.8,41.1c-0.3,0-0.3,0-0.1-0.3c0,0,0-0.1,0.1-0.2C39.8,40.8,39.9,40.9,39.8,41.1
			C39.9,41,39.8,41.1,39.8,41.1z"/>
	</g>
</g>
</svg>
