<?xml version="1.0" encoding="utf-8"?>
<!-- Generator: Adobe Illustrator 16.0.0, SVG Export Plug-In . SVG Version: 6.00 Build 0)  -->
<!DOCTYPE svg PUBLIC "-//W3C//DTD SVG 1.1//EN" "http://www.w3.org/Graphics/SVG/1.1/DTD/svg11.dtd">
<svg version="1.1" id="Layer_1" xmlns="http://www.w3.org/2000/svg" xmlns:xlink="http://www.w3.org/1999/xlink" x="0px" y="0px"
	 width="300px" height="71.305px" viewBox="0 0 300 71.305" enable-background="new 0 0 300 71.305" xml:space="preserve">
<circle fill="#FFFFFF" cx="74.273" cy="22.917" r="20"/>
<path fill="#BE1E2D" d="M1.679,14.328c-0.22-0.218-0.329-0.494-0.329-0.823s0.218-0.493,0.658-0.493h5.674
	c0.384,0,0.794,0.22,1.234,0.658L20.43,28.309c0.109,0.111,0.165,0.247,0.165,0.411c0,0.165-0.056,0.302-0.165,0.412l-2.878,3.536
	c-0.164,0.165-0.329,0.247-0.494,0.247c-0.164,0-0.329-0.083-0.493-0.247L1.679,14.328z M26.271,36.78v17.188
	c0,0.988-0.528,1.481-1.583,1.481h-3.25c-1,0-1.5-0.493-1.5-1.481V37.354c0-0.383,0.083-0.739,0.249-1.068
	c0.167-0.328,0.361-0.629,0.584-0.904L37.455,13.67c0.329-0.438,0.712-0.658,1.152-0.658h5.51c0.439,0,0.658,0.165,0.658,0.493
	c0,0.111-0.137,0.385-0.412,0.823L26.271,36.78z M108.347,14.575c0-0.438,0.136-0.809,0.411-1.11
	c0.274-0.301,0.63-0.453,1.069-0.453H134.5c1.809,0,3.496,0.343,5.058,1.028c1.562,0.686,2.932,1.618,4.112,2.796
	c1.179,1.18,2.11,2.55,2.796,4.113c0.685,1.562,1.028,3.248,1.028,5.058c0,1.535-0.247,2.989-0.74,4.358
	c-0.494,1.372-1.18,2.605-2.057,3.701c-0.878,1.098-1.92,2.044-3.125,2.838c-1.206,0.795-2.495,1.354-3.865,1.686l11.679,15.956
	c0.109,0.164,0.164,0.357,0.164,0.575c0,0.274-0.164,0.41-0.493,0.41h-5.181c-0.385,0-0.782-0.122-1.193-0.369
	c-0.411-0.247-0.754-0.562-1.027-0.945l-11.185-15.215h-9.623c-0.44,0-0.796-0.138-1.069-0.412
	c-0.275-0.272-0.411-0.629-0.411-1.067v-2.55c0-0.438,0.136-0.794,0.411-1.069c0.273-0.273,0.629-0.411,1.069-0.411h12.83
	c2.083,0,3.878-0.712,5.387-2.138c1.508-1.425,2.262-3.179,2.262-5.264c0-2.083-0.754-3.837-2.262-5.264
	c-1.509-1.425-3.303-2.138-5.387-2.138H114.68V53.97c0,0.438-0.152,0.795-0.453,1.069c-0.302,0.274-0.672,0.411-1.11,0.411h-3.29
	c-0.439,0-0.795-0.137-1.069-0.411s-0.411-0.631-0.411-1.069V14.575z"/>
<path fill="#1B7EBC" d="M201.692,54.133c0.11,0.329,0.166,0.522,0.166,0.576c0,0.494-0.273,0.74-0.824,0.74h-4.604
	c-0.439,0-0.77-0.218-0.986-0.658l-4.688-9.787h-19.739c-0.385,0-0.573-0.19-0.573-0.575c0-0.164,0.025-0.301,0.08-0.412
	l1.813-3.617c0.218-0.547,0.629-0.82,1.23-0.82h14.561l-10.035-21.63l-17.928,36.845c-0.221,0.438-0.551,0.658-0.988,0.658h-4.109
	c-0.551,0-0.82-0.246-0.82-0.74c0-0.054,0.053-0.247,0.164-0.576l19.49-39.558c0.219-0.438,0.533-0.809,0.944-1.11
	c0.41-0.301,0.835-0.453,1.271-0.453h3.865c0.439,0,0.864,0.152,1.275,0.453c0.411,0.302,0.727,0.672,0.945,1.11L201.692,54.133
	L201.692,54.133z M210.079,14.575c0-0.438,0.139-0.809,0.414-1.11c0.271-0.301,0.629-0.453,1.064-0.453h24.756
	c1.813,0,3.495,0.343,5.061,1.028c1.562,0.686,2.92,1.618,4.07,2.796c1.149,1.18,2.067,2.55,2.756,4.113
	c0.686,1.562,1.025,3.248,1.025,5.058c0,1.809-0.343,3.495-1.025,5.058c-0.688,1.563-1.604,2.92-2.756,4.071
	c-1.15,1.151-2.512,2.07-4.07,2.755c-1.563,0.687-3.248,1.025-5.061,1.025h-13.732c-0.439,0-0.795-0.137-1.068-0.411
	c-0.275-0.272-0.411-0.629-0.411-1.069v-2.548c0-0.438,0.136-0.794,0.411-1.07c0.273-0.273,0.629-0.411,1.068-0.411h12.748
	c1.041,0,2.041-0.192,3.003-0.576c0.958-0.383,1.795-0.905,2.507-1.563c0.714-0.658,1.275-1.439,1.688-2.344
	c0.409-0.905,0.616-1.877,0.616-2.919c0-1.041-0.207-2.001-0.616-2.879c-0.41-0.876-0.974-1.645-1.688-2.303
	c-0.712-0.658-1.549-1.178-2.507-1.563c-0.962-0.382-1.962-0.576-3.003-0.576h-18.916v35.281c0,0.439-0.151,0.798-0.452,1.07
	c-0.302,0.274-0.673,0.411-1.11,0.411h-3.29c-0.438,0-0.794-0.137-1.067-0.411c-0.272-0.272-0.41-0.631-0.41-1.07v-39.39H210.079z
	 M259.59,14.575c0-0.438,0.136-0.809,0.41-1.11c0.273-0.301,0.63-0.453,1.068-0.453h24.756c1.81,0,3.496,0.343,5.059,1.028
	c1.563,0.686,2.92,1.618,4.07,2.796c1.148,1.18,2.07,2.55,2.756,4.113c0.685,1.562,1.027,3.248,1.027,5.058
	c0,1.809-0.346,3.495-1.027,5.058c-0.686,1.563-1.604,2.92-2.756,4.071c-1.15,1.151-2.508,2.07-4.07,2.755s-3.249,1.025-5.059,1.025
	h-13.733c-0.44,0-0.796-0.137-1.069-0.411c-0.271-0.272-0.412-0.629-0.412-1.069v-2.548c0-0.438,0.141-0.794,0.412-1.07
	c0.273-0.273,0.629-0.411,1.069-0.411h12.748c1.04,0,2.041-0.192,3.002-0.576c0.957-0.383,1.794-0.905,2.508-1.563
	c0.711-0.658,1.272-1.439,1.687-2.344c0.412-0.905,0.617-1.877,0.617-2.919c0-1.041-0.205-2.001-0.617-2.879
	c-0.41-0.876-0.976-1.645-1.687-2.303c-0.714-0.658-1.551-1.178-2.508-1.563c-0.961-0.382-1.962-0.576-3.002-0.576h-18.917v35.281
	c0,0.439-0.151,0.798-0.451,1.07c-0.303,0.274-0.674,0.411-1.111,0.411h-3.291c-0.438,0-0.793-0.137-1.065-0.411
	c-0.274-0.272-0.41-0.631-0.41-1.07L259.59,14.575L259.59,14.575z"/>
<g>
	<path fill="#BE1E2D" d="M74.273,1.79c-12.295,0-22.265,9.968-22.265,22.264c0,16.7,22.265,44.53,22.265,44.53
		S96.54,40.751,96.54,24.054C96.538,11.758,86.57,1.79,74.273,1.79z M74.273,36.524c-6.887,0-12.468-5.583-12.468-12.471
		c0-6.887,5.582-12.466,12.468-12.466c6.886,0,12.469,5.581,12.469,12.466C86.742,30.941,81.159,36.524,74.273,36.524z"/>
	<path fill="#1B7EBC" d="M78.347,25.311l2.518,7.748l-6.59-4.79l-6.594,4.79l2.519-7.748l-6.591-4.791h8.148l2.519-7.746
		l2.518,7.746h8.145L78.347,25.311z"/>
</g>
</svg>
